%TF.GenerationSoftware,KiCad,Pcbnew,9.0.6*%
%TF.CreationDate,2026-05-04T00:19:29+02:00*%
%TF.ProjectId,MCU Datalogger,4d435520-4461-4746-916c-6f676765722e,1*%
%TF.SameCoordinates,Original*%
%TF.FileFunction,Copper,L1,Top*%
%TF.FilePolarity,Positive*%
%FSLAX46Y46*%
G04 Gerber Fmt 4.6, Leading zero omitted, Abs format (unit mm)*
G04 Created by KiCad (PCBNEW 9.0.6) date 2026-05-04 00:19:29*
%MOMM*%
%LPD*%
G01*
G04 APERTURE LIST*
G04 Aperture macros list*
%AMRoundRect*
0 Rectangle with rounded corners*
0 $1 Rounding radius*
0 $2 $3 $4 $5 $6 $7 $8 $9 X,Y pos of 4 corners*
0 Add a 4 corners polygon primitive as box body*
4,1,4,$2,$3,$4,$5,$6,$7,$8,$9,$2,$3,0*
0 Add four circle primitives for the rounded corners*
1,1,$1+$1,$2,$3*
1,1,$1+$1,$4,$5*
1,1,$1+$1,$6,$7*
1,1,$1+$1,$8,$9*
0 Add four rect primitives between the rounded corners*
20,1,$1+$1,$2,$3,$4,$5,0*
20,1,$1+$1,$4,$5,$6,$7,0*
20,1,$1+$1,$6,$7,$8,$9,0*
20,1,$1+$1,$8,$9,$2,$3,0*%
G04 Aperture macros list end*
%TA.AperFunction,SMDPad,CuDef*%
%ADD10RoundRect,0.073750X-0.911250X-0.221250X0.911250X-0.221250X0.911250X0.221250X-0.911250X0.221250X0*%
%TD*%
%TA.AperFunction,SMDPad,CuDef*%
%ADD11R,0.550000X1.500000*%
%TD*%
%TA.AperFunction,SMDPad,CuDef*%
%ADD12R,1.500000X0.550000*%
%TD*%
%TA.AperFunction,SMDPad,CuDef*%
%ADD13RoundRect,0.150000X-0.825000X-0.150000X0.825000X-0.150000X0.825000X0.150000X-0.825000X0.150000X0*%
%TD*%
%TA.AperFunction,SMDPad,CuDef*%
%ADD14RoundRect,0.250000X-0.262500X-0.450000X0.262500X-0.450000X0.262500X0.450000X-0.262500X0.450000X0*%
%TD*%
%TA.AperFunction,ComponentPad*%
%ADD15C,1.700000*%
%TD*%
%TA.AperFunction,ComponentPad*%
%ADD16R,1.700000X1.700000*%
%TD*%
%TA.AperFunction,SMDPad,CuDef*%
%ADD17RoundRect,0.243750X-0.243750X-0.456250X0.243750X-0.456250X0.243750X0.456250X-0.243750X0.456250X0*%
%TD*%
%TA.AperFunction,SMDPad,CuDef*%
%ADD18RoundRect,0.250000X-0.250000X-0.475000X0.250000X-0.475000X0.250000X0.475000X-0.250000X0.475000X0*%
%TD*%
%TA.AperFunction,SMDPad,CuDef*%
%ADD19RoundRect,0.250001X0.949999X-1.499999X0.949999X1.499999X-0.949999X1.499999X-0.949999X-1.499999X0*%
%TD*%
%TA.AperFunction,SMDPad,CuDef*%
%ADD20RoundRect,0.250000X0.250000X0.475000X-0.250000X0.475000X-0.250000X-0.475000X0.250000X-0.475000X0*%
%TD*%
%TA.AperFunction,SMDPad,CuDef*%
%ADD21RoundRect,0.250000X0.262500X0.450000X-0.262500X0.450000X-0.262500X-0.450000X0.262500X-0.450000X0*%
%TD*%
%TA.AperFunction,SMDPad,CuDef*%
%ADD22RoundRect,0.250000X0.450000X-0.262500X0.450000X0.262500X-0.450000X0.262500X-0.450000X-0.262500X0*%
%TD*%
%TA.AperFunction,ViaPad*%
%ADD23C,0.800000*%
%TD*%
%TA.AperFunction,Conductor*%
%ADD24C,0.250000*%
%TD*%
G04 APERTURE END LIST*
D10*
%TO.P,U4,8,VCC*%
%TO.N,/Vcc*%
X91941485Y-84025109D03*
%TO.P,U4,7,SQW/~INT*%
%TO.N,Net-(U4-SQW{slash}~INT)*%
X91941485Y-85295109D03*
%TO.P,U4,6,SCL*%
%TO.N,/SCL*%
X91941485Y-86565109D03*
%TO.P,U4,5,SDA*%
%TO.N,/SDA*%
X91941485Y-87835109D03*
%TO.P,U4,4,GND*%
%TO.N,GND*%
X86991485Y-87835109D03*
%TO.P,U4,3,~{INTA}*%
%TO.N,Net-(U4-~{INTA})*%
X86991485Y-86565109D03*
%TO.P,U4,2,X2*%
%TO.N,Net-(U4-X2)*%
X86991485Y-85295109D03*
%TO.P,U4,1,X1*%
%TO.N,Net-(U4-X1)*%
X86991485Y-84025109D03*
%TD*%
D11*
%TO.P,U3,32,PD2*%
%TO.N,/D2*%
X98350485Y-81222109D03*
%TO.P,U3,31,PD1*%
%TO.N,/TX*%
X99150485Y-81222109D03*
%TO.P,U3,30,PD0*%
%TO.N,/RX*%
X99950485Y-81222109D03*
%TO.P,U3,29,PC6*%
%TO.N,/RESET*%
X100750485Y-81222109D03*
%TO.P,U3,28,PC5*%
%TO.N,/SCL*%
X101550485Y-81222109D03*
%TO.P,U3,27,PC4*%
%TO.N,/SDA*%
X102350485Y-81222109D03*
%TO.P,U3,26,PC3*%
%TO.N,unconnected-(U3-PC3-Pad26)*%
X103150485Y-81222109D03*
%TO.P,U3,25,PC2*%
%TO.N,unconnected-(U3-PC2-Pad25)*%
X103950485Y-81222109D03*
D12*
%TO.P,U3,24,PC1*%
%TO.N,unconnected-(U3-PC1-Pad24)*%
X105350485Y-82622109D03*
%TO.P,U3,23,PC0*%
%TO.N,unconnected-(U3-PC0-Pad23)*%
X105350485Y-83422109D03*
%TO.P,U3,22,ADC7*%
%TO.N,unconnected-(U3-ADC7-Pad22)*%
X105350485Y-84222109D03*
%TO.P,U3,21,GND*%
%TO.N,GND*%
X105350485Y-85022109D03*
%TO.P,U3,20,AREF*%
%TO.N,Net-(U3-AREF)*%
X105350485Y-85822109D03*
%TO.P,U3,19,ADC6*%
%TO.N,unconnected-(U3-ADC6-Pad19)*%
X105350485Y-86622109D03*
%TO.P,U3,18,AVCC*%
%TO.N,Net-(BT1-+)*%
X105350485Y-87422109D03*
%TO.P,U3,17,PB5*%
%TO.N,/SCK*%
X105350485Y-88222109D03*
D11*
%TO.P,U3,16,PB4*%
%TO.N,/MISO*%
X103950485Y-89622109D03*
%TO.P,U3,15,PB3*%
%TO.N,/MOSI*%
X103150485Y-89622109D03*
%TO.P,U3,14,PB2*%
%TO.N,unconnected-(U3-PB2-Pad14)*%
X102350485Y-89622109D03*
%TO.P,U3,13,PB1*%
%TO.N,unconnected-(U3-PB1-Pad13)*%
X101550485Y-89622109D03*
%TO.P,U3,12,PB0*%
%TO.N,/D8*%
X100750485Y-89622109D03*
%TO.P,U3,11,PD7*%
%TO.N,/D7*%
X99950485Y-89622109D03*
%TO.P,U3,10,PD6*%
%TO.N,/D6*%
X99150485Y-89622109D03*
%TO.P,U3,9,PD5*%
%TO.N,/D5*%
X98350485Y-89622109D03*
D12*
%TO.P,U3,8,PB7*%
%TO.N,Net-(U3-PB7)*%
X96950485Y-88222109D03*
%TO.P,U3,7,PB6*%
%TO.N,Net-(U3-PB6)*%
X96950485Y-87422109D03*
%TO.P,U3,6,VCC*%
%TO.N,unconnected-(U3-VCC-Pad6)*%
X96950485Y-86622109D03*
%TO.P,U3,5,GND*%
%TO.N,GND*%
X96950485Y-85822109D03*
%TO.P,U3,4,VCC*%
%TO.N,Net-(BT1-+)*%
X96950485Y-85022109D03*
%TO.P,U3,3,GND*%
%TO.N,GND*%
X96950485Y-84222109D03*
%TO.P,U3,2,PD4*%
%TO.N,/D4*%
X96950485Y-83422109D03*
%TO.P,U3,1,PD3*%
%TO.N,/D3*%
X96950485Y-82622109D03*
%TD*%
D13*
%TO.P,U2,8,VCC*%
%TO.N,/Vcc*%
X114293485Y-95201109D03*
%TO.P,U2,7,WP*%
%TO.N,GND*%
X114293485Y-96471109D03*
%TO.P,U2,6,SCL*%
%TO.N,/SCL*%
X114293485Y-97741109D03*
%TO.P,U2,5,SDA*%
%TO.N,/SDA*%
X114293485Y-99011109D03*
%TO.P,U2,4,GND*%
%TO.N,GND*%
X109343485Y-99011109D03*
%TO.P,U2,3,A2*%
%TO.N,/Vcc*%
X109343485Y-97741109D03*
%TO.P,U2,2,A1*%
%TO.N,GND*%
X109343485Y-96471109D03*
%TO.P,U2,1,A0*%
%TO.N,/Vcc*%
X109343485Y-95201109D03*
%TD*%
%TO.P,U1,8,VCC*%
%TO.N,/Vcc*%
X103117485Y-94693109D03*
%TO.P,U1,7,WP*%
%TO.N,GND*%
X103117485Y-95963109D03*
%TO.P,U1,6,SCL*%
%TO.N,/SCL*%
X103117485Y-97233109D03*
%TO.P,U1,5,SDA*%
%TO.N,/SDA*%
X103117485Y-98503109D03*
%TO.P,U1,4,GND*%
%TO.N,GND*%
X98167485Y-98503109D03*
%TO.P,U1,3,A2*%
%TO.N,/Vcc*%
X98167485Y-97233109D03*
%TO.P,U1,2,A1*%
X98167485Y-95963109D03*
%TO.P,U1,1,A0*%
X98167485Y-94693109D03*
%TD*%
D14*
%TO.P,R3,2*%
%TO.N,/SCL*%
X113238985Y-86438109D03*
%TO.P,R3,1*%
%TO.N,/Vcc*%
X111413985Y-86438109D03*
%TD*%
D15*
%TO.P,J4,6,Pin_6*%
%TO.N,GND*%
X121744485Y-88485109D03*
%TO.P,J4,5,Pin_5*%
%TO.N,/RESET*%
X124284485Y-88485109D03*
%TO.P,J4,4,Pin_4*%
%TO.N,/MOSI*%
X121744485Y-85945109D03*
%TO.P,J4,3,Pin_3*%
%TO.N,/SCL*%
X124284485Y-85945109D03*
%TO.P,J4,2,Pin_2*%
%TO.N,/Vcc*%
X121744485Y-83405109D03*
D16*
%TO.P,J4,1,Pin_1*%
%TO.N,/MISO*%
X124284485Y-83405109D03*
%TD*%
D15*
%TO.P,J1,4,Pin_4*%
%TO.N,/SCL*%
X124035485Y-99910109D03*
%TO.P,J1,3,Pin_3*%
%TO.N,/SDA*%
X124035485Y-97370109D03*
%TO.P,J1,2,Pin_2*%
%TO.N,/Vcc*%
X124035485Y-94830109D03*
D16*
%TO.P,J1,1,Pin_1*%
%TO.N,GND*%
X124035485Y-92290109D03*
%TD*%
D17*
%TO.P,D2,1,K*%
%TO.N,Net-(D2-K)*%
X111388985Y-79326109D03*
%TO.P,D2,2,A*%
%TO.N,Net-(BT1-+)*%
X113263985Y-79326109D03*
%TD*%
D14*
%TO.P,R4,1*%
%TO.N,/Vcc*%
X115477985Y-90502109D03*
%TO.P,R4,2*%
%TO.N,/SDA*%
X117302985Y-90502109D03*
%TD*%
D18*
%TO.P,C5,1*%
%TO.N,Net-(BT1-+)*%
X111376485Y-90502109D03*
%TO.P,C5,2*%
%TO.N,GND*%
X113276485Y-90502109D03*
%TD*%
D14*
%TO.P,R6,1*%
%TO.N,/Vcc*%
X115477985Y-86438109D03*
%TO.P,R6,2*%
%TO.N,/RESET*%
X117302985Y-86438109D03*
%TD*%
D19*
%TO.P,Y1,1,1*%
%TO.N,Net-(U4-X2)*%
X81846485Y-88530109D03*
%TO.P,Y1,2,2*%
%TO.N,Net-(U4-X1)*%
X81846485Y-83330109D03*
%TD*%
D17*
%TO.P,D1,1,K*%
%TO.N,Net-(D1-K)*%
X115452985Y-79326109D03*
%TO.P,D1,2,A*%
%TO.N,/SCK*%
X117327985Y-79326109D03*
%TD*%
D20*
%TO.P,C1,1*%
%TO.N,/Vcc*%
X94480485Y-78818109D03*
%TO.P,C1,2*%
%TO.N,GND*%
X92580485Y-78818109D03*
%TD*%
%TO.P,C2,1*%
%TO.N,GND*%
X103116485Y-78310109D03*
%TO.P,C2,2*%
%TO.N,Net-(U3-PB6)*%
X101216485Y-78310109D03*
%TD*%
D21*
%TO.P,R7,1*%
%TO.N,Net-(D2-K)*%
X113238985Y-82882109D03*
%TO.P,R7,2*%
%TO.N,GND*%
X111413985Y-82882109D03*
%TD*%
D20*
%TO.P,C4,1*%
%TO.N,GND*%
X107180485Y-78310109D03*
%TO.P,C4,2*%
%TO.N,Net-(U3-AREF)*%
X105280485Y-78310109D03*
%TD*%
D16*
%TO.P,J2,1,Pin_1*%
%TO.N,GND*%
X110050485Y-104701109D03*
D15*
%TO.P,J2,2,Pin_2*%
%TO.N,/Vcc*%
X112590485Y-104701109D03*
%TO.P,J2,3,Pin_3*%
%TO.N,/RX*%
X115130485Y-104701109D03*
%TO.P,J2,4,Pin_4*%
%TO.N,/TX*%
X117670485Y-104701109D03*
%TD*%
D14*
%TO.P,R2,1*%
%TO.N,/Vcc*%
X88553985Y-78310109D03*
%TO.P,R2,2*%
%TO.N,Net-(U4-SQW{slash}~INT)*%
X90378985Y-78310109D03*
%TD*%
D16*
%TO.P,BT1,1,+*%
%TO.N,Net-(BT1-+)*%
X81338485Y-95074109D03*
D15*
%TO.P,BT1,2,-*%
%TO.N,GND*%
X81338485Y-97614109D03*
%TD*%
D21*
%TO.P,R5,1*%
%TO.N,GND*%
X117302985Y-82882109D03*
%TO.P,R5,2*%
%TO.N,Net-(D1-K)*%
X115477985Y-82882109D03*
%TD*%
D16*
%TO.P,J3,1,Pin_1*%
%TO.N,/D2*%
X83370485Y-104726109D03*
D15*
%TO.P,J3,2,Pin_2*%
%TO.N,/D3*%
X85910485Y-104726109D03*
%TO.P,J3,3,Pin_3*%
%TO.N,/D4*%
X88450485Y-104726109D03*
%TO.P,J3,4,Pin_4*%
%TO.N,/D5*%
X90990485Y-104726109D03*
%TO.P,J3,5,Pin_5*%
%TO.N,/D6*%
X93530485Y-104726109D03*
%TO.P,J3,6,Pin_6*%
%TO.N,/D7*%
X96070485Y-104726109D03*
%TO.P,J3,7,Pin_7*%
%TO.N,/D8*%
X98610485Y-104726109D03*
%TO.P,J3,8,Pin_8*%
%TO.N,GND*%
X101150485Y-104726109D03*
%TO.P,J3,9,Pin_9*%
%TO.N,/Vcc*%
X103690485Y-104726109D03*
%TD*%
D19*
%TO.P,Y2,1,1*%
%TO.N,Net-(U3-PB7)*%
X90990485Y-99198109D03*
%TO.P,Y2,2,2*%
%TO.N,Net-(U3-PB6)*%
X90990485Y-93998109D03*
%TD*%
D22*
%TO.P,R1,1*%
%TO.N,/Vcc*%
X83878485Y-79222609D03*
%TO.P,R1,2*%
%TO.N,Net-(U4-~{INTA})*%
X83878485Y-77397609D03*
%TD*%
D20*
%TO.P,C3,1*%
%TO.N,GND*%
X99052485Y-78310109D03*
%TO.P,C3,2*%
%TO.N,Net-(U3-PB7)*%
X97152485Y-78310109D03*
%TD*%
D23*
%TO.N,/SCL*%
X90144600Y-87274400D03*
X100965000Y-84353400D03*
X101523800Y-83540600D03*
X114681000Y-85115400D03*
%TO.N,/RESET*%
X118987499Y-84886516D03*
%TO.N,/SCK*%
X112056478Y-84659349D03*
%TO.N,/RESET*%
X100775485Y-82550000D03*
%TO.N,/D2*%
X100109156Y-83305838D03*
%TO.N,/Vcc*%
X113106200Y-85133109D03*
X100101400Y-93192600D03*
X92024200Y-82651600D03*
X111734600Y-101955600D03*
%TO.N,Net-(U3-PB7)*%
X98933000Y-87655400D03*
X95885000Y-78867000D03*
%TO.N,GND*%
X84201000Y-99415600D03*
X104673400Y-101142800D03*
X119430800Y-88366600D03*
X114198400Y-92151200D03*
%TO.N,/SDA*%
X102810393Y-82765600D03*
%TO.N,Net-(U3-AREF)*%
X104267000Y-78841600D03*
X103987600Y-85852000D03*
%TO.N,Net-(BT1-+)*%
X110972600Y-88239600D03*
X113309400Y-81229200D03*
X103047800Y-87096600D03*
X98526600Y-83616800D03*
X107772200Y-87731600D03*
%TO.N,GND*%
X106781600Y-85013800D03*
X110210600Y-84480400D03*
X89357200Y-84683600D03*
X92583000Y-80848200D03*
%TO.N,Net-(U3-PB6)*%
X96883840Y-81034240D03*
X94927485Y-85572600D03*
%TO.N,/SDA*%
X104851200Y-98501200D03*
X92075000Y-89814400D03*
%TO.N,/MOSI*%
X103378000Y-91897200D03*
X118421323Y-86248060D03*
%TO.N,/MISO*%
X104546400Y-91363800D03*
X120675400Y-81026000D03*
%TO.N,/SCK*%
X106857800Y-88595200D03*
%TD*%
D24*
%TO.N,/SCL*%
X91941485Y-86565109D02*
X90853891Y-86565109D01*
X90853891Y-86565109D02*
X90144600Y-87274400D01*
%TO.N,GND*%
X101392307Y-85022109D02*
X105350485Y-85022109D01*
X100643984Y-85128400D02*
X101286016Y-85128400D01*
X99737491Y-85022109D02*
X100537693Y-85022109D01*
X100537693Y-85022109D02*
X100643984Y-85128400D01*
X96950485Y-85822109D02*
X98937491Y-85822109D01*
X101286016Y-85128400D02*
X101392307Y-85022109D01*
X98937491Y-85822109D02*
X99737491Y-85022109D01*
%TO.N,/SDA*%
X102350485Y-81222109D02*
X102350485Y-82305692D01*
X102350485Y-82305692D02*
X102810393Y-82765600D01*
%TO.N,/SCL*%
X101550485Y-83513915D02*
X101523800Y-83540600D01*
X101550485Y-81222109D02*
X101550485Y-83513915D01*
%TO.N,/RESET*%
X100750485Y-82525000D02*
X100775485Y-82550000D01*
X100750485Y-81222109D02*
X100750485Y-82525000D01*
X118686851Y-84886516D02*
X118987499Y-84886516D01*
X117302985Y-86270382D02*
X118686851Y-84886516D01*
X117302985Y-86438109D02*
X117302985Y-86270382D01*
%TO.N,/MOSI*%
X118724274Y-85945109D02*
X118421323Y-86248060D01*
X121744485Y-85945109D02*
X118724274Y-85945109D01*
%TO.N,/SCK*%
X112357718Y-84358109D02*
X112056478Y-84659349D01*
X118897400Y-80895524D02*
X118897400Y-83880599D01*
X117327985Y-79326109D02*
X118897400Y-80895524D01*
X118322999Y-84455000D02*
X115116616Y-84455000D01*
X118897400Y-83880599D02*
X118322999Y-84455000D01*
X115116616Y-84455000D02*
X115019725Y-84358109D01*
X115019725Y-84358109D02*
X112357718Y-84358109D01*
%TO.N,/Vcc*%
X111413985Y-86375815D02*
X112656691Y-85133109D01*
X111413985Y-86438109D02*
X111413985Y-86375815D01*
%TO.N,GND*%
X116790485Y-82882109D02*
X117302985Y-82882109D01*
X116316485Y-83356109D02*
X116790485Y-82882109D01*
X116316485Y-83577623D02*
X116316485Y-83356109D01*
X115985999Y-83908109D02*
X116316485Y-83577623D01*
X111739985Y-83908109D02*
X115985999Y-83908109D01*
X111413985Y-83582109D02*
X111739985Y-83908109D01*
X111413985Y-82882109D02*
X111413985Y-83582109D01*
%TO.N,/Vcc*%
X112656691Y-85133109D02*
X113106200Y-85133109D01*
%TO.N,/SCL*%
X113358291Y-86438109D02*
X114681000Y-85115400D01*
X113238985Y-86438109D02*
X113358291Y-86438109D01*
X124762292Y-86422916D02*
X124603390Y-86264014D01*
X125460485Y-87997993D02*
X124762292Y-87299800D01*
X124762292Y-87299800D02*
X124762292Y-86422916D01*
X125460485Y-98485109D02*
X125460485Y-87997993D01*
X125460485Y-98485109D02*
X124035485Y-99910109D01*
X124035485Y-99910109D02*
X124035485Y-100206624D01*
X124035485Y-100206624D02*
X118365000Y-105877109D01*
X118365000Y-105877109D02*
X114455369Y-105877109D01*
X114455369Y-105877109D02*
X113868200Y-105289940D01*
X113868200Y-105289940D02*
X113868200Y-101088716D01*
X113868200Y-101088716D02*
X115594485Y-99362431D01*
X115594485Y-99362431D02*
X115594485Y-98659787D01*
X115594485Y-98659787D02*
X114675807Y-97741109D01*
X103117485Y-97233109D02*
X105913163Y-97233109D01*
X114675807Y-97741109D02*
X114293485Y-97741109D01*
X105913163Y-97233109D02*
X108317163Y-99637109D01*
X112265807Y-97741109D02*
X114293485Y-97741109D01*
X108317163Y-99637109D02*
X110369807Y-99637109D01*
X110369807Y-99637109D02*
X112265807Y-97741109D01*
%TO.N,/D3*%
X85910485Y-100370199D02*
X85910485Y-104726109D01*
X90206575Y-96074109D02*
X85910485Y-100370199D01*
X92185999Y-96074109D02*
X90206575Y-96074109D01*
X92516485Y-95743623D02*
X92185999Y-96074109D01*
X92516485Y-91591623D02*
X92516485Y-95743623D01*
X93702485Y-84870109D02*
X93702485Y-90405623D01*
X95950485Y-82622109D02*
X93702485Y-84870109D01*
X96950485Y-82622109D02*
X95950485Y-82622109D01*
X93702485Y-90405623D02*
X92516485Y-91591623D01*
%TO.N,/D4*%
X95950485Y-83422109D02*
X96950485Y-83422109D01*
X94153485Y-85219109D02*
X95950485Y-83422109D01*
X93522800Y-92202000D02*
X94153485Y-91571315D01*
X93522800Y-95373704D02*
X93522800Y-92202000D01*
X92372395Y-96524109D02*
X93522800Y-95373704D01*
X89464485Y-100943623D02*
X89464485Y-97452595D01*
X90392971Y-96524109D02*
X92372395Y-96524109D01*
X94153485Y-91571315D02*
X94153485Y-85219109D01*
X90070062Y-101549200D02*
X89464485Y-100943623D01*
X89464485Y-97452595D02*
X90392971Y-96524109D01*
X88450485Y-104726109D02*
X90070062Y-103106532D01*
X90070062Y-103106532D02*
X90070062Y-101549200D01*
%TO.N,Net-(U4-X1)*%
X85744976Y-82778600D02*
X86991485Y-84025109D01*
X82397994Y-82778600D02*
X85744976Y-82778600D01*
X81846485Y-83330109D02*
X82397994Y-82778600D01*
%TO.N,Net-(U4-~{INTA})*%
X82067400Y-79208694D02*
X83878485Y-77397609D01*
X83108800Y-80645000D02*
X82067400Y-79603600D01*
X82067400Y-79603600D02*
X82067400Y-79208694D01*
X85311252Y-80645000D02*
X83108800Y-80645000D01*
X88302485Y-86239109D02*
X88302485Y-83636233D01*
X87976485Y-86565109D02*
X88302485Y-86239109D01*
X88302485Y-83636233D02*
X85311252Y-80645000D01*
X86991485Y-86565109D02*
X87976485Y-86565109D01*
%TO.N,/D2*%
X100064518Y-83261200D02*
X100109156Y-83305838D01*
X99389576Y-83261200D02*
X100064518Y-83261200D01*
X98350485Y-82222109D02*
X99389576Y-83261200D01*
X98350485Y-81222109D02*
X98350485Y-82222109D01*
%TO.N,/RESET*%
X118173985Y-87309109D02*
X117302985Y-86438109D01*
X123108485Y-87309109D02*
X118173985Y-87309109D01*
X124284485Y-88485109D02*
X123108485Y-87309109D01*
%TO.N,Net-(BT1-+)*%
X98526600Y-84445994D02*
X98526600Y-83616800D01*
X97950485Y-85022109D02*
X98526600Y-84445994D01*
X96950485Y-85022109D02*
X97950485Y-85022109D01*
%TO.N,/SCK*%
X105350485Y-88222109D02*
X106484709Y-88222109D01*
X106484709Y-88222109D02*
X106857800Y-88595200D01*
%TO.N,/Vcc*%
X99667994Y-93192600D02*
X100101400Y-93192600D01*
X98167485Y-94693109D02*
X99667994Y-93192600D01*
X91941485Y-84025109D02*
X91941485Y-82734315D01*
X91941485Y-82734315D02*
X92024200Y-82651600D01*
X92883720Y-81574200D02*
X94480485Y-79977435D01*
X91754485Y-81046405D02*
X92282280Y-81574200D01*
X91754485Y-78097595D02*
X91754485Y-81046405D01*
X90940999Y-77284109D02*
X91754485Y-78097595D01*
X89579985Y-77284109D02*
X90940999Y-77284109D01*
X92282280Y-81574200D02*
X92883720Y-81574200D01*
X88553985Y-78310109D02*
X89579985Y-77284109D01*
X94480485Y-79977435D02*
X94480485Y-78818109D01*
X111734600Y-103845224D02*
X111734600Y-101955600D01*
X112590485Y-104701109D02*
X111734600Y-103845224D01*
%TO.N,Net-(U3-PB7)*%
X98366291Y-88222109D02*
X96950485Y-88222109D01*
X98933000Y-87655400D02*
X98366291Y-88222109D01*
X96595594Y-78867000D02*
X95885000Y-78867000D01*
X97152485Y-78310109D02*
X96595594Y-78867000D01*
%TO.N,GND*%
X83139976Y-99415600D02*
X84201000Y-99415600D01*
X81338485Y-97614109D02*
X83139976Y-99415600D01*
X103717794Y-102098406D02*
X104673400Y-101142800D01*
X103717794Y-102158800D02*
X103717794Y-102098406D01*
X108368486Y-96471109D02*
X109343485Y-96471109D01*
X108042485Y-96797110D02*
X108368486Y-96471109D01*
X108042485Y-98092431D02*
X108042485Y-96797110D01*
X108961163Y-99011109D02*
X108042485Y-98092431D01*
X109343485Y-99011109D02*
X108961163Y-99011109D01*
X119549309Y-88485109D02*
X119430800Y-88366600D01*
X121744485Y-88485109D02*
X119549309Y-88485109D01*
X113276485Y-91229285D02*
X114198400Y-92151200D01*
X113276485Y-90502109D02*
X113276485Y-91229285D01*
%TO.N,Net-(U3-PB7)*%
X95066485Y-95122109D02*
X90990485Y-99198109D01*
X95066485Y-90106109D02*
X95066485Y-95122109D01*
%TO.N,/D5*%
X95516485Y-98165531D02*
X95516485Y-92456109D01*
X94640400Y-99041616D02*
X95516485Y-98165531D01*
X94640400Y-101879400D02*
X94640400Y-99041616D01*
X93726000Y-102793800D02*
X94640400Y-101879400D01*
X92922794Y-102793800D02*
X93726000Y-102793800D01*
X90990485Y-104726109D02*
X92922794Y-102793800D01*
%TO.N,/D6*%
X99150485Y-90622109D02*
X99150485Y-89622109D01*
X98764394Y-91008200D02*
X99150485Y-90622109D01*
X98351592Y-91008200D02*
X98764394Y-91008200D01*
X95966485Y-93393307D02*
X98351592Y-91008200D01*
X95966485Y-102290109D02*
X95966485Y-93393307D01*
X93530485Y-104726109D02*
X95966485Y-102290109D01*
%TO.N,/D7*%
X99950485Y-90622109D02*
X99950485Y-89622109D01*
X99081794Y-91490800D02*
X99950485Y-90622109D01*
X98505388Y-91490800D02*
X99081794Y-91490800D01*
%TO.N,Net-(U3-PB7)*%
X96950485Y-88222109D02*
X95066485Y-90106109D01*
%TO.N,/D7*%
X96416485Y-103178028D02*
X96416485Y-93579703D01*
%TO.N,/D5*%
X95516485Y-92456109D02*
X98350485Y-89622109D01*
%TO.N,/D7*%
X96070485Y-103524028D02*
X96416485Y-103178028D01*
%TO.N,/D8*%
X100750485Y-90622109D02*
X99430794Y-91941800D01*
%TO.N,/D7*%
X96070485Y-104726109D02*
X96070485Y-103524028D01*
%TO.N,/D8*%
X96866485Y-102982109D02*
X98610485Y-104726109D01*
X100750485Y-89622109D02*
X100750485Y-90622109D01*
%TO.N,/D7*%
X96416485Y-93579703D02*
X98505388Y-91490800D01*
%TO.N,/D8*%
X96866485Y-93825800D02*
X96866485Y-102982109D01*
X99430794Y-91941800D02*
X98750485Y-91941800D01*
X98750485Y-91941800D02*
X96866485Y-93825800D01*
%TO.N,/RX*%
X99950485Y-80510800D02*
X99950485Y-81222109D01*
X100315176Y-80146109D02*
X99950485Y-80510800D01*
X106384309Y-80146109D02*
X100315176Y-80146109D01*
X108661200Y-82423000D02*
X106384309Y-80146109D01*
X117627400Y-94411800D02*
X116756600Y-93541000D01*
X116756600Y-93541000D02*
X108806400Y-93541000D01*
X117627400Y-102204194D02*
X117627400Y-94411800D01*
X108661200Y-93395800D02*
X108661200Y-82423000D01*
X115130485Y-104701109D02*
X117627400Y-102204194D01*
X108806400Y-93541000D02*
X108661200Y-93395800D01*
%TO.N,/TX*%
X99150485Y-80395019D02*
X99150485Y-81222109D01*
X99850395Y-79695109D02*
X99150485Y-80395019D01*
X107050909Y-79695109D02*
X99850395Y-79695109D01*
X109169200Y-81813400D02*
X107050909Y-79695109D01*
X109169200Y-93014800D02*
X109169200Y-81813400D01*
X117094000Y-93014800D02*
X109169200Y-93014800D01*
X118520485Y-94441285D02*
X117094000Y-93014800D01*
X118520485Y-103851109D02*
X118520485Y-94441285D01*
X117670485Y-104701109D02*
X118520485Y-103851109D01*
%TO.N,Net-(U3-AREF)*%
X104748994Y-78841600D02*
X105280485Y-78310109D01*
X104267000Y-78841600D02*
X104748994Y-78841600D01*
X103987600Y-85826600D02*
X103987600Y-85852000D01*
X103992091Y-85822109D02*
X103987600Y-85826600D01*
X105350485Y-85822109D02*
X103992091Y-85822109D01*
%TO.N,Net-(BT1-+)*%
X113263985Y-81183785D02*
X113309400Y-81229200D01*
X107462709Y-87422109D02*
X107772200Y-87731600D01*
X105350485Y-87422109D02*
X103373309Y-87422109D01*
X110972600Y-88239600D02*
X110972600Y-90098224D01*
X113263985Y-79326109D02*
X113263985Y-81183785D01*
X103373309Y-87422109D02*
X103047800Y-87096600D01*
X105350485Y-87422109D02*
X107462709Y-87422109D01*
X111431709Y-90502109D02*
X111531400Y-90601800D01*
X111376485Y-90502109D02*
X111431709Y-90502109D01*
X110972600Y-90098224D02*
X111376485Y-90502109D01*
%TO.N,GND*%
X98167485Y-98503109D02*
X100195163Y-98503109D01*
X95681800Y-84613794D02*
X95681800Y-85547200D01*
X87976485Y-87835109D02*
X89357200Y-86454394D01*
X102735163Y-95963109D02*
X103117485Y-95963109D01*
X86991485Y-94618515D02*
X83413600Y-98196400D01*
X96073485Y-84222109D02*
X95681800Y-84613794D01*
X111413985Y-82543609D02*
X111413985Y-82882109D01*
X106129485Y-77259109D02*
X107180485Y-78310109D01*
X109343485Y-96471109D02*
X114293485Y-96471109D01*
X109343485Y-96471109D02*
X109141891Y-96471109D01*
X99052485Y-78310109D02*
X98001485Y-77259109D01*
X92580485Y-80845685D02*
X92583000Y-80848200D01*
X102065485Y-77259109D02*
X100103485Y-77259109D01*
X107508176Y-102158800D02*
X103717794Y-102158800D01*
X103116485Y-78310109D02*
X104167485Y-77259109D01*
X89357200Y-86454394D02*
X89357200Y-84683600D01*
X104167485Y-77259109D02*
X106129485Y-77259109D01*
X92580485Y-78818109D02*
X92580485Y-80845685D01*
X100103485Y-77259109D02*
X99052485Y-78310109D01*
X107180485Y-78310109D02*
X111413985Y-82543609D01*
X98001485Y-77259109D02*
X94139485Y-77259109D01*
X96950485Y-84222109D02*
X96073485Y-84222109D01*
X124035485Y-90776109D02*
X124035485Y-92290109D01*
X109141891Y-96471109D02*
X108633891Y-95963109D01*
X83413600Y-98196400D02*
X81920776Y-98196400D01*
X121744485Y-88485109D02*
X124035485Y-90776109D01*
X106773291Y-85022109D02*
X106781600Y-85013800D01*
X101823176Y-102158800D02*
X98167485Y-98503109D01*
X110050485Y-104701109D02*
X107508176Y-102158800D01*
X100195163Y-98503109D02*
X102735163Y-95963109D01*
X108633891Y-95963109D02*
X103117485Y-95963109D01*
X95956709Y-85822109D02*
X96950485Y-85822109D01*
X103717794Y-102158800D02*
X101150485Y-104726109D01*
X86991485Y-87835109D02*
X87976485Y-87835109D01*
X95681800Y-85547200D02*
X95956709Y-85822109D01*
X103717794Y-102158800D02*
X101823176Y-102158800D01*
X103116485Y-78310109D02*
X102065485Y-77259109D01*
X81920776Y-98196400D02*
X81338485Y-97614109D01*
X94139485Y-77259109D02*
X92580485Y-78818109D01*
X86991485Y-87835109D02*
X86991485Y-94618515D01*
X105350485Y-85022109D02*
X106773291Y-85022109D01*
%TO.N,/Vcc*%
X109969485Y-97115109D02*
X109343485Y-97741109D01*
X84790985Y-78310109D02*
X83878485Y-79222609D01*
X98167485Y-94693109D02*
X103117485Y-94693109D01*
X115795316Y-95727941D02*
X115795316Y-96621600D01*
X115268484Y-95201109D02*
X115795316Y-95727941D01*
X115477985Y-86438109D02*
X115477985Y-90502109D01*
X115301807Y-97115109D02*
X109969485Y-97115109D01*
X94480485Y-81486109D02*
X94480485Y-78818109D01*
X124035485Y-94830109D02*
X123869985Y-94830109D01*
X115477985Y-90502109D02*
X111413985Y-86438109D01*
X91941485Y-84025109D02*
X94480485Y-81486109D01*
X108835485Y-94693109D02*
X109343485Y-95201109D01*
X98167485Y-95963109D02*
X98167485Y-97233109D01*
X88553985Y-78310109D02*
X84790985Y-78310109D01*
X103117485Y-94693109D02*
X108835485Y-94693109D01*
X115795316Y-96621600D02*
X115301807Y-97115109D01*
X98167485Y-94693109D02*
X98167485Y-95963109D01*
X114293485Y-95201109D02*
X115268484Y-95201109D01*
X123869985Y-94830109D02*
X115477985Y-86438109D01*
X109343485Y-95201109D02*
X114293485Y-95201109D01*
%TO.N,Net-(U3-PB6)*%
X100598999Y-78310109D02*
X101216485Y-78310109D01*
X96883840Y-81034240D02*
X98556971Y-79361109D01*
X90990485Y-92248110D02*
X93252485Y-89986110D01*
X95872600Y-87422109D02*
X95559491Y-87109000D01*
X99547999Y-79361109D02*
X100598999Y-78310109D01*
X93252485Y-84665595D02*
X96883840Y-81034240D01*
X98556971Y-79361109D02*
X99547999Y-79361109D01*
X95559491Y-87109000D02*
X95559491Y-86204606D01*
X93252485Y-89986110D02*
X93252485Y-84665595D01*
X90990485Y-93998109D02*
X90990485Y-92248110D01*
X96950485Y-87422109D02*
X95872600Y-87422109D01*
X95559491Y-86204606D02*
X94927485Y-85572600D01*
%TO.N,Net-(D1-K)*%
X115452985Y-82857109D02*
X115477985Y-82882109D01*
X115452985Y-79326109D02*
X115452985Y-82857109D01*
%TO.N,Net-(D2-K)*%
X111388985Y-81032109D02*
X113238985Y-82882109D01*
X111388985Y-79326109D02*
X111388985Y-81032109D01*
%TO.N,/SDA*%
X114293485Y-99904715D02*
X114293485Y-99011109D01*
X117302985Y-90637609D02*
X124035485Y-97370109D01*
X114020600Y-100177600D02*
X114293485Y-99904715D01*
X117302985Y-90502109D02*
X117302985Y-90637609D01*
X92075000Y-89814400D02*
X92075000Y-87968624D01*
X92075000Y-87968624D02*
X91941485Y-87835109D01*
X103117485Y-98503109D02*
X104849291Y-98503109D01*
X104849291Y-98503109D02*
X104851200Y-98501200D01*
X104791976Y-100177600D02*
X114020600Y-100177600D01*
X103117485Y-98503109D02*
X104791976Y-100177600D01*
%TO.N,/MOSI*%
X103150485Y-91669685D02*
X103150485Y-89622109D01*
X103378000Y-91897200D02*
X103150485Y-91669685D01*
%TO.N,/MISO*%
X121905376Y-81026000D02*
X124284485Y-83405109D01*
X124284485Y-83405109D02*
X124172109Y-83405109D01*
X124172109Y-83405109D02*
X124155200Y-83388200D01*
X120675400Y-81026000D02*
X121905376Y-81026000D01*
X103950485Y-89622109D02*
X103950485Y-90767885D01*
X103950485Y-90767885D02*
X104546400Y-91363800D01*
%TO.N,Net-(U4-SQW{slash}~INT)*%
X91941485Y-85295109D02*
X90956485Y-85295109D01*
X90956485Y-85295109D02*
X90378985Y-84717609D01*
X90378985Y-84717609D02*
X90378985Y-78310109D01*
%TO.N,Net-(U4-X2)*%
X85081485Y-85295109D02*
X86991485Y-85295109D01*
X81846485Y-88530109D02*
X85081485Y-85295109D01*
%TO.N,GND*%
X110210600Y-84480400D02*
X110210600Y-83413600D01*
X110210600Y-83413600D02*
X110742091Y-82882109D01*
X110742091Y-82882109D02*
X111413985Y-82882109D01*
%TD*%
M02*
