%TF.GenerationSoftware,KiCad,Pcbnew,9.0.6*%
%TF.CreationDate,2026-05-04T00:19:30+02:00*%
%TF.ProjectId,MCU Datalogger,4d435520-4461-4746-916c-6f676765722e,1*%
%TF.SameCoordinates,Original*%
%TF.FileFunction,Copper,L3,Inr*%
%TF.FilePolarity,Positive*%
%FSLAX46Y46*%
G04 Gerber Fmt 4.6, Leading zero omitted, Abs format (unit mm)*
G04 Created by KiCad (PCBNEW 9.0.6) date 2026-05-04 00:19:30*
%MOMM*%
%LPD*%
G01*
G04 APERTURE LIST*
%TA.AperFunction,ComponentPad*%
%ADD10C,1.700000*%
%TD*%
%TA.AperFunction,ComponentPad*%
%ADD11R,1.700000X1.700000*%
%TD*%
%TA.AperFunction,ViaPad*%
%ADD12C,0.800000*%
%TD*%
%TA.AperFunction,Conductor*%
%ADD13C,0.250000*%
%TD*%
G04 APERTURE END LIST*
D10*
%TO.N,GND*%
%TO.C,J4*%
X121744485Y-88485109D03*
%TO.N,/RESET*%
X124284485Y-88485109D03*
%TO.N,/MOSI*%
X121744485Y-85945109D03*
%TO.N,/SCL*%
X124284485Y-85945109D03*
%TO.N,/Vcc*%
X121744485Y-83405109D03*
D11*
%TO.N,/MISO*%
X124284485Y-83405109D03*
%TD*%
D10*
%TO.N,/SCL*%
%TO.C,J1*%
X124035485Y-99910109D03*
%TO.N,/SDA*%
X124035485Y-97370109D03*
%TO.N,/Vcc*%
X124035485Y-94830109D03*
D11*
%TO.N,GND*%
X124035485Y-92290109D03*
%TD*%
%TO.N,GND*%
%TO.C,J2*%
X110050485Y-104701109D03*
D10*
%TO.N,/Vcc*%
X112590485Y-104701109D03*
%TO.N,/RX*%
X115130485Y-104701109D03*
%TO.N,/TX*%
X117670485Y-104701109D03*
%TD*%
D11*
%TO.N,Net-(BT1-+)*%
%TO.C,BT1*%
X81338485Y-95074109D03*
D10*
%TO.N,GND*%
X81338485Y-97614109D03*
%TD*%
D11*
%TO.N,/D2*%
%TO.C,J3*%
X83370485Y-104726109D03*
D10*
%TO.N,/D3*%
X85910485Y-104726109D03*
%TO.N,/D4*%
X88450485Y-104726109D03*
%TO.N,/D5*%
X90990485Y-104726109D03*
%TO.N,/D6*%
X93530485Y-104726109D03*
%TO.N,/D7*%
X96070485Y-104726109D03*
%TO.N,/D8*%
X98610485Y-104726109D03*
%TO.N,GND*%
X101150485Y-104726109D03*
%TO.N,/Vcc*%
X103690485Y-104726109D03*
%TD*%
D12*
%TO.N,/SCL*%
X90144600Y-87274400D03*
X100965000Y-84353400D03*
X101523800Y-83540600D03*
X114681000Y-85115400D03*
%TO.N,/RESET*%
X118987499Y-84886516D03*
%TO.N,/SCK*%
X112056478Y-84659349D03*
%TO.N,/RESET*%
X100775485Y-82550000D03*
%TO.N,/D2*%
X100109156Y-83305838D03*
%TO.N,/Vcc*%
X113106200Y-85133109D03*
X100101400Y-93192600D03*
X92024200Y-82651600D03*
X111734600Y-101955600D03*
%TO.N,Net-(U3-PB7)*%
X98933000Y-87655400D03*
X95885000Y-78867000D03*
%TO.N,GND*%
X84201000Y-99415600D03*
X104673400Y-101142800D03*
X119430800Y-88366600D03*
X114198400Y-92151200D03*
%TO.N,/SDA*%
X102810393Y-82765600D03*
%TO.N,Net-(U3-AREF)*%
X104267000Y-78841600D03*
X103987600Y-85852000D03*
%TO.N,Net-(BT1-+)*%
X110972600Y-88239600D03*
X113309400Y-81229200D03*
X103047800Y-87096600D03*
X98526600Y-83616800D03*
X107772200Y-87731600D03*
%TO.N,GND*%
X106781600Y-85013800D03*
X110210600Y-84480400D03*
X89357200Y-84683600D03*
X92583000Y-80848200D03*
%TO.N,Net-(U3-PB6)*%
X96883840Y-81034240D03*
X94927485Y-85572600D03*
%TO.N,/SDA*%
X104851200Y-98501200D03*
X92075000Y-89814400D03*
%TO.N,/MOSI*%
X103378000Y-91897200D03*
X118421323Y-86248060D03*
%TO.N,/MISO*%
X104546400Y-91363800D03*
X120675400Y-81026000D03*
%TO.N,/SCK*%
X106857800Y-88595200D03*
%TD*%
D13*
%TO.N,/SCL*%
X100965000Y-84099400D02*
X100965000Y-84353400D01*
X101523800Y-83540600D02*
X100965000Y-84099400D01*
X113106200Y-83540600D02*
X114681000Y-85115400D01*
X101523800Y-83540600D02*
X113106200Y-83540600D01*
%TO.N,/RESET*%
X101323685Y-82001800D02*
X100775485Y-82550000D01*
X118583010Y-84886516D02*
X115698294Y-82001800D01*
X118987499Y-84886516D02*
X118583010Y-84886516D01*
X115698294Y-82001800D02*
X101323685Y-82001800D01*
%TO.N,/SCL*%
X122231601Y-87121109D02*
X123407601Y-85945109D01*
X121257369Y-87121109D02*
X122231601Y-87121109D01*
X121124562Y-87206238D02*
X121233530Y-87097270D01*
X114681000Y-85115400D02*
X116771838Y-87206238D01*
X123407601Y-85945109D02*
X124284485Y-85945109D01*
X121233530Y-87097270D02*
X121257369Y-87121109D01*
X116771838Y-87206238D02*
X121124562Y-87206238D01*
%TO.N,/D2*%
X83370485Y-104726109D02*
X83370485Y-102049515D01*
X86319920Y-101295200D02*
X84124800Y-101295200D01*
X100109156Y-87505964D02*
X86319920Y-101295200D01*
X100109156Y-83305838D02*
X100109156Y-87505964D01*
X83370485Y-102049515D02*
X84124800Y-101295200D01*
%TO.N,Net-(U3-PB7)*%
X95885000Y-84607400D02*
X98933000Y-87655400D01*
X95885000Y-78867000D02*
X95885000Y-84607400D01*
%TD*%
%TA.AperFunction,Conductor*%
%TO.N,/Vcc*%
G36*
X125866024Y-76798294D02*
G01*
X125911779Y-76851098D01*
X125922985Y-76902609D01*
X125922985Y-106133609D01*
X125903300Y-106200648D01*
X125850496Y-106246403D01*
X125798985Y-106257609D01*
X118033284Y-106257609D01*
X117966245Y-106237924D01*
X117920490Y-106185120D01*
X117910546Y-106115962D01*
X117939571Y-106052406D01*
X117994965Y-106015678D01*
X118188897Y-105952666D01*
X118378301Y-105856160D01*
X118430213Y-105818444D01*
X118550271Y-105731218D01*
X118550273Y-105731215D01*
X118550277Y-105731213D01*
X118700589Y-105580901D01*
X118700591Y-105580897D01*
X118700594Y-105580895D01*
X118825533Y-105408929D01*
X118825535Y-105408926D01*
X118825536Y-105408925D01*
X118901616Y-105259609D01*
X119955927Y-105259609D01*
X121008985Y-105259609D01*
X121008985Y-104526609D01*
X120016703Y-104526609D01*
X120017444Y-104536023D01*
X120017731Y-104540888D01*
X120018889Y-104570340D01*
X120018985Y-104575212D01*
X120018985Y-104827006D01*
X120018889Y-104831878D01*
X120017731Y-104861330D01*
X120017444Y-104866195D01*
X120014366Y-104905274D01*
X120013889Y-104910112D01*
X120010429Y-104939345D01*
X120009762Y-104944168D01*
X119970377Y-105192837D01*
X119969521Y-105197632D01*
X119963772Y-105226532D01*
X119962727Y-105231292D01*
X119955927Y-105259609D01*
X118901616Y-105259609D01*
X118922042Y-105219521D01*
X118987731Y-105017352D01*
X119020985Y-104807396D01*
X119020985Y-104594822D01*
X118987731Y-104384866D01*
X118922042Y-104182697D01*
X118887934Y-104115757D01*
X122582985Y-104115757D01*
X122582985Y-104320460D01*
X122615007Y-104522643D01*
X122678266Y-104717332D01*
X122771200Y-104899722D01*
X122891513Y-105065322D01*
X123036271Y-105210080D01*
X123191234Y-105322665D01*
X123201875Y-105330396D01*
X123288175Y-105374368D01*
X123384261Y-105423327D01*
X123384263Y-105423327D01*
X123384266Y-105423329D01*
X123488622Y-105457236D01*
X123578950Y-105486586D01*
X123668283Y-105500735D01*
X123781133Y-105518609D01*
X123781134Y-105518609D01*
X123985836Y-105518609D01*
X123985837Y-105518609D01*
X124188019Y-105486586D01*
X124382704Y-105423329D01*
X124565095Y-105330396D01*
X124683561Y-105244326D01*
X124730698Y-105210080D01*
X124730700Y-105210077D01*
X124730704Y-105210075D01*
X124875451Y-105065328D01*
X124875453Y-105065324D01*
X124875456Y-105065322D01*
X124966982Y-104939345D01*
X124995772Y-104899719D01*
X125088705Y-104717328D01*
X125151962Y-104522643D01*
X125183985Y-104320461D01*
X125183985Y-104115757D01*
X125168590Y-104018558D01*
X125151962Y-103913574D01*
X125088703Y-103718885D01*
X125045338Y-103633778D01*
X124995772Y-103536499D01*
X124964578Y-103493564D01*
X124875456Y-103370895D01*
X124730698Y-103226137D01*
X124565098Y-103105824D01*
X124565097Y-103105823D01*
X124565095Y-103105822D01*
X124486850Y-103065954D01*
X124382708Y-103012890D01*
X124188019Y-102949631D01*
X124013480Y-102921987D01*
X123985837Y-102917609D01*
X123781133Y-102917609D01*
X123756814Y-102921460D01*
X123578950Y-102949631D01*
X123384261Y-103012890D01*
X123201871Y-103105824D01*
X123036271Y-103226137D01*
X122891513Y-103370895D01*
X122771200Y-103536495D01*
X122678266Y-103718885D01*
X122615007Y-103913574D01*
X122582985Y-104115757D01*
X118887934Y-104115757D01*
X118825536Y-103993293D01*
X118825534Y-103993290D01*
X118825533Y-103993288D01*
X118700594Y-103821322D01*
X118550271Y-103670999D01*
X118378305Y-103546060D01*
X118188899Y-103449553D01*
X118188898Y-103449552D01*
X118188897Y-103449552D01*
X117986728Y-103383863D01*
X117986726Y-103383862D01*
X117986725Y-103383862D01*
X117825442Y-103358317D01*
X117776772Y-103350609D01*
X117564198Y-103350609D01*
X117515527Y-103358317D01*
X117354245Y-103383862D01*
X117152070Y-103449553D01*
X116962664Y-103546060D01*
X116790698Y-103670999D01*
X116640375Y-103821322D01*
X116515434Y-103993291D01*
X116510969Y-104002055D01*
X116462994Y-104052851D01*
X116395173Y-104069645D01*
X116329038Y-104047107D01*
X116290001Y-104002055D01*
X116285535Y-103993291D01*
X116160594Y-103821322D01*
X116010271Y-103670999D01*
X115838305Y-103546060D01*
X115648899Y-103449553D01*
X115648898Y-103449552D01*
X115648897Y-103449552D01*
X115446728Y-103383863D01*
X115446726Y-103383862D01*
X115446725Y-103383862D01*
X115285442Y-103358317D01*
X115236772Y-103350609D01*
X115024198Y-103350609D01*
X114975527Y-103358317D01*
X114814245Y-103383862D01*
X114612070Y-103449553D01*
X114422664Y-103546060D01*
X114250698Y-103670999D01*
X114100375Y-103821322D01*
X113975434Y-103993291D01*
X113970687Y-104002608D01*
X113922712Y-104053402D01*
X113854890Y-104070196D01*
X113788756Y-104047657D01*
X113749719Y-104002604D01*
X113745111Y-103993561D01*
X113705755Y-103939391D01*
X113705754Y-103939391D01*
X113073447Y-104571699D01*
X113056410Y-104508116D01*
X112990584Y-104394102D01*
X112897492Y-104301010D01*
X112783478Y-104235184D01*
X112719894Y-104218146D01*
X113352201Y-103585837D01*
X113298035Y-103546484D01*
X113108702Y-103450013D01*
X112906614Y-103384351D01*
X112696731Y-103351109D01*
X112484239Y-103351109D01*
X112274357Y-103384351D01*
X112274354Y-103384351D01*
X112072267Y-103450013D01*
X111882924Y-103546489D01*
X111828767Y-103585836D01*
X111828767Y-103585837D01*
X112461076Y-104218146D01*
X112397492Y-104235184D01*
X112283478Y-104301010D01*
X112190386Y-104394102D01*
X112124560Y-104508116D01*
X112107522Y-104571700D01*
X111437303Y-103901481D01*
X111403818Y-103840158D01*
X111400984Y-103813800D01*
X111400984Y-103803238D01*
X111400983Y-103803232D01*
X111400982Y-103803225D01*
X111394576Y-103743626D01*
X111385348Y-103718885D01*
X111344282Y-103608780D01*
X111344278Y-103608773D01*
X111258032Y-103493564D01*
X111258029Y-103493561D01*
X111142820Y-103407315D01*
X111142813Y-103407311D01*
X111007967Y-103357017D01*
X111007968Y-103357017D01*
X110948368Y-103350610D01*
X110948366Y-103350609D01*
X110948358Y-103350609D01*
X110948349Y-103350609D01*
X109152614Y-103350609D01*
X109152608Y-103350610D01*
X109093001Y-103357017D01*
X108958156Y-103407311D01*
X108958149Y-103407315D01*
X108842940Y-103493561D01*
X108842937Y-103493564D01*
X108756691Y-103608773D01*
X108756687Y-103608780D01*
X108706393Y-103743626D01*
X108700745Y-103796168D01*
X108699986Y-103803232D01*
X108699985Y-103803244D01*
X108699985Y-105598979D01*
X108699986Y-105598985D01*
X108706393Y-105658592D01*
X108756687Y-105793437D01*
X108756691Y-105793444D01*
X108842937Y-105908653D01*
X108842940Y-105908656D01*
X108958149Y-105994902D01*
X108958156Y-105994906D01*
X109018538Y-106017427D01*
X109074472Y-106059298D01*
X109098889Y-106124762D01*
X109084038Y-106193035D01*
X109034633Y-106242441D01*
X108975205Y-106257609D01*
X104128611Y-106257609D01*
X104061572Y-106237924D01*
X104015817Y-106185120D01*
X104005873Y-106115962D01*
X104034898Y-106052406D01*
X104090293Y-106015678D01*
X104208702Y-105977204D01*
X104398039Y-105880731D01*
X104452201Y-105841379D01*
X104452202Y-105841379D01*
X103819893Y-105209071D01*
X103883478Y-105192034D01*
X103997492Y-105126208D01*
X104090584Y-105033116D01*
X104156410Y-104919102D01*
X104173447Y-104855518D01*
X104805755Y-105487826D01*
X104805755Y-105487825D01*
X104845107Y-105433663D01*
X104933793Y-105259609D01*
X107006985Y-105259609D01*
X107701986Y-105259609D01*
X107701985Y-104526609D01*
X107006985Y-104526609D01*
X107006985Y-105259609D01*
X104933793Y-105259609D01*
X104941580Y-105244326D01*
X105007242Y-105042239D01*
X105007242Y-105042236D01*
X105040485Y-104832355D01*
X105040485Y-104619862D01*
X105007242Y-104409981D01*
X105007242Y-104409978D01*
X104941580Y-104207891D01*
X104845109Y-104018558D01*
X104805755Y-103964391D01*
X104805754Y-103964391D01*
X104173447Y-104596699D01*
X104156410Y-104533116D01*
X104090584Y-104419102D01*
X103997492Y-104326010D01*
X103883478Y-104260184D01*
X103819894Y-104243146D01*
X104452201Y-103610837D01*
X104398035Y-103571484D01*
X104313889Y-103528609D01*
X107006985Y-103528609D01*
X107731718Y-103528609D01*
X107742311Y-103483779D01*
X107744327Y-103476300D01*
X107757935Y-103431437D01*
X107760414Y-103424097D01*
X107831566Y-103233326D01*
X119506985Y-103233326D01*
X119644459Y-103422544D01*
X119647245Y-103426541D01*
X119663611Y-103451036D01*
X119666235Y-103455136D01*
X119686716Y-103488559D01*
X119689178Y-103492759D01*
X119703568Y-103518455D01*
X119705863Y-103522748D01*
X119708849Y-103528609D01*
X121008985Y-103528609D01*
X121008985Y-102026609D01*
X119506985Y-102026609D01*
X119506985Y-103233326D01*
X107831566Y-103233326D01*
X107834072Y-103226607D01*
X107837460Y-103218427D01*
X107859718Y-103169690D01*
X107863680Y-103161776D01*
X107897857Y-103099186D01*
X107902375Y-103091572D01*
X107931339Y-103046505D01*
X107936387Y-103039235D01*
X108065371Y-102866936D01*
X108070924Y-102860045D01*
X108106004Y-102819560D01*
X108112036Y-102813081D01*
X108162457Y-102762660D01*
X108168936Y-102756628D01*
X108209421Y-102721548D01*
X108216312Y-102715995D01*
X108388611Y-102587011D01*
X108395881Y-102581963D01*
X108440948Y-102552999D01*
X108448562Y-102548481D01*
X108508985Y-102515487D01*
X108508985Y-102434337D01*
X114506985Y-102434337D01*
X114524478Y-102428654D01*
X114529138Y-102427240D01*
X114557480Y-102419247D01*
X114562185Y-102418020D01*
X114600302Y-102408867D01*
X114605062Y-102407822D01*
X114633962Y-102402073D01*
X114638757Y-102401217D01*
X114887426Y-102361832D01*
X114892249Y-102361165D01*
X114921482Y-102357705D01*
X114926320Y-102357228D01*
X114965399Y-102354150D01*
X114970264Y-102353863D01*
X114999716Y-102352705D01*
X115004588Y-102352609D01*
X115256382Y-102352609D01*
X115261254Y-102352705D01*
X115290706Y-102353863D01*
X115295571Y-102354150D01*
X115334650Y-102357228D01*
X115339488Y-102357705D01*
X115368721Y-102361165D01*
X115373544Y-102361832D01*
X115622213Y-102401217D01*
X115627008Y-102402073D01*
X115655908Y-102407822D01*
X115660668Y-102408867D01*
X115698785Y-102418020D01*
X115703490Y-102419247D01*
X115731832Y-102427240D01*
X115736492Y-102428654D01*
X115975925Y-102506451D01*
X115980522Y-102508045D01*
X116008132Y-102518230D01*
X116008985Y-102518563D01*
X116008985Y-102447334D01*
X117006985Y-102447334D01*
X117064478Y-102428654D01*
X117069138Y-102427240D01*
X117097480Y-102419247D01*
X117102185Y-102418020D01*
X117140302Y-102408867D01*
X117145062Y-102407822D01*
X117173962Y-102402073D01*
X117178757Y-102401217D01*
X117427426Y-102361832D01*
X117432249Y-102361165D01*
X117461482Y-102357705D01*
X117466320Y-102357228D01*
X117505399Y-102354150D01*
X117510264Y-102353863D01*
X117539716Y-102352705D01*
X117544588Y-102352609D01*
X117796382Y-102352609D01*
X117801254Y-102352705D01*
X117830706Y-102353863D01*
X117835571Y-102354150D01*
X117874650Y-102357228D01*
X117879488Y-102357705D01*
X117908721Y-102361165D01*
X117913544Y-102361832D01*
X118162213Y-102401217D01*
X118167008Y-102402073D01*
X118195908Y-102407822D01*
X118200668Y-102408867D01*
X118238785Y-102418020D01*
X118243490Y-102419247D01*
X118271832Y-102427240D01*
X118276492Y-102428654D01*
X118508985Y-102504196D01*
X118508985Y-102026609D01*
X117006985Y-102026609D01*
X117006985Y-102447334D01*
X116008985Y-102447334D01*
X116008985Y-102026609D01*
X114506985Y-102026609D01*
X114506985Y-102434337D01*
X108508985Y-102434337D01*
X108508985Y-102026609D01*
X107006985Y-102026609D01*
X107006985Y-103528609D01*
X104313889Y-103528609D01*
X104208702Y-103475013D01*
X104006614Y-103409351D01*
X103796731Y-103376109D01*
X103584239Y-103376109D01*
X103374357Y-103409351D01*
X103374354Y-103409351D01*
X103172267Y-103475013D01*
X102982924Y-103571489D01*
X102928767Y-103610836D01*
X102928767Y-103610837D01*
X103561076Y-104243146D01*
X103497492Y-104260184D01*
X103383478Y-104326010D01*
X103290386Y-104419102D01*
X103224560Y-104533116D01*
X103207522Y-104596700D01*
X102575213Y-103964391D01*
X102575212Y-103964391D01*
X102535865Y-104018549D01*
X102535861Y-104018555D01*
X102531245Y-104027614D01*
X102483266Y-104078406D01*
X102415444Y-104095196D01*
X102349311Y-104072652D01*
X102310279Y-104027602D01*
X102305536Y-104018293D01*
X102305534Y-104018290D01*
X102305533Y-104018288D01*
X102180594Y-103846322D01*
X102030271Y-103695999D01*
X101858305Y-103571060D01*
X101668899Y-103474553D01*
X101668898Y-103474552D01*
X101668897Y-103474552D01*
X101466728Y-103408863D01*
X101466726Y-103408862D01*
X101466725Y-103408862D01*
X101305442Y-103383317D01*
X101256772Y-103375609D01*
X101044198Y-103375609D01*
X100995527Y-103383317D01*
X100834245Y-103408862D01*
X100632070Y-103474553D01*
X100442664Y-103571060D01*
X100270698Y-103695999D01*
X100120375Y-103846322D01*
X99995434Y-104018291D01*
X99990969Y-104027055D01*
X99942994Y-104077851D01*
X99875173Y-104094645D01*
X99809038Y-104072107D01*
X99770001Y-104027055D01*
X99765535Y-104018291D01*
X99640594Y-103846322D01*
X99490271Y-103695999D01*
X99318305Y-103571060D01*
X99128899Y-103474553D01*
X99128898Y-103474552D01*
X99128897Y-103474552D01*
X98926728Y-103408863D01*
X98926726Y-103408862D01*
X98926725Y-103408862D01*
X98765442Y-103383317D01*
X98716772Y-103375609D01*
X98504198Y-103375609D01*
X98455527Y-103383317D01*
X98294245Y-103408862D01*
X98092070Y-103474553D01*
X97902664Y-103571060D01*
X97730698Y-103695999D01*
X97580375Y-103846322D01*
X97455434Y-104018291D01*
X97450969Y-104027055D01*
X97402994Y-104077851D01*
X97335173Y-104094645D01*
X97269038Y-104072107D01*
X97230001Y-104027055D01*
X97225535Y-104018291D01*
X97100594Y-103846322D01*
X96950271Y-103695999D01*
X96778305Y-103571060D01*
X96588899Y-103474553D01*
X96588898Y-103474552D01*
X96588897Y-103474552D01*
X96386728Y-103408863D01*
X96386726Y-103408862D01*
X96386725Y-103408862D01*
X96225442Y-103383317D01*
X96176772Y-103375609D01*
X95964198Y-103375609D01*
X95915527Y-103383317D01*
X95754245Y-103408862D01*
X95552070Y-103474553D01*
X95362664Y-103571060D01*
X95190698Y-103695999D01*
X95040375Y-103846322D01*
X94915434Y-104018291D01*
X94910969Y-104027055D01*
X94862994Y-104077851D01*
X94795173Y-104094645D01*
X94729038Y-104072107D01*
X94690001Y-104027055D01*
X94685535Y-104018291D01*
X94560594Y-103846322D01*
X94410271Y-103695999D01*
X94238305Y-103571060D01*
X94048899Y-103474553D01*
X94048898Y-103474552D01*
X94048897Y-103474552D01*
X93846728Y-103408863D01*
X93846726Y-103408862D01*
X93846725Y-103408862D01*
X93685442Y-103383317D01*
X93636772Y-103375609D01*
X93424198Y-103375609D01*
X93375527Y-103383317D01*
X93214245Y-103408862D01*
X93012070Y-103474553D01*
X92822664Y-103571060D01*
X92650698Y-103695999D01*
X92500375Y-103846322D01*
X92375434Y-104018291D01*
X92370969Y-104027055D01*
X92322994Y-104077851D01*
X92255173Y-104094645D01*
X92189038Y-104072107D01*
X92150001Y-104027055D01*
X92145535Y-104018291D01*
X92020594Y-103846322D01*
X91870271Y-103695999D01*
X91698305Y-103571060D01*
X91508899Y-103474553D01*
X91508898Y-103474552D01*
X91508897Y-103474552D01*
X91306728Y-103408863D01*
X91306726Y-103408862D01*
X91306725Y-103408862D01*
X91145442Y-103383317D01*
X91096772Y-103375609D01*
X90884198Y-103375609D01*
X90835527Y-103383317D01*
X90674245Y-103408862D01*
X90472070Y-103474553D01*
X90282664Y-103571060D01*
X90110698Y-103695999D01*
X89960375Y-103846322D01*
X89835434Y-104018291D01*
X89830969Y-104027055D01*
X89782994Y-104077851D01*
X89715173Y-104094645D01*
X89649038Y-104072107D01*
X89610001Y-104027055D01*
X89605535Y-104018291D01*
X89480594Y-103846322D01*
X89330271Y-103695999D01*
X89158305Y-103571060D01*
X88968899Y-103474553D01*
X88968898Y-103474552D01*
X88968897Y-103474552D01*
X88766728Y-103408863D01*
X88766726Y-103408862D01*
X88766725Y-103408862D01*
X88605442Y-103383317D01*
X88556772Y-103375609D01*
X88344198Y-103375609D01*
X88295527Y-103383317D01*
X88134245Y-103408862D01*
X87932070Y-103474553D01*
X87742664Y-103571060D01*
X87570698Y-103695999D01*
X87420375Y-103846322D01*
X87295434Y-104018291D01*
X87290969Y-104027055D01*
X87242994Y-104077851D01*
X87175173Y-104094645D01*
X87109038Y-104072107D01*
X87070001Y-104027055D01*
X87065535Y-104018291D01*
X86940594Y-103846322D01*
X86790271Y-103695999D01*
X86618305Y-103571060D01*
X86428899Y-103474553D01*
X86428898Y-103474552D01*
X86428897Y-103474552D01*
X86226728Y-103408863D01*
X86226726Y-103408862D01*
X86226725Y-103408862D01*
X86065442Y-103383317D01*
X86016772Y-103375609D01*
X85804198Y-103375609D01*
X85755527Y-103383317D01*
X85594245Y-103408862D01*
X85392070Y-103474553D01*
X85202664Y-103571060D01*
X85030700Y-103695998D01*
X84917158Y-103809540D01*
X84855835Y-103843024D01*
X84786143Y-103838040D01*
X84730210Y-103796168D01*
X84713295Y-103765191D01*
X84664282Y-103633780D01*
X84664278Y-103633773D01*
X84578032Y-103518564D01*
X84578029Y-103518561D01*
X84462820Y-103432315D01*
X84462813Y-103432311D01*
X84327967Y-103382017D01*
X84327968Y-103382017D01*
X84268368Y-103375610D01*
X84268366Y-103375609D01*
X84268358Y-103375609D01*
X84268350Y-103375609D01*
X84119985Y-103375609D01*
X84052946Y-103355924D01*
X84007191Y-103303120D01*
X83995985Y-103251609D01*
X83995985Y-102628639D01*
X89506985Y-102628639D01*
X89628846Y-102690731D01*
X89633139Y-102693026D01*
X89658835Y-102707416D01*
X89663035Y-102709878D01*
X89696458Y-102730359D01*
X89700558Y-102732983D01*
X89720485Y-102746296D01*
X89740412Y-102732983D01*
X89744512Y-102730359D01*
X89777935Y-102709878D01*
X89782135Y-102707416D01*
X89807831Y-102693026D01*
X89812124Y-102690731D01*
X89973986Y-102608258D01*
X92006985Y-102608258D01*
X92168846Y-102690731D01*
X92173139Y-102693026D01*
X92198835Y-102707416D01*
X92203035Y-102709878D01*
X92236458Y-102730359D01*
X92240558Y-102732983D01*
X92260485Y-102746296D01*
X92280412Y-102732983D01*
X92284512Y-102730359D01*
X92317935Y-102709878D01*
X92322135Y-102707416D01*
X92347831Y-102693026D01*
X92352124Y-102690731D01*
X92553986Y-102587877D01*
X94506985Y-102587877D01*
X94708846Y-102690731D01*
X94713139Y-102693026D01*
X94738835Y-102707416D01*
X94743035Y-102709878D01*
X94776458Y-102730359D01*
X94780558Y-102732983D01*
X94800485Y-102746296D01*
X94820412Y-102732983D01*
X94824512Y-102730359D01*
X94857935Y-102709878D01*
X94862135Y-102707416D01*
X94887831Y-102693026D01*
X94892124Y-102690731D01*
X95116466Y-102576423D01*
X95120849Y-102574298D01*
X95133986Y-102568242D01*
X97006985Y-102568242D01*
X97020121Y-102574298D01*
X97024504Y-102576423D01*
X97248846Y-102690731D01*
X97253139Y-102693026D01*
X97278835Y-102707416D01*
X97283035Y-102709878D01*
X97316458Y-102730359D01*
X97320558Y-102732983D01*
X97340485Y-102746296D01*
X97360412Y-102732983D01*
X97364512Y-102730359D01*
X97397935Y-102709878D01*
X97402135Y-102707416D01*
X97427831Y-102693026D01*
X97432124Y-102690731D01*
X97656466Y-102576423D01*
X97660849Y-102574298D01*
X97687624Y-102561955D01*
X97692093Y-102560000D01*
X97713985Y-102550934D01*
X99506985Y-102550934D01*
X99528877Y-102560000D01*
X99533346Y-102561955D01*
X99560121Y-102574298D01*
X99564504Y-102576423D01*
X99788846Y-102690731D01*
X99793139Y-102693026D01*
X99818835Y-102707416D01*
X99823035Y-102709878D01*
X99856458Y-102730359D01*
X99860558Y-102732983D01*
X99880485Y-102746296D01*
X99900412Y-102732983D01*
X99904512Y-102730359D01*
X99937935Y-102709878D01*
X99942135Y-102707416D01*
X99967831Y-102693026D01*
X99972124Y-102690731D01*
X100196466Y-102576423D01*
X100200849Y-102574298D01*
X100227624Y-102561955D01*
X100232093Y-102560000D01*
X100268310Y-102545002D01*
X100272838Y-102543230D01*
X100293985Y-102535429D01*
X102006985Y-102535429D01*
X102028132Y-102543230D01*
X102032660Y-102545002D01*
X102068877Y-102560000D01*
X102073346Y-102561955D01*
X102100121Y-102574298D01*
X102104504Y-102576423D01*
X102328846Y-102690731D01*
X102333139Y-102693026D01*
X102358835Y-102707416D01*
X102363035Y-102709878D01*
X102396458Y-102730359D01*
X102400558Y-102732983D01*
X102420935Y-102746597D01*
X102440722Y-102733379D01*
X102444828Y-102730752D01*
X102478250Y-102710276D01*
X102482441Y-102707819D01*
X102508107Y-102693446D01*
X102512399Y-102691152D01*
X102736639Y-102576895D01*
X102741017Y-102574772D01*
X102767761Y-102562442D01*
X102772224Y-102560489D01*
X102808441Y-102545487D01*
X102812976Y-102543713D01*
X102840621Y-102533514D01*
X102845222Y-102531918D01*
X103084615Y-102454135D01*
X103089279Y-102452720D01*
X103117656Y-102444718D01*
X103122372Y-102443488D01*
X103160489Y-102434340D01*
X103165241Y-102433298D01*
X103194104Y-102427558D01*
X103198892Y-102426703D01*
X103262365Y-102416649D01*
X103250916Y-102405200D01*
X103246718Y-102400791D01*
X103221987Y-102373504D01*
X103218013Y-102368897D01*
X103186924Y-102331015D01*
X103183179Y-102326217D01*
X103161247Y-102296645D01*
X103157743Y-102291669D01*
X103031966Y-102103432D01*
X103028709Y-102098288D01*
X103009773Y-102066694D01*
X103006773Y-102061399D01*
X102988178Y-102026609D01*
X102006985Y-102026609D01*
X102006985Y-102535429D01*
X100293985Y-102535429D01*
X100300448Y-102533045D01*
X100305045Y-102531451D01*
X100544478Y-102453654D01*
X100549138Y-102452240D01*
X100577480Y-102444247D01*
X100582185Y-102443020D01*
X100620302Y-102433867D01*
X100625062Y-102432822D01*
X100653962Y-102427073D01*
X100658757Y-102426217D01*
X100907426Y-102386832D01*
X100912249Y-102386165D01*
X100941482Y-102382705D01*
X100946320Y-102382228D01*
X100985399Y-102379150D01*
X100990264Y-102378863D01*
X101008985Y-102378126D01*
X101008985Y-102026609D01*
X99506985Y-102026609D01*
X99506985Y-102550934D01*
X97713985Y-102550934D01*
X97728310Y-102545002D01*
X97732838Y-102543230D01*
X97760448Y-102533045D01*
X97765045Y-102531451D01*
X98004478Y-102453654D01*
X98009138Y-102452240D01*
X98037480Y-102444247D01*
X98042185Y-102443020D01*
X98080302Y-102433867D01*
X98085062Y-102432822D01*
X98113962Y-102427073D01*
X98118757Y-102426217D01*
X98367426Y-102386832D01*
X98372249Y-102386165D01*
X98401482Y-102382705D01*
X98406320Y-102382228D01*
X98445399Y-102379150D01*
X98450264Y-102378863D01*
X98479716Y-102377705D01*
X98484588Y-102377609D01*
X98508985Y-102377609D01*
X98508985Y-102026609D01*
X97006985Y-102026609D01*
X97006985Y-102568242D01*
X95133986Y-102568242D01*
X95147624Y-102561955D01*
X95152093Y-102560000D01*
X95188310Y-102545002D01*
X95192838Y-102543230D01*
X95220448Y-102533045D01*
X95225045Y-102531451D01*
X95464478Y-102453654D01*
X95469138Y-102452240D01*
X95497480Y-102444247D01*
X95502185Y-102443020D01*
X95540302Y-102433867D01*
X95545062Y-102432822D01*
X95573962Y-102427073D01*
X95578757Y-102426217D01*
X95827426Y-102386832D01*
X95832249Y-102386165D01*
X95861482Y-102382705D01*
X95866320Y-102382228D01*
X95905399Y-102379150D01*
X95910264Y-102378863D01*
X95939716Y-102377705D01*
X95944588Y-102377609D01*
X96008985Y-102377609D01*
X96008985Y-102026609D01*
X94506985Y-102026609D01*
X94506985Y-102587877D01*
X92553986Y-102587877D01*
X92576466Y-102576423D01*
X92580849Y-102574298D01*
X92607624Y-102561955D01*
X92612093Y-102560000D01*
X92648310Y-102545002D01*
X92652838Y-102543230D01*
X92680448Y-102533045D01*
X92685045Y-102531451D01*
X92924478Y-102453654D01*
X92929138Y-102452240D01*
X92957480Y-102444247D01*
X92962185Y-102443020D01*
X93000302Y-102433867D01*
X93005062Y-102432822D01*
X93033962Y-102427073D01*
X93038757Y-102426217D01*
X93287426Y-102386832D01*
X93292249Y-102386165D01*
X93321482Y-102382705D01*
X93326320Y-102382228D01*
X93365399Y-102379150D01*
X93370264Y-102378863D01*
X93399716Y-102377705D01*
X93404588Y-102377609D01*
X93508985Y-102377609D01*
X93508985Y-102026609D01*
X92006985Y-102026609D01*
X92006985Y-102608258D01*
X89973986Y-102608258D01*
X90036466Y-102576423D01*
X90040849Y-102574298D01*
X90067624Y-102561955D01*
X90072093Y-102560000D01*
X90108310Y-102545002D01*
X90112838Y-102543230D01*
X90140448Y-102533045D01*
X90145045Y-102531451D01*
X90384478Y-102453654D01*
X90389138Y-102452240D01*
X90417480Y-102444247D01*
X90422185Y-102443020D01*
X90460302Y-102433867D01*
X90465062Y-102432822D01*
X90493962Y-102427073D01*
X90498757Y-102426217D01*
X90747426Y-102386832D01*
X90752249Y-102386165D01*
X90781482Y-102382705D01*
X90786320Y-102382228D01*
X90825399Y-102379150D01*
X90830264Y-102378863D01*
X90859716Y-102377705D01*
X90864588Y-102377609D01*
X91008985Y-102377609D01*
X91008985Y-102026609D01*
X89506985Y-102026609D01*
X89506985Y-102628639D01*
X83995985Y-102628639D01*
X83995985Y-102359967D01*
X84015670Y-102292928D01*
X84032304Y-102272286D01*
X84347572Y-101957019D01*
X84408895Y-101923534D01*
X84435253Y-101920700D01*
X86381527Y-101920700D01*
X86441949Y-101908681D01*
X86502372Y-101896663D01*
X86502375Y-101896661D01*
X86502378Y-101896661D01*
X86535707Y-101882854D01*
X86535706Y-101882854D01*
X86535712Y-101882852D01*
X86616206Y-101849512D01*
X86667429Y-101815284D01*
X86718653Y-101781058D01*
X86805778Y-101693933D01*
X86810098Y-101689613D01*
X86810107Y-101689602D01*
X87445605Y-101054104D01*
X103772900Y-101054104D01*
X103772900Y-101231495D01*
X103807503Y-101405458D01*
X103807506Y-101405467D01*
X103875383Y-101569340D01*
X103875390Y-101569353D01*
X103973935Y-101716834D01*
X103973938Y-101716838D01*
X104099361Y-101842261D01*
X104099365Y-101842264D01*
X104246846Y-101940809D01*
X104246859Y-101940816D01*
X104360542Y-101987904D01*
X104410734Y-102008694D01*
X104410736Y-102008694D01*
X104410741Y-102008696D01*
X104584704Y-102043299D01*
X104584707Y-102043300D01*
X104584709Y-102043300D01*
X104762093Y-102043300D01*
X104762094Y-102043299D01*
X104846002Y-102026609D01*
X104936058Y-102008696D01*
X104936061Y-102008694D01*
X104936066Y-102008694D01*
X105099947Y-101940813D01*
X105247435Y-101842264D01*
X105372864Y-101716835D01*
X105471413Y-101569347D01*
X105539294Y-101405466D01*
X105573900Y-101231491D01*
X105573900Y-101054109D01*
X105573900Y-101054106D01*
X105573899Y-101054104D01*
X105568828Y-101028609D01*
X107006985Y-101028609D01*
X108508985Y-101028609D01*
X109506985Y-101028609D01*
X110859883Y-101028609D01*
X110897744Y-100990748D01*
X110912540Y-100978111D01*
X111008985Y-100908040D01*
X111008985Y-100708861D01*
X112006985Y-100708861D01*
X112023290Y-100711444D01*
X112042210Y-100715986D01*
X112214365Y-100771922D01*
X112232342Y-100779368D01*
X112393626Y-100861547D01*
X112410216Y-100871714D01*
X112556660Y-100978111D01*
X112571456Y-100990748D01*
X112609317Y-101028609D01*
X113508985Y-101028609D01*
X114506985Y-101028609D01*
X116008985Y-101028609D01*
X117006985Y-101028609D01*
X118508985Y-101028609D01*
X119506985Y-101028609D01*
X121008985Y-101028609D01*
X121008985Y-99526609D01*
X119506985Y-99526609D01*
X119506985Y-101028609D01*
X118508985Y-101028609D01*
X118508985Y-99526609D01*
X117006985Y-99526609D01*
X117006985Y-101028609D01*
X116008985Y-101028609D01*
X116008985Y-99526609D01*
X114506985Y-99526609D01*
X114506985Y-101028609D01*
X113508985Y-101028609D01*
X113508985Y-99526609D01*
X112006985Y-99526609D01*
X112006985Y-100708861D01*
X111008985Y-100708861D01*
X111008985Y-99526609D01*
X109506985Y-99526609D01*
X109506985Y-101028609D01*
X108508985Y-101028609D01*
X108508985Y-99526609D01*
X107006985Y-99526609D01*
X107006985Y-101028609D01*
X105568828Y-101028609D01*
X105539296Y-100880141D01*
X105539293Y-100880132D01*
X105530110Y-100857963D01*
X105481617Y-100740888D01*
X105471416Y-100716259D01*
X105471409Y-100716246D01*
X105372864Y-100568765D01*
X105372861Y-100568761D01*
X105247438Y-100443338D01*
X105247434Y-100443335D01*
X105099953Y-100344790D01*
X105099940Y-100344783D01*
X104936067Y-100276906D01*
X104936058Y-100276903D01*
X104762094Y-100242300D01*
X104762091Y-100242300D01*
X104584709Y-100242300D01*
X104584706Y-100242300D01*
X104410741Y-100276903D01*
X104410732Y-100276906D01*
X104246859Y-100344783D01*
X104246846Y-100344790D01*
X104099365Y-100443335D01*
X104099361Y-100443338D01*
X103973938Y-100568761D01*
X103973935Y-100568765D01*
X103875390Y-100716246D01*
X103875383Y-100716259D01*
X103807506Y-100880132D01*
X103807503Y-100880141D01*
X103772900Y-101054104D01*
X87445605Y-101054104D01*
X88095602Y-100404107D01*
X89506985Y-100404107D01*
X89506985Y-101028609D01*
X91008985Y-101028609D01*
X92006985Y-101028609D01*
X93508985Y-101028609D01*
X94506985Y-101028609D01*
X96008985Y-101028609D01*
X97006985Y-101028609D01*
X98508985Y-101028609D01*
X99506985Y-101028609D01*
X101008985Y-101028609D01*
X102006985Y-101028609D01*
X102774924Y-101028609D01*
X102775049Y-101023526D01*
X102776855Y-100986754D01*
X102777303Y-100980684D01*
X102782106Y-100931912D01*
X102782851Y-100925871D01*
X102788255Y-100889440D01*
X102789296Y-100883443D01*
X102833465Y-100661392D01*
X102834799Y-100655451D01*
X102843751Y-100619716D01*
X102845375Y-100613848D01*
X102859602Y-100566955D01*
X102861510Y-100561180D01*
X102873909Y-100526528D01*
X102876099Y-100520851D01*
X102962729Y-100311705D01*
X102965194Y-100306144D01*
X102980934Y-100272862D01*
X102983671Y-100267423D01*
X103006773Y-100224201D01*
X103009773Y-100218906D01*
X103028709Y-100187312D01*
X103031966Y-100182168D01*
X103157743Y-99993931D01*
X103161247Y-99988955D01*
X103183179Y-99959383D01*
X103186924Y-99954585D01*
X103218013Y-99916703D01*
X103221987Y-99912096D01*
X103246718Y-99884809D01*
X103250916Y-99880400D01*
X103399613Y-99731702D01*
X103395813Y-99727297D01*
X103364724Y-99689415D01*
X103360979Y-99684617D01*
X103339047Y-99655045D01*
X103335543Y-99650069D01*
X103253049Y-99526609D01*
X102006985Y-99526609D01*
X102006985Y-101028609D01*
X101008985Y-101028609D01*
X101008985Y-99526609D01*
X99506985Y-99526609D01*
X99506985Y-101028609D01*
X98508985Y-101028609D01*
X98508985Y-99526609D01*
X97006985Y-99526609D01*
X97006985Y-101028609D01*
X96008985Y-101028609D01*
X96008985Y-99526609D01*
X94506985Y-99526609D01*
X94506985Y-101028609D01*
X93508985Y-101028609D01*
X93508985Y-99526609D01*
X92006985Y-99526609D01*
X92006985Y-101028609D01*
X91008985Y-101028609D01*
X91008985Y-99526609D01*
X90384484Y-99526609D01*
X89506985Y-100404107D01*
X88095602Y-100404107D01*
X90595601Y-97904108D01*
X92006985Y-97904108D01*
X92006985Y-98528609D01*
X93508985Y-98528609D01*
X94506985Y-98528609D01*
X96008985Y-98528609D01*
X97006985Y-98528609D01*
X98508985Y-98528609D01*
X99506985Y-98528609D01*
X101008985Y-98528609D01*
X102006985Y-98528609D01*
X102952700Y-98528609D01*
X102952700Y-98412504D01*
X103950700Y-98412504D01*
X103950700Y-98589895D01*
X103985303Y-98763858D01*
X103985306Y-98763867D01*
X104053183Y-98927740D01*
X104053190Y-98927753D01*
X104151735Y-99075234D01*
X104151738Y-99075238D01*
X104277161Y-99200661D01*
X104277165Y-99200664D01*
X104424646Y-99299209D01*
X104424659Y-99299216D01*
X104547563Y-99350123D01*
X104588534Y-99367094D01*
X104588536Y-99367094D01*
X104588541Y-99367096D01*
X104762504Y-99401699D01*
X104762507Y-99401700D01*
X104762509Y-99401700D01*
X104939893Y-99401700D01*
X104939894Y-99401699D01*
X104997882Y-99390164D01*
X105113858Y-99367096D01*
X105113861Y-99367094D01*
X105113866Y-99367094D01*
X105277747Y-99299213D01*
X105425235Y-99200664D01*
X105550664Y-99075235D01*
X105649213Y-98927747D01*
X105717094Y-98763866D01*
X105719735Y-98750593D01*
X105742767Y-98634801D01*
X105751700Y-98589891D01*
X105751700Y-98528609D01*
X107006985Y-98528609D01*
X108508985Y-98528609D01*
X109506985Y-98528609D01*
X111008985Y-98528609D01*
X112006985Y-98528609D01*
X113508985Y-98528609D01*
X114506985Y-98528609D01*
X116008985Y-98528609D01*
X117006985Y-98528609D01*
X118508985Y-98528609D01*
X119506985Y-98528609D01*
X121008985Y-98528609D01*
X121008985Y-97026609D01*
X119506985Y-97026609D01*
X119506985Y-98528609D01*
X118508985Y-98528609D01*
X118508985Y-97026609D01*
X117006985Y-97026609D01*
X117006985Y-98528609D01*
X116008985Y-98528609D01*
X116008985Y-97026609D01*
X114506985Y-97026609D01*
X114506985Y-98528609D01*
X113508985Y-98528609D01*
X113508985Y-97026609D01*
X112006985Y-97026609D01*
X112006985Y-98528609D01*
X111008985Y-98528609D01*
X111008985Y-97026609D01*
X109506985Y-97026609D01*
X109506985Y-98528609D01*
X108508985Y-98528609D01*
X108508985Y-97026609D01*
X107006985Y-97026609D01*
X107006985Y-98528609D01*
X105751700Y-98528609D01*
X105751700Y-98412509D01*
X105751700Y-98412506D01*
X105751699Y-98412504D01*
X105717096Y-98238541D01*
X105717093Y-98238532D01*
X105649216Y-98074659D01*
X105649209Y-98074646D01*
X105550664Y-97927165D01*
X105550661Y-97927161D01*
X105425238Y-97801738D01*
X105425234Y-97801735D01*
X105277753Y-97703190D01*
X105277740Y-97703183D01*
X105113867Y-97635306D01*
X105113858Y-97635303D01*
X104939894Y-97600700D01*
X104939891Y-97600700D01*
X104762509Y-97600700D01*
X104762506Y-97600700D01*
X104588541Y-97635303D01*
X104588532Y-97635306D01*
X104424659Y-97703183D01*
X104424646Y-97703190D01*
X104277165Y-97801735D01*
X104277161Y-97801738D01*
X104151738Y-97927161D01*
X104151735Y-97927165D01*
X104053190Y-98074646D01*
X104053183Y-98074659D01*
X103985306Y-98238532D01*
X103985303Y-98238541D01*
X103950700Y-98412504D01*
X102952700Y-98412504D01*
X102952700Y-98388009D01*
X102952849Y-98381926D01*
X102954655Y-98345154D01*
X102955103Y-98339084D01*
X102959906Y-98290312D01*
X102960651Y-98284271D01*
X102966055Y-98247840D01*
X102967096Y-98241843D01*
X103011265Y-98019792D01*
X103012599Y-98013851D01*
X103021551Y-97978116D01*
X103023175Y-97972248D01*
X103037402Y-97925355D01*
X103039310Y-97919580D01*
X103051709Y-97884928D01*
X103053899Y-97879251D01*
X103140529Y-97670105D01*
X103142994Y-97664544D01*
X103158734Y-97631262D01*
X103161471Y-97625823D01*
X103184573Y-97582601D01*
X103187573Y-97577306D01*
X103206509Y-97545712D01*
X103209766Y-97540568D01*
X103335543Y-97352331D01*
X103339047Y-97347355D01*
X103360979Y-97317783D01*
X103364724Y-97312985D01*
X103395813Y-97275103D01*
X103399787Y-97270496D01*
X103424518Y-97243209D01*
X103428716Y-97238800D01*
X103508985Y-97158531D01*
X103508985Y-97026609D01*
X102006985Y-97026609D01*
X102006985Y-98528609D01*
X101008985Y-98528609D01*
X101008985Y-97026609D01*
X99506985Y-97026609D01*
X99506985Y-98528609D01*
X98508985Y-98528609D01*
X98508985Y-97026609D01*
X97006985Y-97026609D01*
X97006985Y-98528609D01*
X96008985Y-98528609D01*
X96008985Y-97026609D01*
X94506985Y-97026609D01*
X94506985Y-98528609D01*
X93508985Y-98528609D01*
X93508985Y-97026609D01*
X92884485Y-97026609D01*
X92006985Y-97904108D01*
X90595601Y-97904108D01*
X93095601Y-95404109D01*
X94506985Y-95404109D01*
X94506985Y-96028609D01*
X96008985Y-96028609D01*
X97006985Y-96028609D01*
X98508985Y-96028609D01*
X99506985Y-96028609D01*
X101008985Y-96028609D01*
X102006985Y-96028609D01*
X103508985Y-96028609D01*
X104506985Y-96028609D01*
X106008985Y-96028609D01*
X107006985Y-96028609D01*
X108508985Y-96028609D01*
X109506985Y-96028609D01*
X111008985Y-96028609D01*
X112006985Y-96028609D01*
X113508985Y-96028609D01*
X114506985Y-96028609D01*
X116008985Y-96028609D01*
X117006985Y-96028609D01*
X118508985Y-96028609D01*
X119506985Y-96028609D01*
X121008985Y-96028609D01*
X121008985Y-94526609D01*
X119506985Y-94526609D01*
X119506985Y-96028609D01*
X118508985Y-96028609D01*
X118508985Y-94526609D01*
X117006985Y-94526609D01*
X117006985Y-96028609D01*
X116008985Y-96028609D01*
X116008985Y-94526609D01*
X114506985Y-94526609D01*
X114506985Y-96028609D01*
X113508985Y-96028609D01*
X113508985Y-94526609D01*
X112006985Y-94526609D01*
X112006985Y-96028609D01*
X111008985Y-96028609D01*
X111008985Y-94526609D01*
X109506985Y-94526609D01*
X109506985Y-96028609D01*
X108508985Y-96028609D01*
X108508985Y-94526609D01*
X107006985Y-94526609D01*
X107006985Y-96028609D01*
X106008985Y-96028609D01*
X106008985Y-94526609D01*
X104506985Y-94526609D01*
X104506985Y-96028609D01*
X103508985Y-96028609D01*
X103508985Y-94526609D01*
X102006985Y-94526609D01*
X102006985Y-96028609D01*
X101008985Y-96028609D01*
X101008985Y-94526609D01*
X99506985Y-94526609D01*
X99506985Y-96028609D01*
X98508985Y-96028609D01*
X98508985Y-94526609D01*
X97006985Y-94526609D01*
X97006985Y-96028609D01*
X96008985Y-96028609D01*
X96008985Y-94526609D01*
X95384485Y-94526609D01*
X94506985Y-95404109D01*
X93095601Y-95404109D01*
X95595601Y-92904109D01*
X97006985Y-92904109D01*
X97006985Y-93528609D01*
X98508985Y-93528609D01*
X98508985Y-93426143D01*
X104506985Y-93426143D01*
X104506985Y-93528609D01*
X106008985Y-93528609D01*
X107006985Y-93528609D01*
X108508985Y-93528609D01*
X109506985Y-93528609D01*
X111008985Y-93528609D01*
X112006985Y-93528609D01*
X112890925Y-93528609D01*
X117006985Y-93528609D01*
X118508985Y-93528609D01*
X119506985Y-93528609D01*
X121008985Y-93528609D01*
X121008985Y-92026609D01*
X119506985Y-92026609D01*
X119506985Y-93528609D01*
X118508985Y-93528609D01*
X118508985Y-92026609D01*
X117006985Y-92026609D01*
X117006985Y-93528609D01*
X112890925Y-93528609D01*
X112775916Y-93413600D01*
X112771718Y-93409191D01*
X112746987Y-93381904D01*
X112743013Y-93377297D01*
X112711924Y-93339415D01*
X112708179Y-93334617D01*
X112686247Y-93305045D01*
X112682743Y-93300069D01*
X112556966Y-93111832D01*
X112553709Y-93106688D01*
X112534773Y-93075094D01*
X112531773Y-93069799D01*
X112508671Y-93026577D01*
X112505934Y-93021138D01*
X112490194Y-92987856D01*
X112487729Y-92982295D01*
X112401099Y-92773149D01*
X112398909Y-92767472D01*
X112386510Y-92732820D01*
X112384602Y-92727045D01*
X112370375Y-92680152D01*
X112368751Y-92674284D01*
X112359799Y-92638549D01*
X112358465Y-92632608D01*
X112314296Y-92410557D01*
X112313255Y-92404560D01*
X112307851Y-92368129D01*
X112307106Y-92362088D01*
X112302303Y-92313316D01*
X112301855Y-92307246D01*
X112300049Y-92270474D01*
X112299900Y-92264391D01*
X112299900Y-92062504D01*
X113297900Y-92062504D01*
X113297900Y-92239895D01*
X113332503Y-92413858D01*
X113332506Y-92413867D01*
X113400383Y-92577740D01*
X113400390Y-92577753D01*
X113498935Y-92725234D01*
X113498938Y-92725238D01*
X113624361Y-92850661D01*
X113624365Y-92850664D01*
X113771846Y-92949209D01*
X113771859Y-92949216D01*
X113865146Y-92987856D01*
X113935734Y-93017094D01*
X113935736Y-93017094D01*
X113935741Y-93017096D01*
X114109704Y-93051699D01*
X114109707Y-93051700D01*
X114109709Y-93051700D01*
X114287093Y-93051700D01*
X114287094Y-93051699D01*
X114345082Y-93040164D01*
X114461058Y-93017096D01*
X114461061Y-93017094D01*
X114461066Y-93017094D01*
X114624947Y-92949213D01*
X114772435Y-92850664D01*
X114897864Y-92725235D01*
X114996413Y-92577747D01*
X115064294Y-92413866D01*
X115064953Y-92410557D01*
X115092817Y-92270474D01*
X115098900Y-92239891D01*
X115098900Y-92062509D01*
X115098900Y-92062506D01*
X115098899Y-92062504D01*
X115064296Y-91888541D01*
X115064293Y-91888532D01*
X114996416Y-91724659D01*
X114996409Y-91724646D01*
X114897864Y-91577165D01*
X114897861Y-91577161D01*
X114772438Y-91451738D01*
X114772434Y-91451735D01*
X114683401Y-91392244D01*
X122684985Y-91392244D01*
X122684985Y-93187979D01*
X122684986Y-93187985D01*
X122691393Y-93247592D01*
X122741687Y-93382437D01*
X122741691Y-93382444D01*
X122827937Y-93497653D01*
X122827940Y-93497656D01*
X122943149Y-93583902D01*
X122943156Y-93583906D01*
X122988103Y-93600670D01*
X123078002Y-93634200D01*
X123137612Y-93640609D01*
X123148170Y-93640608D01*
X123215208Y-93660288D01*
X123235857Y-93676927D01*
X123906076Y-94347146D01*
X123842492Y-94364184D01*
X123728478Y-94430010D01*
X123635386Y-94523102D01*
X123569560Y-94637116D01*
X123552522Y-94700700D01*
X122920213Y-94068391D01*
X122920212Y-94068391D01*
X122880865Y-94122548D01*
X122784389Y-94311891D01*
X122718727Y-94513978D01*
X122718727Y-94513981D01*
X122685485Y-94723862D01*
X122685485Y-94936355D01*
X122718727Y-95146236D01*
X122718727Y-95146239D01*
X122784389Y-95348326D01*
X122880860Y-95537659D01*
X122920213Y-95591825D01*
X123552522Y-94959517D01*
X123569560Y-95023102D01*
X123635386Y-95137116D01*
X123728478Y-95230208D01*
X123842492Y-95296034D01*
X123906075Y-95313071D01*
X123273767Y-95945378D01*
X123273767Y-95945379D01*
X123327937Y-95984735D01*
X123327936Y-95984735D01*
X123336980Y-95989343D01*
X123387777Y-96037317D01*
X123404572Y-96105138D01*
X123382035Y-96171273D01*
X123336984Y-96210311D01*
X123327667Y-96215058D01*
X123155698Y-96339999D01*
X123005375Y-96490322D01*
X122880436Y-96662288D01*
X122783929Y-96851694D01*
X122718238Y-97053869D01*
X122688948Y-97238800D01*
X122684985Y-97263822D01*
X122684985Y-97476396D01*
X122695019Y-97539753D01*
X122715665Y-97670105D01*
X122718239Y-97686352D01*
X122755730Y-97801738D01*
X122783929Y-97888523D01*
X122880436Y-98077929D01*
X123005375Y-98249895D01*
X123155698Y-98400218D01*
X123327667Y-98525159D01*
X123336431Y-98529625D01*
X123387227Y-98577600D01*
X123404021Y-98645421D01*
X123381483Y-98711556D01*
X123336431Y-98750593D01*
X123327667Y-98755058D01*
X123155698Y-98879999D01*
X123005375Y-99030322D01*
X122880436Y-99202288D01*
X122783929Y-99391694D01*
X122718238Y-99593869D01*
X122684985Y-99803822D01*
X122684985Y-100016395D01*
X122717059Y-100218906D01*
X122718239Y-100226352D01*
X122775995Y-100404107D01*
X122783929Y-100428523D01*
X122880436Y-100617929D01*
X123005375Y-100789895D01*
X123155698Y-100940218D01*
X123327664Y-101065157D01*
X123327666Y-101065158D01*
X123327669Y-101065160D01*
X123517073Y-101161666D01*
X123719242Y-101227355D01*
X123929198Y-101260609D01*
X123929199Y-101260609D01*
X124141771Y-101260609D01*
X124141772Y-101260609D01*
X124351728Y-101227355D01*
X124553897Y-101161666D01*
X124743301Y-101065160D01*
X124765274Y-101049195D01*
X124915271Y-100940218D01*
X124915273Y-100940215D01*
X124915277Y-100940213D01*
X125065589Y-100789901D01*
X125065591Y-100789897D01*
X125065594Y-100789895D01*
X125190533Y-100617929D01*
X125190532Y-100617929D01*
X125190536Y-100617925D01*
X125287042Y-100428521D01*
X125352731Y-100226352D01*
X125385985Y-100016396D01*
X125385985Y-99803822D01*
X125352731Y-99593866D01*
X125287042Y-99391697D01*
X125190536Y-99202293D01*
X125190534Y-99202290D01*
X125190533Y-99202288D01*
X125065594Y-99030322D01*
X124915271Y-98879999D01*
X124743305Y-98755060D01*
X124742600Y-98754700D01*
X124734539Y-98750594D01*
X124683744Y-98702621D01*
X124666948Y-98634801D01*
X124689484Y-98568665D01*
X124734539Y-98529624D01*
X124743301Y-98525160D01*
X124839913Y-98454968D01*
X124915271Y-98400218D01*
X124915273Y-98400215D01*
X124915277Y-98400213D01*
X125065589Y-98249901D01*
X125065591Y-98249897D01*
X125065594Y-98249895D01*
X125190533Y-98077929D01*
X125190532Y-98077929D01*
X125190536Y-98077925D01*
X125287042Y-97888521D01*
X125352731Y-97686352D01*
X125385985Y-97476396D01*
X125385985Y-97263822D01*
X125352731Y-97053866D01*
X125287042Y-96851697D01*
X125190536Y-96662293D01*
X125190534Y-96662290D01*
X125190533Y-96662288D01*
X125065594Y-96490322D01*
X124915271Y-96339999D01*
X124743302Y-96215058D01*
X124733989Y-96210313D01*
X124683192Y-96162339D01*
X124666397Y-96094518D01*
X124688934Y-96028383D01*
X124733992Y-95989341D01*
X124743040Y-95984731D01*
X124797201Y-95945379D01*
X124797202Y-95945379D01*
X124164893Y-95313071D01*
X124228478Y-95296034D01*
X124342492Y-95230208D01*
X124435584Y-95137116D01*
X124501410Y-95023102D01*
X124518447Y-94959517D01*
X125150755Y-95591826D01*
X125150755Y-95591825D01*
X125190107Y-95537663D01*
X125286580Y-95348326D01*
X125352242Y-95146239D01*
X125352242Y-95146236D01*
X125385485Y-94936355D01*
X125385485Y-94723862D01*
X125352242Y-94513981D01*
X125352242Y-94513978D01*
X125286580Y-94311891D01*
X125190109Y-94122558D01*
X125150755Y-94068391D01*
X125150754Y-94068391D01*
X124518447Y-94700699D01*
X124501410Y-94637116D01*
X124435584Y-94523102D01*
X124342492Y-94430010D01*
X124228478Y-94364184D01*
X124164894Y-94347146D01*
X124835112Y-93676927D01*
X124896435Y-93643442D01*
X124922792Y-93640608D01*
X124933357Y-93640608D01*
X124992968Y-93634200D01*
X125127816Y-93583905D01*
X125243031Y-93497655D01*
X125329281Y-93382440D01*
X125379576Y-93247592D01*
X125385985Y-93187982D01*
X125385984Y-91392237D01*
X125379576Y-91332626D01*
X125376047Y-91323165D01*
X125329282Y-91197780D01*
X125329278Y-91197773D01*
X125243032Y-91082564D01*
X125243029Y-91082561D01*
X125127820Y-90996315D01*
X125127813Y-90996311D01*
X124992967Y-90946017D01*
X124992968Y-90946017D01*
X124933368Y-90939610D01*
X124933366Y-90939609D01*
X124933358Y-90939609D01*
X124933349Y-90939609D01*
X123137614Y-90939609D01*
X123137608Y-90939610D01*
X123078001Y-90946017D01*
X122943156Y-90996311D01*
X122943149Y-90996315D01*
X122827940Y-91082561D01*
X122827937Y-91082564D01*
X122741691Y-91197773D01*
X122741687Y-91197780D01*
X122691393Y-91332626D01*
X122684986Y-91392225D01*
X122684986Y-91392232D01*
X122684985Y-91392244D01*
X114683401Y-91392244D01*
X114624953Y-91353190D01*
X114624940Y-91353183D01*
X114461067Y-91285306D01*
X114461058Y-91285303D01*
X114287094Y-91250700D01*
X114287091Y-91250700D01*
X114109709Y-91250700D01*
X114109706Y-91250700D01*
X113935741Y-91285303D01*
X113935732Y-91285306D01*
X113771859Y-91353183D01*
X113771846Y-91353190D01*
X113624365Y-91451735D01*
X113624361Y-91451738D01*
X113498938Y-91577161D01*
X113498935Y-91577165D01*
X113400390Y-91724646D01*
X113400383Y-91724659D01*
X113332506Y-91888532D01*
X113332503Y-91888541D01*
X113297900Y-92062504D01*
X112299900Y-92062504D01*
X112299900Y-92038009D01*
X112300049Y-92031926D01*
X112300310Y-92026609D01*
X112006985Y-92026609D01*
X112006985Y-93528609D01*
X111008985Y-93528609D01*
X111008985Y-92026609D01*
X109506985Y-92026609D01*
X109506985Y-93528609D01*
X108508985Y-93528609D01*
X108508985Y-92026609D01*
X107006985Y-92026609D01*
X107006985Y-93528609D01*
X106008985Y-93528609D01*
X106008985Y-92581126D01*
X106001787Y-92589897D01*
X105997813Y-92594504D01*
X105973082Y-92621791D01*
X105968884Y-92626200D01*
X105808800Y-92786284D01*
X105804391Y-92790482D01*
X105777104Y-92815213D01*
X105772497Y-92819187D01*
X105734615Y-92850276D01*
X105729817Y-92854021D01*
X105700245Y-92875953D01*
X105695269Y-92879457D01*
X105507032Y-93005234D01*
X105501888Y-93008491D01*
X105470294Y-93027427D01*
X105464999Y-93030427D01*
X105421777Y-93053529D01*
X105416338Y-93056266D01*
X105383056Y-93072006D01*
X105377495Y-93074471D01*
X105168349Y-93161101D01*
X105162672Y-93163291D01*
X105128020Y-93175690D01*
X105122245Y-93177598D01*
X105075352Y-93191825D01*
X105069484Y-93193449D01*
X105033749Y-93202401D01*
X105027808Y-93203735D01*
X104805757Y-93247904D01*
X104799760Y-93248945D01*
X104763329Y-93254349D01*
X104757288Y-93255094D01*
X104708516Y-93259897D01*
X104702446Y-93260345D01*
X104699599Y-93260484D01*
X104640400Y-93319684D01*
X104635991Y-93323882D01*
X104608704Y-93348613D01*
X104604097Y-93352587D01*
X104566215Y-93383676D01*
X104561417Y-93387421D01*
X104531845Y-93409353D01*
X104526869Y-93412857D01*
X104506985Y-93426143D01*
X98508985Y-93426143D01*
X98508985Y-92026609D01*
X97884486Y-92026609D01*
X97006985Y-92904109D01*
X95595601Y-92904109D01*
X96691206Y-91808504D01*
X102477500Y-91808504D01*
X102477500Y-91985895D01*
X102512103Y-92159858D01*
X102512106Y-92159867D01*
X102579983Y-92323740D01*
X102579990Y-92323753D01*
X102678535Y-92471234D01*
X102678538Y-92471238D01*
X102803961Y-92596661D01*
X102803965Y-92596664D01*
X102951446Y-92695209D01*
X102951459Y-92695216D01*
X103034447Y-92729590D01*
X103115334Y-92763094D01*
X103115336Y-92763094D01*
X103115341Y-92763096D01*
X103289304Y-92797699D01*
X103289307Y-92797700D01*
X103289309Y-92797700D01*
X103466693Y-92797700D01*
X103466694Y-92797699D01*
X103547837Y-92781559D01*
X103640658Y-92763096D01*
X103640661Y-92763094D01*
X103640666Y-92763094D01*
X103804547Y-92695213D01*
X103952035Y-92596664D01*
X104077464Y-92471235D01*
X104176013Y-92323747D01*
X104181261Y-92311076D01*
X104225099Y-92256674D01*
X104291392Y-92234607D01*
X104320013Y-92236911D01*
X104457704Y-92264299D01*
X104457707Y-92264300D01*
X104457709Y-92264300D01*
X104635093Y-92264300D01*
X104635094Y-92264299D01*
X104693082Y-92252764D01*
X104809058Y-92229696D01*
X104809061Y-92229694D01*
X104809066Y-92229694D01*
X104972947Y-92161813D01*
X105120435Y-92063264D01*
X105245864Y-91937835D01*
X105344413Y-91790347D01*
X105412294Y-91626466D01*
X105422102Y-91577161D01*
X105446899Y-91452495D01*
X105446900Y-91452493D01*
X105446900Y-91275106D01*
X105446899Y-91275104D01*
X105412296Y-91101141D01*
X105412293Y-91101132D01*
X105411487Y-91099187D01*
X105383369Y-91031303D01*
X105344416Y-90937259D01*
X105344409Y-90937246D01*
X105245864Y-90789765D01*
X105245861Y-90789761D01*
X105120438Y-90664338D01*
X105120434Y-90664335D01*
X104972953Y-90565790D01*
X104972940Y-90565783D01*
X104809067Y-90497906D01*
X104809058Y-90497903D01*
X104779788Y-90492081D01*
X107006985Y-90492081D01*
X107006985Y-91028609D01*
X108508985Y-91028609D01*
X109506985Y-91028609D01*
X111008985Y-91028609D01*
X111008985Y-90138100D01*
X110859409Y-90138100D01*
X110853326Y-90137951D01*
X110816554Y-90136145D01*
X110810484Y-90135697D01*
X110761712Y-90130894D01*
X110755671Y-90130149D01*
X110719240Y-90124745D01*
X110713243Y-90123704D01*
X110491192Y-90079535D01*
X110485251Y-90078201D01*
X110449516Y-90069249D01*
X110443648Y-90067625D01*
X110396755Y-90053398D01*
X110390980Y-90051490D01*
X110356328Y-90039091D01*
X110350651Y-90036901D01*
X110141505Y-89950271D01*
X110135944Y-89947806D01*
X110102662Y-89932066D01*
X110097223Y-89929329D01*
X110054001Y-89906227D01*
X110048706Y-89903227D01*
X110017112Y-89884291D01*
X110011968Y-89881034D01*
X109938214Y-89831753D01*
X112006985Y-89831753D01*
X112006985Y-91028609D01*
X112665184Y-91028609D01*
X112682743Y-91002330D01*
X112686247Y-90997355D01*
X112708179Y-90967783D01*
X112711924Y-90962985D01*
X112743013Y-90925103D01*
X112746987Y-90920496D01*
X112771718Y-90893209D01*
X112775916Y-90888800D01*
X112936000Y-90728716D01*
X112940409Y-90724518D01*
X112967696Y-90699787D01*
X112972303Y-90695813D01*
X113010185Y-90664724D01*
X113014983Y-90660979D01*
X113044555Y-90639047D01*
X113049531Y-90635543D01*
X113237768Y-90509766D01*
X113242912Y-90506509D01*
X113274506Y-90487573D01*
X113279801Y-90484573D01*
X113323023Y-90461471D01*
X113328462Y-90458734D01*
X113361744Y-90442994D01*
X113367305Y-90440529D01*
X113508985Y-90381843D01*
X113508985Y-90276888D01*
X114506985Y-90276888D01*
X114679808Y-90311265D01*
X114685749Y-90312599D01*
X114721484Y-90321551D01*
X114727352Y-90323175D01*
X114774245Y-90337402D01*
X114780020Y-90339310D01*
X114814672Y-90351709D01*
X114820349Y-90353899D01*
X115029495Y-90440529D01*
X115035056Y-90442994D01*
X115068338Y-90458734D01*
X115073777Y-90461471D01*
X115116999Y-90484573D01*
X115122294Y-90487573D01*
X115153888Y-90506509D01*
X115159032Y-90509766D01*
X115347269Y-90635543D01*
X115352245Y-90639047D01*
X115381817Y-90660979D01*
X115386615Y-90664724D01*
X115424497Y-90695813D01*
X115429104Y-90699787D01*
X115456391Y-90724518D01*
X115460800Y-90728716D01*
X115620884Y-90888800D01*
X115625082Y-90893209D01*
X115649813Y-90920496D01*
X115653787Y-90925103D01*
X115684876Y-90962985D01*
X115688621Y-90967783D01*
X115710553Y-90997355D01*
X115714057Y-91002330D01*
X115731616Y-91028609D01*
X116008985Y-91028609D01*
X117006985Y-91028609D01*
X118508985Y-91028609D01*
X118508985Y-90265100D01*
X119506985Y-90265100D01*
X119506985Y-91028609D01*
X121008985Y-91028609D01*
X121008985Y-90715488D01*
X120899045Y-90679767D01*
X120894448Y-90678173D01*
X120866838Y-90667988D01*
X120862310Y-90666216D01*
X120826093Y-90651218D01*
X120821624Y-90649263D01*
X120794849Y-90636920D01*
X120790466Y-90634795D01*
X120566124Y-90520487D01*
X120561831Y-90518192D01*
X120536135Y-90503802D01*
X120531935Y-90501340D01*
X120498512Y-90480859D01*
X120494412Y-90478235D01*
X120469917Y-90461869D01*
X120465920Y-90459083D01*
X120262216Y-90311084D01*
X120258328Y-90308141D01*
X120235169Y-90289882D01*
X120231404Y-90286792D01*
X120201597Y-90261331D01*
X120197958Y-90258097D01*
X120176353Y-90238123D01*
X120172849Y-90234753D01*
X120087572Y-90149476D01*
X120052750Y-90163901D01*
X120047072Y-90166091D01*
X120012420Y-90178490D01*
X120006645Y-90180398D01*
X119959752Y-90194625D01*
X119953884Y-90196249D01*
X119918149Y-90205201D01*
X119912208Y-90206535D01*
X119690157Y-90250704D01*
X119684160Y-90251745D01*
X119647729Y-90257149D01*
X119641688Y-90257894D01*
X119592916Y-90262697D01*
X119586846Y-90263145D01*
X119550074Y-90264951D01*
X119543991Y-90265100D01*
X119506985Y-90265100D01*
X118508985Y-90265100D01*
X118508985Y-90031404D01*
X118506906Y-90030227D01*
X118475312Y-90011291D01*
X118470168Y-90008034D01*
X118281931Y-89882257D01*
X118276955Y-89878753D01*
X118247383Y-89856821D01*
X118242585Y-89853076D01*
X118204703Y-89821987D01*
X118200096Y-89818013D01*
X118172809Y-89793282D01*
X118168400Y-89789084D01*
X118008316Y-89629000D01*
X118004118Y-89624591D01*
X117979387Y-89597304D01*
X117975413Y-89592697D01*
X117944324Y-89554815D01*
X117940579Y-89550017D01*
X117923219Y-89526609D01*
X117006985Y-89526609D01*
X117006985Y-91028609D01*
X116008985Y-91028609D01*
X116008985Y-89526609D01*
X114506985Y-89526609D01*
X114506985Y-90276888D01*
X113508985Y-90276888D01*
X113508985Y-89526609D01*
X112370475Y-89526609D01*
X112235000Y-89662084D01*
X112230591Y-89666282D01*
X112203304Y-89691013D01*
X112198697Y-89694987D01*
X112160815Y-89726076D01*
X112156017Y-89729821D01*
X112126445Y-89751753D01*
X112121469Y-89755257D01*
X112006985Y-89831753D01*
X109938214Y-89831753D01*
X109823731Y-89755257D01*
X109818755Y-89751753D01*
X109789183Y-89729821D01*
X109784385Y-89726076D01*
X109746503Y-89694987D01*
X109741896Y-89691013D01*
X109714609Y-89666282D01*
X109710200Y-89662084D01*
X109574725Y-89526609D01*
X109506985Y-89526609D01*
X109506985Y-91028609D01*
X108508985Y-91028609D01*
X108508985Y-89539853D01*
X108502491Y-89550688D01*
X108499234Y-89555832D01*
X108373457Y-89744069D01*
X108369953Y-89749045D01*
X108348021Y-89778617D01*
X108344276Y-89783415D01*
X108313187Y-89821297D01*
X108309213Y-89825904D01*
X108284482Y-89853191D01*
X108280284Y-89857600D01*
X108120200Y-90017684D01*
X108115791Y-90021882D01*
X108088504Y-90046613D01*
X108083897Y-90050587D01*
X108046015Y-90081676D01*
X108041217Y-90085421D01*
X108011645Y-90107353D01*
X108006669Y-90110857D01*
X107818432Y-90236634D01*
X107813288Y-90239891D01*
X107781694Y-90258827D01*
X107776399Y-90261827D01*
X107733177Y-90284929D01*
X107727738Y-90287666D01*
X107694456Y-90303406D01*
X107688895Y-90305871D01*
X107479749Y-90392501D01*
X107474072Y-90394691D01*
X107439420Y-90407090D01*
X107433645Y-90408998D01*
X107386752Y-90423225D01*
X107380884Y-90424849D01*
X107345149Y-90433801D01*
X107339208Y-90435135D01*
X107117157Y-90479304D01*
X107111160Y-90480345D01*
X107074729Y-90485749D01*
X107068688Y-90486494D01*
X107019916Y-90491297D01*
X107013846Y-90491745D01*
X107006985Y-90492081D01*
X104779788Y-90492081D01*
X104635094Y-90463300D01*
X104635091Y-90463300D01*
X104457709Y-90463300D01*
X104457706Y-90463300D01*
X104283741Y-90497903D01*
X104283732Y-90497906D01*
X104119859Y-90565783D01*
X104119846Y-90565790D01*
X103972365Y-90664335D01*
X103972361Y-90664338D01*
X103846938Y-90789761D01*
X103846935Y-90789765D01*
X103748385Y-90937255D01*
X103748384Y-90937258D01*
X103743134Y-90949931D01*
X103699290Y-91004331D01*
X103632994Y-91026392D01*
X103604385Y-91024088D01*
X103466695Y-90996700D01*
X103466691Y-90996700D01*
X103289309Y-90996700D01*
X103289306Y-90996700D01*
X103115341Y-91031303D01*
X103115332Y-91031306D01*
X102951459Y-91099183D01*
X102951446Y-91099190D01*
X102803965Y-91197735D01*
X102803961Y-91197738D01*
X102678538Y-91323161D01*
X102678535Y-91323165D01*
X102579990Y-91470646D01*
X102579983Y-91470659D01*
X102512106Y-91634532D01*
X102512103Y-91634541D01*
X102477500Y-91808504D01*
X96691206Y-91808504D01*
X98095601Y-90404110D01*
X99506985Y-90404110D01*
X99506985Y-91028609D01*
X101008985Y-91028609D01*
X101008985Y-90583331D01*
X102006985Y-90583331D01*
X102115600Y-90474716D01*
X102120009Y-90470518D01*
X102147296Y-90445787D01*
X102151903Y-90441813D01*
X102189785Y-90410724D01*
X102194583Y-90406979D01*
X102224155Y-90385047D01*
X102229131Y-90381543D01*
X102417368Y-90255766D01*
X102422512Y-90252509D01*
X102454106Y-90233573D01*
X102459401Y-90230573D01*
X102502623Y-90207471D01*
X102508062Y-90204734D01*
X102541344Y-90188994D01*
X102546905Y-90186529D01*
X102756051Y-90099899D01*
X102761728Y-90097709D01*
X102796380Y-90085310D01*
X102802155Y-90083402D01*
X102849048Y-90069175D01*
X102854916Y-90067551D01*
X102890651Y-90058599D01*
X102896592Y-90057265D01*
X103118643Y-90013096D01*
X103124640Y-90012055D01*
X103161071Y-90006651D01*
X103167112Y-90005906D01*
X103215884Y-90001103D01*
X103221954Y-90000655D01*
X103224800Y-90000515D01*
X103284000Y-89941316D01*
X103288409Y-89937118D01*
X103315696Y-89912387D01*
X103320303Y-89908413D01*
X103358185Y-89877324D01*
X103362983Y-89873579D01*
X103392555Y-89851647D01*
X103397531Y-89848143D01*
X103508985Y-89773671D01*
X103508985Y-89526609D01*
X102006985Y-89526609D01*
X102006985Y-90583331D01*
X101008985Y-90583331D01*
X101008985Y-89526609D01*
X100384487Y-89526609D01*
X99506985Y-90404110D01*
X98095601Y-90404110D01*
X100181642Y-88318069D01*
X104506985Y-88318069D01*
X104506985Y-88528609D01*
X104959300Y-88528609D01*
X104959300Y-88506504D01*
X105957300Y-88506504D01*
X105957300Y-88683895D01*
X105991903Y-88857858D01*
X105991906Y-88857867D01*
X106059783Y-89021740D01*
X106059790Y-89021753D01*
X106158335Y-89169234D01*
X106158338Y-89169238D01*
X106283761Y-89294661D01*
X106283765Y-89294664D01*
X106431246Y-89393209D01*
X106431259Y-89393216D01*
X106554163Y-89444123D01*
X106595134Y-89461094D01*
X106595136Y-89461094D01*
X106595141Y-89461096D01*
X106769104Y-89495699D01*
X106769107Y-89495700D01*
X106769109Y-89495700D01*
X106946493Y-89495700D01*
X106946494Y-89495699D01*
X107004482Y-89484164D01*
X107120458Y-89461096D01*
X107120461Y-89461094D01*
X107120466Y-89461094D01*
X107284347Y-89393213D01*
X107431835Y-89294664D01*
X107557264Y-89169235D01*
X107655813Y-89021747D01*
X107723694Y-88857866D01*
X107748816Y-88731568D01*
X107781200Y-88669658D01*
X107841916Y-88635084D01*
X107858285Y-88632357D01*
X107860893Y-88632100D01*
X108034858Y-88597496D01*
X108034861Y-88597494D01*
X108034866Y-88597494D01*
X108198747Y-88529613D01*
X108346235Y-88431064D01*
X108471664Y-88305635D01*
X108570213Y-88158147D01*
X108573213Y-88150904D01*
X110072100Y-88150904D01*
X110072100Y-88328295D01*
X110106703Y-88502258D01*
X110106706Y-88502267D01*
X110174583Y-88666140D01*
X110174590Y-88666153D01*
X110273135Y-88813634D01*
X110273138Y-88813638D01*
X110398561Y-88939061D01*
X110398565Y-88939064D01*
X110546046Y-89037609D01*
X110546059Y-89037616D01*
X110668963Y-89088523D01*
X110709934Y-89105494D01*
X110709936Y-89105494D01*
X110709941Y-89105496D01*
X110883904Y-89140099D01*
X110883907Y-89140100D01*
X110883909Y-89140100D01*
X111061293Y-89140100D01*
X111061294Y-89140099D01*
X111119282Y-89128564D01*
X111235258Y-89105496D01*
X111235261Y-89105494D01*
X111235266Y-89105494D01*
X111399147Y-89037613D01*
X111546635Y-88939064D01*
X111672064Y-88813635D01*
X111770613Y-88666147D01*
X111838494Y-88502266D01*
X111839153Y-88498957D01*
X111867814Y-88354864D01*
X111873100Y-88328291D01*
X111873100Y-88150909D01*
X111873100Y-88150906D01*
X111873099Y-88150904D01*
X111838496Y-87976941D01*
X111838493Y-87976932D01*
X111770616Y-87813059D01*
X111770609Y-87813046D01*
X111672064Y-87665565D01*
X111672061Y-87665561D01*
X111546638Y-87540138D01*
X111546634Y-87540135D01*
X111399153Y-87441590D01*
X111399140Y-87441583D01*
X111235267Y-87373706D01*
X111235258Y-87373703D01*
X111061294Y-87339100D01*
X111061291Y-87339100D01*
X110883909Y-87339100D01*
X110883906Y-87339100D01*
X110709941Y-87373703D01*
X110709932Y-87373706D01*
X110546059Y-87441583D01*
X110546046Y-87441590D01*
X110398565Y-87540135D01*
X110398561Y-87540138D01*
X110273138Y-87665561D01*
X110273135Y-87665565D01*
X110174590Y-87813046D01*
X110174583Y-87813059D01*
X110106706Y-87976932D01*
X110106703Y-87976941D01*
X110072100Y-88150904D01*
X108573213Y-88150904D01*
X108638094Y-87994266D01*
X108639691Y-87986240D01*
X108670423Y-87831737D01*
X108672700Y-87820291D01*
X108672700Y-87642909D01*
X108672700Y-87642908D01*
X108672700Y-87642906D01*
X108672699Y-87642904D01*
X108638096Y-87468941D01*
X108638093Y-87468932D01*
X108626670Y-87441355D01*
X108614422Y-87411783D01*
X108570216Y-87305059D01*
X108570209Y-87305046D01*
X108471664Y-87157565D01*
X108471661Y-87157561D01*
X108346238Y-87032138D01*
X108346234Y-87032135D01*
X108337964Y-87026609D01*
X112438743Y-87026609D01*
X112459076Y-87051385D01*
X112462821Y-87056183D01*
X112484753Y-87085755D01*
X112488257Y-87090731D01*
X112614034Y-87278968D01*
X112617291Y-87284112D01*
X112636227Y-87315706D01*
X112639227Y-87321001D01*
X112662329Y-87364223D01*
X112665066Y-87369662D01*
X112680806Y-87402944D01*
X112683271Y-87408505D01*
X112769901Y-87617651D01*
X112772091Y-87623328D01*
X112784490Y-87657980D01*
X112786398Y-87663755D01*
X112800625Y-87710648D01*
X112802249Y-87716516D01*
X112811201Y-87752251D01*
X112812535Y-87758192D01*
X112856704Y-87980243D01*
X112857745Y-87986240D01*
X112863149Y-88022671D01*
X112863894Y-88028712D01*
X112868697Y-88077484D01*
X112869145Y-88083554D01*
X112870951Y-88120326D01*
X112871100Y-88126409D01*
X112871100Y-88352791D01*
X112870951Y-88358874D01*
X112869145Y-88395646D01*
X112868697Y-88401716D01*
X112863894Y-88450488D01*
X112863149Y-88456529D01*
X112857745Y-88492960D01*
X112856704Y-88498957D01*
X112850806Y-88528609D01*
X113508985Y-88528609D01*
X114506985Y-88528609D01*
X115828683Y-88528609D01*
X115823183Y-88524934D01*
X115823183Y-88524933D01*
X115798284Y-88508298D01*
X115798259Y-88508280D01*
X115718130Y-88454740D01*
X115677662Y-88410090D01*
X115675306Y-88405683D01*
X115580284Y-88310660D01*
X115580281Y-88310655D01*
X114506985Y-87237359D01*
X114506985Y-88528609D01*
X113508985Y-88528609D01*
X113508985Y-87026609D01*
X112438743Y-87026609D01*
X108337964Y-87026609D01*
X108198753Y-86933590D01*
X108198740Y-86933583D01*
X108034867Y-86865706D01*
X108034858Y-86865703D01*
X107860894Y-86831100D01*
X107860891Y-86831100D01*
X107683509Y-86831100D01*
X107683506Y-86831100D01*
X107509541Y-86865703D01*
X107509532Y-86865706D01*
X107345659Y-86933583D01*
X107345646Y-86933590D01*
X107198165Y-87032135D01*
X107198161Y-87032138D01*
X107072738Y-87157561D01*
X107072735Y-87157565D01*
X106974190Y-87305046D01*
X106974183Y-87305059D01*
X106906306Y-87468932D01*
X106906304Y-87468940D01*
X106881183Y-87595231D01*
X106848798Y-87657142D01*
X106788082Y-87691716D01*
X106771730Y-87694441D01*
X106769108Y-87694699D01*
X106595141Y-87729303D01*
X106595132Y-87729306D01*
X106431259Y-87797183D01*
X106431246Y-87797190D01*
X106283765Y-87895735D01*
X106283761Y-87895738D01*
X106158338Y-88021161D01*
X106158335Y-88021165D01*
X106059790Y-88168646D01*
X106059783Y-88168659D01*
X105991906Y-88332532D01*
X105991903Y-88332541D01*
X105957300Y-88506504D01*
X104959300Y-88506504D01*
X104959300Y-88482009D01*
X104959449Y-88475926D01*
X104961255Y-88439154D01*
X104961703Y-88433084D01*
X104966506Y-88384312D01*
X104967251Y-88378271D01*
X104972655Y-88341840D01*
X104973696Y-88335843D01*
X105017865Y-88113792D01*
X105019199Y-88107851D01*
X105028151Y-88072116D01*
X105029775Y-88066248D01*
X105044002Y-88019355D01*
X105045910Y-88013580D01*
X105058309Y-87978928D01*
X105060499Y-87973251D01*
X105147129Y-87764105D01*
X105149594Y-87758544D01*
X105165334Y-87725262D01*
X105168071Y-87719823D01*
X105191173Y-87676601D01*
X105194173Y-87671306D01*
X105213109Y-87639712D01*
X105216366Y-87634568D01*
X105342143Y-87446331D01*
X105345647Y-87441355D01*
X105367579Y-87411783D01*
X105371324Y-87406985D01*
X105402413Y-87369103D01*
X105406387Y-87364496D01*
X105431118Y-87337209D01*
X105435316Y-87332800D01*
X105595400Y-87172716D01*
X105599809Y-87168518D01*
X105627096Y-87143787D01*
X105631703Y-87139813D01*
X105669585Y-87108724D01*
X105674383Y-87104979D01*
X105703955Y-87083047D01*
X105708931Y-87079543D01*
X105788152Y-87026609D01*
X105484353Y-87026609D01*
X105477821Y-87035417D01*
X105474076Y-87040215D01*
X105442987Y-87078097D01*
X105439013Y-87082704D01*
X105414282Y-87109991D01*
X105410084Y-87114400D01*
X105250000Y-87274484D01*
X105245591Y-87278682D01*
X105218304Y-87303413D01*
X105213697Y-87307387D01*
X105175815Y-87338476D01*
X105171017Y-87342221D01*
X105141445Y-87364153D01*
X105136469Y-87367657D01*
X104948232Y-87493434D01*
X104943088Y-87496691D01*
X104911494Y-87515627D01*
X104906199Y-87518627D01*
X104898755Y-87522605D01*
X104887736Y-87578007D01*
X104886401Y-87583949D01*
X104877449Y-87619684D01*
X104875825Y-87625552D01*
X104861598Y-87672445D01*
X104859690Y-87678220D01*
X104847291Y-87712872D01*
X104845101Y-87718549D01*
X104758471Y-87927695D01*
X104756006Y-87933256D01*
X104740266Y-87966538D01*
X104737529Y-87971977D01*
X104714427Y-88015199D01*
X104711427Y-88020494D01*
X104692491Y-88052088D01*
X104689234Y-88057232D01*
X104563457Y-88245469D01*
X104559953Y-88250445D01*
X104538021Y-88280017D01*
X104534276Y-88284815D01*
X104506985Y-88318069D01*
X100181642Y-88318069D01*
X100595014Y-87904697D01*
X100663468Y-87802249D01*
X100697610Y-87719823D01*
X100708016Y-87694701D01*
X100710616Y-87688423D01*
X100710619Y-87688416D01*
X100719671Y-87642909D01*
X100727149Y-87605317D01*
X100734657Y-87567572D01*
X100734657Y-87439247D01*
X100734656Y-87439221D01*
X100734656Y-87007904D01*
X102147300Y-87007904D01*
X102147300Y-87185295D01*
X102181903Y-87359258D01*
X102181906Y-87359267D01*
X102249783Y-87523140D01*
X102249790Y-87523153D01*
X102348335Y-87670634D01*
X102348338Y-87670638D01*
X102473761Y-87796061D01*
X102473765Y-87796064D01*
X102621246Y-87894609D01*
X102621259Y-87894616D01*
X102704887Y-87929255D01*
X102785134Y-87962494D01*
X102785136Y-87962494D01*
X102785141Y-87962496D01*
X102959104Y-87997099D01*
X102959107Y-87997100D01*
X102959109Y-87997100D01*
X103136493Y-87997100D01*
X103136494Y-87997099D01*
X103198573Y-87984751D01*
X103310458Y-87962496D01*
X103310461Y-87962494D01*
X103310466Y-87962494D01*
X103474347Y-87894613D01*
X103621835Y-87796064D01*
X103747264Y-87670635D01*
X103845813Y-87523147D01*
X103913694Y-87359266D01*
X103917085Y-87342221D01*
X103948299Y-87185295D01*
X103948300Y-87185293D01*
X103948300Y-87007906D01*
X103926973Y-86900692D01*
X103933200Y-86831100D01*
X103976063Y-86775923D01*
X104041952Y-86752678D01*
X104048590Y-86752500D01*
X104076293Y-86752500D01*
X104076294Y-86752499D01*
X104134282Y-86740964D01*
X104250258Y-86717896D01*
X104250261Y-86717894D01*
X104250266Y-86717894D01*
X104414147Y-86650013D01*
X104561635Y-86551464D01*
X104687064Y-86426035D01*
X104785613Y-86278547D01*
X104853494Y-86114666D01*
X104866080Y-86051395D01*
X104880023Y-85981296D01*
X104888100Y-85940691D01*
X104888100Y-85763309D01*
X104888100Y-85763306D01*
X104888099Y-85763304D01*
X104853496Y-85589341D01*
X104853493Y-85589332D01*
X104852103Y-85585977D01*
X104809824Y-85483904D01*
X104785616Y-85425459D01*
X104785609Y-85425446D01*
X104687064Y-85277965D01*
X104687061Y-85277961D01*
X104561638Y-85152538D01*
X104561634Y-85152535D01*
X104414153Y-85053990D01*
X104414140Y-85053983D01*
X104250267Y-84986106D01*
X104250258Y-84986103D01*
X104076294Y-84951500D01*
X104076291Y-84951500D01*
X103898909Y-84951500D01*
X103898906Y-84951500D01*
X103724941Y-84986103D01*
X103724932Y-84986106D01*
X103561059Y-85053983D01*
X103561046Y-85053990D01*
X103413565Y-85152535D01*
X103413561Y-85152538D01*
X103288138Y-85277961D01*
X103288135Y-85277965D01*
X103189590Y-85425446D01*
X103189583Y-85425459D01*
X103121706Y-85589332D01*
X103121703Y-85589341D01*
X103087100Y-85763304D01*
X103087100Y-85763309D01*
X103087100Y-85940691D01*
X103087100Y-85940693D01*
X103087099Y-85940693D01*
X103108427Y-86047908D01*
X103102200Y-86117500D01*
X103059337Y-86172677D01*
X102993448Y-86195922D01*
X102986810Y-86196100D01*
X102959106Y-86196100D01*
X102785141Y-86230703D01*
X102785132Y-86230706D01*
X102621259Y-86298583D01*
X102621246Y-86298590D01*
X102473765Y-86397135D01*
X102473761Y-86397138D01*
X102348338Y-86522561D01*
X102348335Y-86522565D01*
X102249790Y-86670046D01*
X102249783Y-86670059D01*
X102181906Y-86833932D01*
X102181903Y-86833941D01*
X102147300Y-87007904D01*
X100734656Y-87007904D01*
X100734656Y-85376761D01*
X100754341Y-85309722D01*
X100807145Y-85263967D01*
X100870814Y-85253358D01*
X100876303Y-85253898D01*
X100876309Y-85253900D01*
X100876315Y-85253900D01*
X101053693Y-85253900D01*
X101053694Y-85253899D01*
X101120710Y-85240569D01*
X101227658Y-85219296D01*
X101227661Y-85219294D01*
X101227666Y-85219294D01*
X101391547Y-85151413D01*
X101539035Y-85052864D01*
X101664464Y-84927435D01*
X101763013Y-84779947D01*
X101830894Y-84616066D01*
X101830896Y-84616058D01*
X101866689Y-84436117D01*
X101868596Y-84436496D01*
X101891374Y-84380051D01*
X101941182Y-84342408D01*
X101950347Y-84338613D01*
X102097835Y-84240064D01*
X102135479Y-84202420D01*
X102196801Y-84168934D01*
X102223161Y-84166100D01*
X106056438Y-84166100D01*
X106123477Y-84185785D01*
X106169232Y-84238589D01*
X106179176Y-84307747D01*
X106150151Y-84371303D01*
X106144119Y-84377781D01*
X106082138Y-84439761D01*
X106082135Y-84439765D01*
X105983590Y-84587246D01*
X105983583Y-84587259D01*
X105915706Y-84751132D01*
X105915703Y-84751141D01*
X105881100Y-84925104D01*
X105881100Y-85102495D01*
X105915703Y-85276458D01*
X105915706Y-85276467D01*
X105983583Y-85440340D01*
X105983590Y-85440353D01*
X106082135Y-85587834D01*
X106082138Y-85587838D01*
X106207561Y-85713261D01*
X106207565Y-85713264D01*
X106355046Y-85811809D01*
X106355059Y-85811816D01*
X106420259Y-85838822D01*
X106518934Y-85879694D01*
X106518936Y-85879694D01*
X106518941Y-85879696D01*
X106692904Y-85914299D01*
X106692907Y-85914300D01*
X106692909Y-85914300D01*
X106870293Y-85914300D01*
X106870294Y-85914299D01*
X106928282Y-85902764D01*
X107044258Y-85879696D01*
X107044261Y-85879694D01*
X107044266Y-85879694D01*
X107200781Y-85814864D01*
X107208140Y-85811816D01*
X107208140Y-85811815D01*
X107208147Y-85811813D01*
X107355635Y-85713264D01*
X107481064Y-85587835D01*
X107579613Y-85440347D01*
X107647494Y-85276466D01*
X107649981Y-85263967D01*
X107672812Y-85149183D01*
X107682100Y-85102491D01*
X107682100Y-84925109D01*
X107682100Y-84925106D01*
X107682099Y-84925104D01*
X107647496Y-84751141D01*
X107647493Y-84751132D01*
X107645480Y-84746273D01*
X107621694Y-84688846D01*
X107579616Y-84587259D01*
X107579609Y-84587246D01*
X107481064Y-84439765D01*
X107481061Y-84439761D01*
X107419081Y-84377781D01*
X107385596Y-84316458D01*
X107390580Y-84246766D01*
X107432452Y-84190833D01*
X107497916Y-84166416D01*
X107506762Y-84166100D01*
X109203882Y-84166100D01*
X109270921Y-84185785D01*
X109316676Y-84238589D01*
X109326620Y-84307747D01*
X109325499Y-84314292D01*
X109310100Y-84391706D01*
X109310100Y-84569095D01*
X109344703Y-84743058D01*
X109344706Y-84743067D01*
X109412583Y-84906940D01*
X109412590Y-84906953D01*
X109511135Y-85054434D01*
X109511138Y-85054438D01*
X109636561Y-85179861D01*
X109636565Y-85179864D01*
X109784046Y-85278409D01*
X109784059Y-85278416D01*
X109868141Y-85313243D01*
X109947934Y-85346294D01*
X109947936Y-85346294D01*
X109947941Y-85346296D01*
X110121904Y-85380899D01*
X110121907Y-85380900D01*
X110121909Y-85380900D01*
X110299293Y-85380900D01*
X110299294Y-85380899D01*
X110357282Y-85369364D01*
X110473258Y-85346296D01*
X110473261Y-85346294D01*
X110473266Y-85346294D01*
X110637147Y-85278413D01*
X110784635Y-85179864D01*
X110910064Y-85054435D01*
X110988208Y-84937484D01*
X111041820Y-84892679D01*
X111111145Y-84883972D01*
X111174172Y-84914126D01*
X111205871Y-84958923D01*
X111258461Y-85085889D01*
X111258468Y-85085902D01*
X111357013Y-85233383D01*
X111357016Y-85233387D01*
X111482439Y-85358810D01*
X111482443Y-85358813D01*
X111629924Y-85457358D01*
X111629937Y-85457365D01*
X111752841Y-85508272D01*
X111793812Y-85525243D01*
X111793814Y-85525243D01*
X111793819Y-85525245D01*
X111967782Y-85559848D01*
X111967785Y-85559849D01*
X111967787Y-85559849D01*
X112145171Y-85559849D01*
X112145172Y-85559848D01*
X112235168Y-85541947D01*
X112319136Y-85525245D01*
X112319139Y-85525243D01*
X112319144Y-85525243D01*
X112475326Y-85460551D01*
X112483018Y-85457365D01*
X112483018Y-85457364D01*
X112483025Y-85457362D01*
X112630513Y-85358813D01*
X112755942Y-85233384D01*
X112854491Y-85085896D01*
X112922372Y-84922015D01*
X112923767Y-84915005D01*
X112955472Y-84755609D01*
X112956978Y-84748040D01*
X112956978Y-84575330D01*
X112976663Y-84508291D01*
X113029467Y-84462536D01*
X113098625Y-84452592D01*
X113162181Y-84481617D01*
X113168659Y-84487649D01*
X113744181Y-85063171D01*
X113777666Y-85124494D01*
X113780500Y-85150852D01*
X113780500Y-85204095D01*
X113815103Y-85378058D01*
X113815106Y-85378067D01*
X113882983Y-85541940D01*
X113882990Y-85541953D01*
X113981535Y-85689434D01*
X113981538Y-85689438D01*
X114106961Y-85814861D01*
X114106965Y-85814864D01*
X114254446Y-85913409D01*
X114254459Y-85913416D01*
X114377363Y-85964323D01*
X114418334Y-85981294D01*
X114418336Y-85981294D01*
X114418341Y-85981296D01*
X114592304Y-86015899D01*
X114592307Y-86015900D01*
X114592309Y-86015900D01*
X114645548Y-86015900D01*
X114712587Y-86035585D01*
X114733228Y-86052218D01*
X116285979Y-87604970D01*
X116285980Y-87604971D01*
X116338151Y-87657142D01*
X116373106Y-87692097D01*
X116391668Y-87704499D01*
X116428794Y-87729306D01*
X116475552Y-87760549D01*
X116589386Y-87807701D01*
X116707059Y-87831107D01*
X116710226Y-87831737D01*
X116710230Y-87831738D01*
X116710231Y-87831738D01*
X116710232Y-87831738D01*
X118492074Y-87831738D01*
X118559113Y-87851423D01*
X118604868Y-87904227D01*
X118614812Y-87973385D01*
X118606635Y-88003190D01*
X118564906Y-88103932D01*
X118564903Y-88103941D01*
X118530300Y-88277904D01*
X118530300Y-88455295D01*
X118564903Y-88629258D01*
X118564906Y-88629267D01*
X118632783Y-88793140D01*
X118632790Y-88793153D01*
X118731335Y-88940634D01*
X118731338Y-88940638D01*
X118856761Y-89066061D01*
X118856765Y-89066064D01*
X119004246Y-89164609D01*
X119004259Y-89164616D01*
X119127163Y-89215523D01*
X119168134Y-89232494D01*
X119168136Y-89232494D01*
X119168141Y-89232496D01*
X119342104Y-89267099D01*
X119342107Y-89267100D01*
X119342109Y-89267100D01*
X119519493Y-89267100D01*
X119519494Y-89267099D01*
X119577482Y-89255564D01*
X119693458Y-89232496D01*
X119693461Y-89232494D01*
X119693466Y-89232494D01*
X119846181Y-89169238D01*
X119857340Y-89164616D01*
X119857340Y-89164615D01*
X119857347Y-89164613D01*
X120004835Y-89066064D01*
X120130264Y-88940635D01*
X120218492Y-88808592D01*
X120272104Y-88763787D01*
X120341429Y-88755080D01*
X120404456Y-88785234D01*
X120439525Y-88839164D01*
X120492929Y-89003525D01*
X120589436Y-89192929D01*
X120714375Y-89364895D01*
X120864698Y-89515218D01*
X121036664Y-89640157D01*
X121036666Y-89640158D01*
X121036669Y-89640160D01*
X121226073Y-89736666D01*
X121428242Y-89802355D01*
X121638198Y-89835609D01*
X121638199Y-89835609D01*
X121850771Y-89835609D01*
X121850772Y-89835609D01*
X122060728Y-89802355D01*
X122262897Y-89736666D01*
X122452301Y-89640160D01*
X122517629Y-89592697D01*
X122624271Y-89515218D01*
X122624273Y-89515215D01*
X122624277Y-89515213D01*
X122774589Y-89364901D01*
X122774591Y-89364897D01*
X122774594Y-89364895D01*
X122899533Y-89192929D01*
X122899532Y-89192929D01*
X122899536Y-89192925D01*
X122903999Y-89184163D01*
X122951973Y-89133368D01*
X123019793Y-89116572D01*
X123085929Y-89139108D01*
X123124971Y-89184165D01*
X123129436Y-89192929D01*
X123254375Y-89364895D01*
X123404698Y-89515218D01*
X123576664Y-89640157D01*
X123576666Y-89640158D01*
X123576669Y-89640160D01*
X123766073Y-89736666D01*
X123968242Y-89802355D01*
X124178198Y-89835609D01*
X124178199Y-89835609D01*
X124390771Y-89835609D01*
X124390772Y-89835609D01*
X124600728Y-89802355D01*
X124802897Y-89736666D01*
X124992301Y-89640160D01*
X125057629Y-89592697D01*
X125164271Y-89515218D01*
X125164273Y-89515215D01*
X125164277Y-89515213D01*
X125314589Y-89364901D01*
X125314591Y-89364897D01*
X125314594Y-89364895D01*
X125439533Y-89192929D01*
X125439532Y-89192929D01*
X125439536Y-89192925D01*
X125536042Y-89003521D01*
X125601731Y-88801352D01*
X125634985Y-88591396D01*
X125634985Y-88378822D01*
X125601731Y-88168866D01*
X125536042Y-87966697D01*
X125439536Y-87777293D01*
X125439534Y-87777290D01*
X125439533Y-87777288D01*
X125314594Y-87605322D01*
X125164271Y-87454999D01*
X124992305Y-87330060D01*
X124991600Y-87329700D01*
X124983539Y-87325594D01*
X124932744Y-87277621D01*
X124915948Y-87209801D01*
X124938484Y-87143665D01*
X124983539Y-87104624D01*
X124992301Y-87100160D01*
X125052831Y-87056183D01*
X125164271Y-86975218D01*
X125164273Y-86975215D01*
X125164277Y-86975213D01*
X125314589Y-86824901D01*
X125314591Y-86824897D01*
X125314594Y-86824895D01*
X125423571Y-86674898D01*
X125439536Y-86652925D01*
X125536042Y-86463521D01*
X125601731Y-86261352D01*
X125634985Y-86051396D01*
X125634985Y-85838822D01*
X125601731Y-85628866D01*
X125536042Y-85426697D01*
X125439536Y-85237293D01*
X125439534Y-85237290D01*
X125439533Y-85237288D01*
X125314594Y-85065322D01*
X125201054Y-84951782D01*
X125167569Y-84890459D01*
X125172553Y-84820767D01*
X125214425Y-84764834D01*
X125245400Y-84747919D01*
X125376816Y-84698905D01*
X125492031Y-84612655D01*
X125578281Y-84497440D01*
X125628576Y-84362592D01*
X125634985Y-84302982D01*
X125634984Y-82507237D01*
X125628576Y-82447626D01*
X125623181Y-82433162D01*
X125578282Y-82312780D01*
X125578278Y-82312773D01*
X125492032Y-82197564D01*
X125492029Y-82197561D01*
X125376820Y-82111315D01*
X125376813Y-82111311D01*
X125241967Y-82061017D01*
X125241968Y-82061017D01*
X125182368Y-82054610D01*
X125182366Y-82054609D01*
X125182358Y-82054609D01*
X125182349Y-82054609D01*
X123386614Y-82054609D01*
X123386608Y-82054610D01*
X123327001Y-82061017D01*
X123192156Y-82111311D01*
X123192149Y-82111315D01*
X123076940Y-82197561D01*
X123076937Y-82197564D01*
X122990691Y-82312773D01*
X122990687Y-82312780D01*
X122940393Y-82447626D01*
X122933986Y-82507225D01*
X122933986Y-82507232D01*
X122933985Y-82507244D01*
X122933985Y-82517799D01*
X122914300Y-82584838D01*
X122897666Y-82605480D01*
X122227447Y-83275699D01*
X122210410Y-83212116D01*
X122144584Y-83098102D01*
X122051492Y-83005010D01*
X121937478Y-82939184D01*
X121873894Y-82922146D01*
X122506201Y-82289837D01*
X122452035Y-82250484D01*
X122262702Y-82154013D01*
X122060614Y-82088351D01*
X121850731Y-82055109D01*
X121638239Y-82055109D01*
X121428357Y-82088351D01*
X121428354Y-82088351D01*
X121226267Y-82154013D01*
X121036924Y-82250489D01*
X120982767Y-82289836D01*
X120982767Y-82289837D01*
X121615076Y-82922146D01*
X121551492Y-82939184D01*
X121437478Y-83005010D01*
X121344386Y-83098102D01*
X121278560Y-83212116D01*
X121261522Y-83275700D01*
X120629213Y-82643391D01*
X120629212Y-82643391D01*
X120589865Y-82697548D01*
X120493389Y-82886891D01*
X120427727Y-83088978D01*
X120427727Y-83088981D01*
X120394485Y-83298862D01*
X120394485Y-83511355D01*
X120427727Y-83721236D01*
X120427727Y-83721239D01*
X120493389Y-83923326D01*
X120589860Y-84112659D01*
X120629213Y-84166825D01*
X121261522Y-83534517D01*
X121278560Y-83598102D01*
X121344386Y-83712116D01*
X121437478Y-83805208D01*
X121551492Y-83871034D01*
X121615075Y-83888071D01*
X120982767Y-84520378D01*
X120982767Y-84520379D01*
X121036937Y-84559735D01*
X121036936Y-84559735D01*
X121045980Y-84564343D01*
X121096777Y-84612317D01*
X121113572Y-84680138D01*
X121091035Y-84746273D01*
X121045984Y-84785311D01*
X121036667Y-84790058D01*
X120864698Y-84914999D01*
X120714375Y-85065322D01*
X120589436Y-85237288D01*
X120492929Y-85426694D01*
X120427238Y-85628869D01*
X120405945Y-85763309D01*
X120393985Y-85838822D01*
X120393985Y-86051396D01*
X120404005Y-86114658D01*
X120422384Y-86230703D01*
X120427239Y-86261352D01*
X120478274Y-86418420D01*
X120480269Y-86488261D01*
X120444189Y-86548094D01*
X120381488Y-86578922D01*
X120360343Y-86580738D01*
X119424385Y-86580738D01*
X119357346Y-86561053D01*
X119311591Y-86508249D01*
X119301647Y-86439091D01*
X119302768Y-86432546D01*
X119321823Y-86336753D01*
X119321823Y-86159366D01*
X119321822Y-86159364D01*
X119287219Y-85985401D01*
X119287217Y-85985396D01*
X119287217Y-85985394D01*
X119246870Y-85887988D01*
X119239402Y-85818521D01*
X119270677Y-85756042D01*
X119313975Y-85725979D01*
X119414046Y-85684529D01*
X119561534Y-85585980D01*
X119686963Y-85460551D01*
X119785512Y-85313063D01*
X119853393Y-85149182D01*
X119854015Y-85146059D01*
X119883353Y-84998565D01*
X119887999Y-84975207D01*
X119887999Y-84797825D01*
X119887999Y-84797822D01*
X119887998Y-84797820D01*
X119853395Y-84623857D01*
X119853392Y-84623848D01*
X119785515Y-84459975D01*
X119785508Y-84459962D01*
X119686963Y-84312481D01*
X119686960Y-84312477D01*
X119561537Y-84187054D01*
X119561533Y-84187051D01*
X119414052Y-84088506D01*
X119414039Y-84088499D01*
X119250166Y-84020622D01*
X119250157Y-84020619D01*
X119076193Y-83986016D01*
X119076190Y-83986016D01*
X118898808Y-83986016D01*
X118898805Y-83986016D01*
X118724835Y-84020620D01*
X118724824Y-84020624D01*
X118714310Y-84024979D01*
X118644841Y-84032445D01*
X118582363Y-84001167D01*
X118579182Y-83998097D01*
X116191222Y-81610138D01*
X116191219Y-81610134D01*
X116191219Y-81610135D01*
X116184152Y-81603068D01*
X116184152Y-81603067D01*
X116097027Y-81515942D01*
X116033809Y-81473701D01*
X116033810Y-81473701D01*
X116033808Y-81473699D01*
X115994584Y-81447490D01*
X115994580Y-81447488D01*
X115994573Y-81447485D01*
X115914086Y-81414147D01*
X115880747Y-81400337D01*
X115870721Y-81398343D01*
X115820323Y-81388318D01*
X115759904Y-81376300D01*
X115759901Y-81376300D01*
X115759900Y-81376300D01*
X114333900Y-81376300D01*
X114266861Y-81356615D01*
X114221106Y-81303811D01*
X114209900Y-81252300D01*
X114209900Y-81140506D01*
X114209899Y-81140504D01*
X114175296Y-80966541D01*
X114175293Y-80966532D01*
X114175250Y-80966429D01*
X114157544Y-80923681D01*
X117006985Y-80923681D01*
X117050769Y-80952938D01*
X117095573Y-81006552D01*
X117098343Y-81028609D01*
X118508985Y-81028609D01*
X118508985Y-80937304D01*
X119774900Y-80937304D01*
X119774900Y-81114695D01*
X119809503Y-81288658D01*
X119809506Y-81288667D01*
X119877383Y-81452540D01*
X119877390Y-81452553D01*
X119975935Y-81600034D01*
X119975938Y-81600038D01*
X120101361Y-81725461D01*
X120101365Y-81725464D01*
X120248846Y-81824009D01*
X120248859Y-81824016D01*
X120321951Y-81854291D01*
X120412734Y-81891894D01*
X120412736Y-81891894D01*
X120412741Y-81891896D01*
X120586704Y-81926499D01*
X120586707Y-81926500D01*
X120586709Y-81926500D01*
X120764093Y-81926500D01*
X120764094Y-81926499D01*
X120822082Y-81914964D01*
X120938058Y-81891896D01*
X120938061Y-81891894D01*
X120938066Y-81891894D01*
X121101947Y-81824013D01*
X121249435Y-81725464D01*
X121374864Y-81600035D01*
X121473413Y-81452547D01*
X121475509Y-81447488D01*
X121485967Y-81422238D01*
X121541294Y-81288666D01*
X121544062Y-81274753D01*
X121574260Y-81122935D01*
X121575900Y-81114691D01*
X121575900Y-80937309D01*
X121575900Y-80937306D01*
X121575899Y-80937304D01*
X121541296Y-80763341D01*
X121541293Y-80763332D01*
X121539709Y-80759509D01*
X121519782Y-80711399D01*
X121473416Y-80599459D01*
X121473409Y-80599446D01*
X121374864Y-80451965D01*
X121374861Y-80451961D01*
X121249438Y-80326538D01*
X121249434Y-80326535D01*
X121101953Y-80227990D01*
X121101940Y-80227983D01*
X120938067Y-80160106D01*
X120938058Y-80160103D01*
X120764094Y-80125500D01*
X120764091Y-80125500D01*
X120586709Y-80125500D01*
X120586706Y-80125500D01*
X120412741Y-80160103D01*
X120412732Y-80160106D01*
X120248859Y-80227983D01*
X120248846Y-80227990D01*
X120101365Y-80326535D01*
X120101361Y-80326538D01*
X119975938Y-80451961D01*
X119975935Y-80451965D01*
X119877390Y-80599446D01*
X119877383Y-80599459D01*
X119809506Y-80763332D01*
X119809503Y-80763341D01*
X119774900Y-80937304D01*
X118508985Y-80937304D01*
X118508985Y-79526609D01*
X117006985Y-79526609D01*
X117006985Y-80923681D01*
X114157544Y-80923681D01*
X114110756Y-80810723D01*
X114107416Y-80802659D01*
X114107409Y-80802646D01*
X114008864Y-80655165D01*
X114008861Y-80655161D01*
X113883438Y-80529738D01*
X113883434Y-80529735D01*
X113735953Y-80431190D01*
X113735940Y-80431183D01*
X113572067Y-80363306D01*
X113572058Y-80363303D01*
X113398094Y-80328700D01*
X113398091Y-80328700D01*
X113220709Y-80328700D01*
X113220706Y-80328700D01*
X113046741Y-80363303D01*
X113046732Y-80363306D01*
X112882859Y-80431183D01*
X112882846Y-80431190D01*
X112735365Y-80529735D01*
X112735361Y-80529738D01*
X112609938Y-80655161D01*
X112609935Y-80655165D01*
X112511390Y-80802646D01*
X112511383Y-80802659D01*
X112443506Y-80966532D01*
X112443503Y-80966541D01*
X112408900Y-81140504D01*
X112408900Y-81252300D01*
X112389215Y-81319339D01*
X112336411Y-81365094D01*
X112284900Y-81376300D01*
X101262074Y-81376300D01*
X101201656Y-81388318D01*
X101158428Y-81396916D01*
X101141231Y-81400337D01*
X101096312Y-81418944D01*
X101096311Y-81418944D01*
X101027404Y-81447485D01*
X101027395Y-81447490D01*
X101019828Y-81452547D01*
X101019827Y-81452548D01*
X100924953Y-81515940D01*
X100893233Y-81547661D01*
X100837827Y-81603067D01*
X100837824Y-81603070D01*
X100837812Y-81603080D01*
X100827712Y-81613181D01*
X100766389Y-81646666D01*
X100740031Y-81649500D01*
X100686791Y-81649500D01*
X100512826Y-81684103D01*
X100512817Y-81684106D01*
X100348944Y-81751983D01*
X100348931Y-81751990D01*
X100201450Y-81850535D01*
X100201446Y-81850538D01*
X100076023Y-81975961D01*
X100076020Y-81975965D01*
X99977475Y-82123446D01*
X99977468Y-82123459D01*
X99909592Y-82287329D01*
X99909589Y-82287338D01*
X99895104Y-82360158D01*
X99862718Y-82422069D01*
X99820940Y-82450526D01*
X99682612Y-82507823D01*
X99682602Y-82507828D01*
X99535121Y-82606373D01*
X99535117Y-82606376D01*
X99409694Y-82731799D01*
X99409691Y-82731803D01*
X99311146Y-82879284D01*
X99311139Y-82879298D01*
X99309358Y-82883598D01*
X99265514Y-82937998D01*
X99199219Y-82960059D01*
X99131520Y-82942776D01*
X99107119Y-82923819D01*
X99100638Y-82917338D01*
X99100634Y-82917335D01*
X98953153Y-82818790D01*
X98953140Y-82818783D01*
X98789267Y-82750906D01*
X98789258Y-82750903D01*
X98615294Y-82716300D01*
X98615291Y-82716300D01*
X98437909Y-82716300D01*
X98437906Y-82716300D01*
X98263941Y-82750903D01*
X98263932Y-82750906D01*
X98100059Y-82818783D01*
X98100046Y-82818790D01*
X97952565Y-82917335D01*
X97952561Y-82917338D01*
X97827138Y-83042761D01*
X97827135Y-83042765D01*
X97728590Y-83190246D01*
X97728583Y-83190259D01*
X97660706Y-83354132D01*
X97660703Y-83354141D01*
X97626100Y-83528104D01*
X97626100Y-83705495D01*
X97660703Y-83879458D01*
X97660706Y-83879467D01*
X97728583Y-84043340D01*
X97728590Y-84043353D01*
X97827134Y-84190833D01*
X97827138Y-84190838D01*
X97952561Y-84316261D01*
X97952565Y-84316264D01*
X98100046Y-84414809D01*
X98100059Y-84414816D01*
X98209070Y-84459969D01*
X98263934Y-84482694D01*
X98263936Y-84482694D01*
X98263941Y-84482696D01*
X98437904Y-84517299D01*
X98437907Y-84517300D01*
X98437909Y-84517300D01*
X98615293Y-84517300D01*
X98615294Y-84517299D01*
X98673282Y-84505764D01*
X98789258Y-84482696D01*
X98789261Y-84482694D01*
X98789266Y-84482694D01*
X98938353Y-84420941D01*
X98953140Y-84414816D01*
X98953140Y-84414815D01*
X98953147Y-84414813D01*
X99100635Y-84316264D01*
X99226064Y-84190835D01*
X99226066Y-84190833D01*
X99256554Y-84145204D01*
X99310166Y-84100399D01*
X99379491Y-84091692D01*
X99442518Y-84121846D01*
X99479238Y-84181289D01*
X99483656Y-84214095D01*
X99483656Y-86723216D01*
X99463971Y-86790255D01*
X99411167Y-86836010D01*
X99342009Y-86845954D01*
X99312204Y-86837777D01*
X99195667Y-86789506D01*
X99195658Y-86789503D01*
X99021694Y-86754900D01*
X99021691Y-86754900D01*
X98968452Y-86754900D01*
X98901413Y-86735215D01*
X98880771Y-86718581D01*
X96546819Y-84384629D01*
X96513334Y-84323306D01*
X96510500Y-84296948D01*
X96510500Y-82029214D01*
X96530185Y-81962175D01*
X96582989Y-81916420D01*
X96652147Y-81906476D01*
X96658692Y-81907597D01*
X96795146Y-81934740D01*
X96795149Y-81934740D01*
X96972533Y-81934740D01*
X96972534Y-81934739D01*
X97030522Y-81923204D01*
X97146498Y-81900136D01*
X97146501Y-81900134D01*
X97146506Y-81900134D01*
X97310387Y-81832253D01*
X97457875Y-81733704D01*
X97583304Y-81608275D01*
X97681853Y-81460787D01*
X97749734Y-81296906D01*
X97784340Y-81122931D01*
X97784340Y-81028609D01*
X99506985Y-81028609D01*
X99635197Y-81028609D01*
X99814853Y-80908566D01*
X99819997Y-80905309D01*
X99851591Y-80886373D01*
X99856886Y-80883373D01*
X99900108Y-80860271D01*
X99905547Y-80857534D01*
X99938829Y-80841794D01*
X99944390Y-80839329D01*
X100153536Y-80752699D01*
X100159213Y-80750509D01*
X100193865Y-80738110D01*
X100199640Y-80736202D01*
X100246533Y-80721975D01*
X100252401Y-80720351D01*
X100288136Y-80711399D01*
X100294076Y-80710065D01*
X100351891Y-80698564D01*
X100465366Y-80622742D01*
X100465367Y-80622741D01*
X100493306Y-80604073D01*
X100498446Y-80600819D01*
X100530031Y-80581887D01*
X100535327Y-80578886D01*
X100578551Y-80555782D01*
X100583988Y-80553045D01*
X100617280Y-80537299D01*
X100622845Y-80534833D01*
X100714395Y-80496912D01*
X100781950Y-80468930D01*
X100787625Y-80466740D01*
X100822287Y-80454337D01*
X100828066Y-80452428D01*
X100874963Y-80438201D01*
X100880831Y-80436577D01*
X100916561Y-80427627D01*
X100922500Y-80426294D01*
X101006960Y-80409494D01*
X101008985Y-80409091D01*
X101008985Y-80378300D01*
X102006985Y-80378300D01*
X103149624Y-80378300D01*
X107006985Y-80378300D01*
X108508985Y-80378300D01*
X109506985Y-80378300D01*
X111008985Y-80378300D01*
X111008985Y-79750413D01*
X114506985Y-79750413D01*
X114535497Y-79773813D01*
X114540104Y-79777787D01*
X114567391Y-79802518D01*
X114571800Y-79806716D01*
X114731884Y-79966800D01*
X114736082Y-79971209D01*
X114760813Y-79998496D01*
X114764787Y-80003103D01*
X114795876Y-80040985D01*
X114799621Y-80045783D01*
X114821553Y-80075355D01*
X114825057Y-80080331D01*
X114950834Y-80268568D01*
X114954091Y-80273712D01*
X114973027Y-80305306D01*
X114976027Y-80310601D01*
X114999129Y-80353823D01*
X115001866Y-80359262D01*
X115010870Y-80378300D01*
X115784400Y-80378300D01*
X115790483Y-80378449D01*
X115827255Y-80380255D01*
X115833325Y-80380703D01*
X115882096Y-80385506D01*
X115888135Y-80386251D01*
X115924564Y-80391654D01*
X115930563Y-80392695D01*
X116008985Y-80408293D01*
X116008985Y-79526609D01*
X114506985Y-79526609D01*
X114506985Y-79750413D01*
X111008985Y-79750413D01*
X111008985Y-79526609D01*
X109506985Y-79526609D01*
X109506985Y-80378300D01*
X108508985Y-80378300D01*
X108508985Y-79526609D01*
X107006985Y-79526609D01*
X107006985Y-80378300D01*
X103149624Y-80378300D01*
X103118131Y-80357257D01*
X103113155Y-80353753D01*
X103083583Y-80331821D01*
X103078785Y-80328076D01*
X103040903Y-80296987D01*
X103036296Y-80293013D01*
X103009009Y-80268282D01*
X103004600Y-80264084D01*
X102844516Y-80104000D01*
X102840318Y-80099591D01*
X102815587Y-80072304D01*
X102811613Y-80067697D01*
X102780524Y-80029815D01*
X102776779Y-80025017D01*
X102754847Y-79995445D01*
X102751343Y-79990469D01*
X102625566Y-79802232D01*
X102622309Y-79797088D01*
X102603373Y-79765494D01*
X102600373Y-79760199D01*
X102577271Y-79716977D01*
X102574534Y-79711538D01*
X102558794Y-79678256D01*
X102556329Y-79672695D01*
X102495819Y-79526609D01*
X102006985Y-79526609D01*
X102006985Y-80378300D01*
X101008985Y-80378300D01*
X101008985Y-79526609D01*
X99506985Y-79526609D01*
X99506985Y-81028609D01*
X97784340Y-81028609D01*
X97784340Y-80945549D01*
X97784340Y-80945546D01*
X97784339Y-80945544D01*
X97749736Y-80771581D01*
X97749733Y-80771572D01*
X97749535Y-80771095D01*
X97714323Y-80686084D01*
X97681856Y-80607699D01*
X97681849Y-80607686D01*
X97583304Y-80460205D01*
X97583301Y-80460201D01*
X97457878Y-80334778D01*
X97457874Y-80334775D01*
X97310393Y-80236230D01*
X97310380Y-80236223D01*
X97146507Y-80168346D01*
X97146498Y-80168343D01*
X96972534Y-80133740D01*
X96972531Y-80133740D01*
X96795149Y-80133740D01*
X96795144Y-80133740D01*
X96658691Y-80160882D01*
X96589099Y-80154655D01*
X96533922Y-80111791D01*
X96510678Y-80045902D01*
X96510500Y-80039265D01*
X96510500Y-79566361D01*
X96530185Y-79499322D01*
X96546820Y-79478679D01*
X96584461Y-79441038D01*
X96584464Y-79441035D01*
X96683013Y-79293547D01*
X96750894Y-79129666D01*
X96755947Y-79104267D01*
X96785499Y-78955695D01*
X96785500Y-78955693D01*
X96785500Y-78778306D01*
X96785499Y-78778304D01*
X96780447Y-78752904D01*
X103366500Y-78752904D01*
X103366500Y-78930295D01*
X103401103Y-79104258D01*
X103401106Y-79104267D01*
X103468983Y-79268140D01*
X103468990Y-79268153D01*
X103567535Y-79415634D01*
X103567538Y-79415638D01*
X103692961Y-79541061D01*
X103692965Y-79541064D01*
X103840446Y-79639609D01*
X103840459Y-79639616D01*
X103963363Y-79690523D01*
X104004334Y-79707494D01*
X104004336Y-79707494D01*
X104004341Y-79707496D01*
X104178304Y-79742099D01*
X104178307Y-79742100D01*
X104178309Y-79742100D01*
X104355693Y-79742100D01*
X104355694Y-79742099D01*
X104413682Y-79730564D01*
X104529658Y-79707496D01*
X104529661Y-79707494D01*
X104529666Y-79707494D01*
X104693547Y-79639613D01*
X104841035Y-79541064D01*
X104966464Y-79415635D01*
X105065013Y-79268147D01*
X105132894Y-79104266D01*
X105167500Y-78930291D01*
X105167500Y-78752909D01*
X105167500Y-78752906D01*
X105167499Y-78752904D01*
X105160110Y-78715757D01*
X122582985Y-78715757D01*
X122582985Y-78920460D01*
X122615007Y-79122643D01*
X122678266Y-79317332D01*
X122771200Y-79499722D01*
X122891513Y-79665322D01*
X123036271Y-79810080D01*
X123191234Y-79922665D01*
X123201875Y-79930396D01*
X123303748Y-79982303D01*
X123384261Y-80023327D01*
X123384263Y-80023327D01*
X123384266Y-80023329D01*
X123466936Y-80050190D01*
X123578950Y-80086586D01*
X123661060Y-80099591D01*
X123781133Y-80118609D01*
X123781134Y-80118609D01*
X123985836Y-80118609D01*
X123985837Y-80118609D01*
X124188019Y-80086586D01*
X124382704Y-80023329D01*
X124565095Y-79930396D01*
X124658075Y-79862841D01*
X124730698Y-79810080D01*
X124730700Y-79810077D01*
X124730704Y-79810075D01*
X124875451Y-79665328D01*
X124875453Y-79665324D01*
X124875456Y-79665322D01*
X124965733Y-79541064D01*
X124995772Y-79499719D01*
X125088705Y-79317328D01*
X125151962Y-79122643D01*
X125183985Y-78920461D01*
X125183985Y-78715757D01*
X125151962Y-78513575D01*
X125088705Y-78318890D01*
X125088703Y-78318887D01*
X125088703Y-78318885D01*
X125051082Y-78245051D01*
X124995772Y-78136499D01*
X124988041Y-78125858D01*
X124875456Y-77970895D01*
X124730698Y-77826137D01*
X124565098Y-77705824D01*
X124565097Y-77705823D01*
X124565095Y-77705822D01*
X124508138Y-77676800D01*
X124382708Y-77612890D01*
X124188019Y-77549631D01*
X124013480Y-77521987D01*
X123985837Y-77517609D01*
X123781133Y-77517609D01*
X123756814Y-77521460D01*
X123578950Y-77549631D01*
X123384261Y-77612890D01*
X123201871Y-77705824D01*
X123036271Y-77826137D01*
X122891513Y-77970895D01*
X122771200Y-78136495D01*
X122678266Y-78318885D01*
X122615007Y-78513574D01*
X122582985Y-78715757D01*
X105160110Y-78715757D01*
X105132896Y-78578941D01*
X105132893Y-78578932D01*
X105112049Y-78528609D01*
X107006985Y-78528609D01*
X108508985Y-78528609D01*
X109506985Y-78528609D01*
X111008985Y-78528609D01*
X112006985Y-78528609D01*
X113508985Y-78528609D01*
X114506985Y-78528609D01*
X116008985Y-78528609D01*
X117006985Y-78528609D01*
X118508985Y-78528609D01*
X119506985Y-78528609D01*
X121008985Y-78528609D01*
X121008985Y-77776609D01*
X119506985Y-77776609D01*
X119506985Y-78528609D01*
X118508985Y-78528609D01*
X118508985Y-77776609D01*
X117006985Y-77776609D01*
X117006985Y-78528609D01*
X116008985Y-78528609D01*
X116008985Y-77776609D01*
X114506985Y-77776609D01*
X114506985Y-78528609D01*
X113508985Y-78528609D01*
X113508985Y-77776609D01*
X112006985Y-77776609D01*
X112006985Y-78528609D01*
X111008985Y-78528609D01*
X111008985Y-77776609D01*
X109506985Y-77776609D01*
X109506985Y-78528609D01*
X108508985Y-78528609D01*
X108508985Y-77776609D01*
X107006985Y-77776609D01*
X107006985Y-78528609D01*
X105112049Y-78528609D01*
X105065016Y-78415059D01*
X105065009Y-78415046D01*
X104966464Y-78267565D01*
X104966461Y-78267561D01*
X104841038Y-78142138D01*
X104841034Y-78142135D01*
X104693553Y-78043590D01*
X104693540Y-78043583D01*
X104529667Y-77975706D01*
X104529658Y-77975703D01*
X104355694Y-77941100D01*
X104355691Y-77941100D01*
X104178309Y-77941100D01*
X104178306Y-77941100D01*
X104004341Y-77975703D01*
X104004332Y-77975706D01*
X103840459Y-78043583D01*
X103840446Y-78043590D01*
X103692965Y-78142135D01*
X103692961Y-78142138D01*
X103567538Y-78267561D01*
X103567535Y-78267565D01*
X103468990Y-78415046D01*
X103468983Y-78415059D01*
X103401106Y-78578932D01*
X103401103Y-78578941D01*
X103366500Y-78752904D01*
X96780447Y-78752904D01*
X96750896Y-78604341D01*
X96750893Y-78604332D01*
X96683016Y-78440459D01*
X96683009Y-78440446D01*
X96584464Y-78292965D01*
X96584461Y-78292961D01*
X96459038Y-78167538D01*
X96459034Y-78167535D01*
X96311553Y-78068990D01*
X96311540Y-78068983D01*
X96147667Y-78001106D01*
X96147658Y-78001103D01*
X95973694Y-77966500D01*
X95973691Y-77966500D01*
X95796309Y-77966500D01*
X95796306Y-77966500D01*
X95622341Y-78001103D01*
X95622332Y-78001106D01*
X95458459Y-78068983D01*
X95458446Y-78068990D01*
X95310965Y-78167535D01*
X95310961Y-78167538D01*
X95185538Y-78292961D01*
X95185535Y-78292965D01*
X95086990Y-78440446D01*
X95086983Y-78440459D01*
X95019106Y-78604332D01*
X95019103Y-78604341D01*
X94984500Y-78778304D01*
X94984500Y-78955695D01*
X95019103Y-79129658D01*
X95019106Y-79129667D01*
X95086983Y-79293540D01*
X95086990Y-79293553D01*
X95185535Y-79441034D01*
X95185538Y-79441038D01*
X95223180Y-79478679D01*
X95256666Y-79540001D01*
X95259500Y-79566361D01*
X95259500Y-84569405D01*
X95239815Y-84636444D01*
X95187011Y-84682199D01*
X95117853Y-84692143D01*
X95111309Y-84691022D01*
X95016180Y-84672100D01*
X95016176Y-84672100D01*
X94838794Y-84672100D01*
X94838791Y-84672100D01*
X94664826Y-84706703D01*
X94664817Y-84706706D01*
X94500944Y-84774583D01*
X94500931Y-84774590D01*
X94353450Y-84873135D01*
X94353446Y-84873138D01*
X94228023Y-84998561D01*
X94228020Y-84998565D01*
X94129475Y-85146046D01*
X94129468Y-85146059D01*
X94061591Y-85309932D01*
X94061588Y-85309941D01*
X94026985Y-85483904D01*
X94026985Y-85661295D01*
X94061588Y-85835258D01*
X94061591Y-85835267D01*
X94129468Y-85999140D01*
X94129475Y-85999153D01*
X94228020Y-86146634D01*
X94228023Y-86146638D01*
X94353446Y-86272061D01*
X94353450Y-86272064D01*
X94500931Y-86370609D01*
X94500944Y-86370616D01*
X94623848Y-86421523D01*
X94664819Y-86438494D01*
X94664821Y-86438494D01*
X94664826Y-86438496D01*
X94838789Y-86473099D01*
X94838792Y-86473100D01*
X94838794Y-86473100D01*
X95016178Y-86473100D01*
X95016179Y-86473099D01*
X95074167Y-86461564D01*
X95190143Y-86438496D01*
X95190146Y-86438494D01*
X95190151Y-86438494D01*
X95330020Y-86380558D01*
X95354025Y-86370616D01*
X95354025Y-86370615D01*
X95354032Y-86370613D01*
X95501520Y-86272064D01*
X95626949Y-86146635D01*
X95725498Y-85999147D01*
X95793379Y-85835266D01*
X95793936Y-85832469D01*
X95820275Y-85700053D01*
X95852660Y-85638142D01*
X95913375Y-85603568D01*
X95983145Y-85607307D01*
X96029573Y-85636563D01*
X97996181Y-87603171D01*
X98029666Y-87664494D01*
X98032500Y-87690852D01*
X98032500Y-87744095D01*
X98067103Y-87918058D01*
X98067106Y-87918067D01*
X98134983Y-88081940D01*
X98134990Y-88081953D01*
X98233535Y-88229434D01*
X98233538Y-88229438D01*
X98279633Y-88275533D01*
X98313118Y-88336856D01*
X98308134Y-88406548D01*
X98279633Y-88450895D01*
X86097149Y-100633381D01*
X86035826Y-100666866D01*
X86009468Y-100669700D01*
X84192541Y-100669700D01*
X84192521Y-100669699D01*
X84186407Y-100669699D01*
X84063194Y-100669699D01*
X84063192Y-100669699D01*
X83974971Y-100687248D01*
X83942348Y-100693737D01*
X83942347Y-100693737D01*
X83942344Y-100693738D01*
X83942341Y-100693739D01*
X83910062Y-100707109D01*
X83895197Y-100713267D01*
X83828519Y-100740885D01*
X83828517Y-100740886D01*
X83726066Y-100809341D01*
X83726063Y-100809344D01*
X82971754Y-101563655D01*
X82884629Y-101650779D01*
X82884623Y-101650787D01*
X82816177Y-101753220D01*
X82816169Y-101753234D01*
X82790468Y-101815287D01*
X82782832Y-101833722D01*
X82779295Y-101842261D01*
X82769022Y-101867060D01*
X82769020Y-101867068D01*
X82744985Y-101987904D01*
X82744985Y-103251609D01*
X82725300Y-103318648D01*
X82672496Y-103364403D01*
X82620986Y-103375609D01*
X82472615Y-103375609D01*
X82472608Y-103375610D01*
X82413001Y-103382017D01*
X82278156Y-103432311D01*
X82278149Y-103432315D01*
X82162940Y-103518561D01*
X82162937Y-103518564D01*
X82076691Y-103633773D01*
X82076687Y-103633780D01*
X82026393Y-103768626D01*
X82019986Y-103828225D01*
X82019985Y-103828244D01*
X82019985Y-105623979D01*
X82019986Y-105623985D01*
X82026393Y-105683592D01*
X82076687Y-105818437D01*
X82076691Y-105818444D01*
X82162937Y-105933653D01*
X82162940Y-105933656D01*
X82278149Y-106019902D01*
X82285939Y-106024156D01*
X82284360Y-106027047D01*
X82327443Y-106059298D01*
X82351860Y-106124762D01*
X82337009Y-106193035D01*
X82287604Y-106242441D01*
X82228176Y-106257609D01*
X76882985Y-106257609D01*
X76815946Y-106237924D01*
X76770191Y-106185120D01*
X76758985Y-106133609D01*
X76758985Y-104115757D01*
X77497985Y-104115757D01*
X77497985Y-104320460D01*
X77530007Y-104522643D01*
X77593266Y-104717332D01*
X77686200Y-104899722D01*
X77806513Y-105065322D01*
X77951271Y-105210080D01*
X78106234Y-105322665D01*
X78116875Y-105330396D01*
X78203175Y-105374368D01*
X78299261Y-105423327D01*
X78299263Y-105423327D01*
X78299266Y-105423329D01*
X78403622Y-105457236D01*
X78493950Y-105486586D01*
X78583283Y-105500735D01*
X78696133Y-105518609D01*
X78696134Y-105518609D01*
X78900836Y-105518609D01*
X78900837Y-105518609D01*
X79103019Y-105486586D01*
X79297704Y-105423329D01*
X79480095Y-105330396D01*
X79598561Y-105244326D01*
X79645698Y-105210080D01*
X79645700Y-105210077D01*
X79645704Y-105210075D01*
X79790451Y-105065328D01*
X79790453Y-105065324D01*
X79790456Y-105065322D01*
X79881982Y-104939345D01*
X79910772Y-104899719D01*
X80003705Y-104717328D01*
X80066962Y-104522643D01*
X80098985Y-104320461D01*
X80098985Y-104115757D01*
X80083590Y-104018558D01*
X80066962Y-103913574D01*
X80003703Y-103718885D01*
X79960338Y-103633778D01*
X79910772Y-103536499D01*
X79879578Y-103493564D01*
X79790456Y-103370895D01*
X79645698Y-103226137D01*
X79480098Y-103105824D01*
X79480097Y-103105823D01*
X79480095Y-103105822D01*
X79401850Y-103065954D01*
X79297708Y-103012890D01*
X79103019Y-102949631D01*
X78928480Y-102921987D01*
X78900837Y-102917609D01*
X78696133Y-102917609D01*
X78671814Y-102921460D01*
X78493950Y-102949631D01*
X78299261Y-103012890D01*
X78116871Y-103105824D01*
X77951271Y-103226137D01*
X77806513Y-103370895D01*
X77686200Y-103536495D01*
X77593266Y-103718885D01*
X77530007Y-103913574D01*
X77497985Y-104115757D01*
X76758985Y-104115757D01*
X76758985Y-102031528D01*
X79506985Y-102031528D01*
X79624735Y-102069789D01*
X79629329Y-102071382D01*
X79656938Y-102081566D01*
X79661469Y-102083339D01*
X79697685Y-102098337D01*
X79702152Y-102100291D01*
X79728928Y-102112634D01*
X79733312Y-102114760D01*
X79950640Y-102225495D01*
X79954933Y-102227790D01*
X79980629Y-102242180D01*
X79984829Y-102244642D01*
X80018252Y-102265123D01*
X80022354Y-102267748D01*
X80046848Y-102284114D01*
X80050843Y-102286899D01*
X80248181Y-102430272D01*
X80252069Y-102433215D01*
X80275228Y-102451474D01*
X80278993Y-102454564D01*
X80308800Y-102480025D01*
X80312439Y-102483259D01*
X80334044Y-102503233D01*
X80337548Y-102506603D01*
X80509991Y-102679046D01*
X80513361Y-102682550D01*
X80533335Y-102704155D01*
X80536569Y-102707794D01*
X80562030Y-102737601D01*
X80565120Y-102741366D01*
X80583379Y-102764525D01*
X80586322Y-102768413D01*
X80729695Y-102965751D01*
X80732480Y-102969746D01*
X80748846Y-102994240D01*
X80751471Y-102998342D01*
X80771952Y-103031765D01*
X80774414Y-103035965D01*
X80788804Y-103061661D01*
X80791099Y-103065954D01*
X80901834Y-103283282D01*
X80903960Y-103287666D01*
X80916303Y-103314442D01*
X80918257Y-103318909D01*
X80933255Y-103355125D01*
X80935028Y-103359656D01*
X80945212Y-103387265D01*
X80946805Y-103391859D01*
X80991239Y-103528609D01*
X81008985Y-103528609D01*
X81008985Y-102026609D01*
X79506985Y-102026609D01*
X79506985Y-102031528D01*
X76758985Y-102031528D01*
X76758985Y-101028609D01*
X77756985Y-101028609D01*
X78508985Y-101028609D01*
X79506985Y-101028609D01*
X81008985Y-101028609D01*
X81008985Y-99939695D01*
X80846757Y-99914001D01*
X80841962Y-99913145D01*
X80813062Y-99907396D01*
X80808302Y-99906351D01*
X80770185Y-99897198D01*
X80765480Y-99895971D01*
X80737138Y-99887978D01*
X80732478Y-99886564D01*
X80669983Y-99866258D01*
X82006985Y-99866258D01*
X82006985Y-101028609D01*
X82104174Y-101028609D01*
X82128727Y-100998694D01*
X82132701Y-100994088D01*
X82157420Y-100966816D01*
X82161615Y-100962410D01*
X82266062Y-100857963D01*
X82634959Y-100489064D01*
X82559566Y-100376232D01*
X82556309Y-100371088D01*
X82537373Y-100339494D01*
X82534373Y-100334199D01*
X82511271Y-100290977D01*
X82508534Y-100285538D01*
X82492794Y-100252256D01*
X82490329Y-100246695D01*
X82403699Y-100037549D01*
X82401509Y-100031872D01*
X82389110Y-99997220D01*
X82387202Y-99991445D01*
X82372975Y-99944552D01*
X82371351Y-99938684D01*
X82362399Y-99902949D01*
X82361065Y-99897008D01*
X82330696Y-99744334D01*
X82292504Y-99763795D01*
X82288121Y-99765920D01*
X82261346Y-99778263D01*
X82256877Y-99780218D01*
X82220660Y-99795216D01*
X82216132Y-99796988D01*
X82188522Y-99807173D01*
X82183925Y-99808767D01*
X82006985Y-99866258D01*
X80669983Y-99866258D01*
X80493045Y-99808767D01*
X80488448Y-99807173D01*
X80460838Y-99796988D01*
X80456310Y-99795216D01*
X80420093Y-99780218D01*
X80415624Y-99778263D01*
X80388849Y-99765920D01*
X80384466Y-99763795D01*
X80160124Y-99649487D01*
X80155831Y-99647192D01*
X80130135Y-99632802D01*
X80125935Y-99630340D01*
X80092512Y-99609859D01*
X80088412Y-99607235D01*
X80063917Y-99590869D01*
X80059920Y-99588083D01*
X79975308Y-99526609D01*
X79506985Y-99526609D01*
X79506985Y-101028609D01*
X78508985Y-101028609D01*
X78508985Y-99526609D01*
X77756985Y-99526609D01*
X77756985Y-101028609D01*
X76758985Y-101028609D01*
X76758985Y-99326904D01*
X83300500Y-99326904D01*
X83300500Y-99504295D01*
X83335103Y-99678258D01*
X83335106Y-99678267D01*
X83402983Y-99842140D01*
X83402990Y-99842153D01*
X83501535Y-99989634D01*
X83501538Y-99989638D01*
X83626961Y-100115061D01*
X83626965Y-100115064D01*
X83774446Y-100213609D01*
X83774459Y-100213616D01*
X83867746Y-100252256D01*
X83938334Y-100281494D01*
X83938336Y-100281494D01*
X83938341Y-100281496D01*
X84112304Y-100316099D01*
X84112307Y-100316100D01*
X84112309Y-100316100D01*
X84289693Y-100316100D01*
X84289694Y-100316099D01*
X84347682Y-100304564D01*
X84463658Y-100281496D01*
X84463661Y-100281494D01*
X84463666Y-100281494D01*
X84603535Y-100223558D01*
X84627540Y-100213616D01*
X84627540Y-100213615D01*
X84627547Y-100213613D01*
X84775035Y-100115064D01*
X84900464Y-99989635D01*
X84999013Y-99842147D01*
X85066894Y-99678266D01*
X85075938Y-99632802D01*
X85101499Y-99504295D01*
X85101500Y-99504293D01*
X85101500Y-99326906D01*
X85101499Y-99326904D01*
X85066896Y-99152941D01*
X85066893Y-99152932D01*
X84999016Y-98989059D01*
X84999009Y-98989046D01*
X84900464Y-98841565D01*
X84900461Y-98841561D01*
X84775038Y-98716138D01*
X84775034Y-98716135D01*
X84627553Y-98617590D01*
X84627540Y-98617583D01*
X84463667Y-98549706D01*
X84463658Y-98549703D01*
X84289694Y-98515100D01*
X84289691Y-98515100D01*
X84112309Y-98515100D01*
X84112306Y-98515100D01*
X83938341Y-98549703D01*
X83938332Y-98549706D01*
X83774459Y-98617583D01*
X83774446Y-98617590D01*
X83626965Y-98716135D01*
X83626961Y-98716138D01*
X83501538Y-98841561D01*
X83501535Y-98841565D01*
X83402990Y-98989046D01*
X83402983Y-98989059D01*
X83335106Y-99152932D01*
X83335103Y-99152941D01*
X83300500Y-99326904D01*
X76758985Y-99326904D01*
X76758985Y-98528609D01*
X77756985Y-98528609D01*
X78508985Y-98528609D01*
X78508985Y-97026609D01*
X77756985Y-97026609D01*
X77756985Y-98528609D01*
X76758985Y-98528609D01*
X76758985Y-96028609D01*
X77756985Y-96028609D01*
X78508985Y-96028609D01*
X78508985Y-94526609D01*
X77756985Y-94526609D01*
X77756985Y-96028609D01*
X76758985Y-96028609D01*
X76758985Y-94176244D01*
X79987985Y-94176244D01*
X79987985Y-95971979D01*
X79987986Y-95971985D01*
X79994393Y-96031592D01*
X80044687Y-96166437D01*
X80044691Y-96166444D01*
X80130937Y-96281653D01*
X80130940Y-96281656D01*
X80246149Y-96367902D01*
X80246156Y-96367906D01*
X80377567Y-96416919D01*
X80433501Y-96458790D01*
X80457918Y-96524254D01*
X80443067Y-96592527D01*
X80421916Y-96620782D01*
X80308374Y-96734324D01*
X80183436Y-96906288D01*
X80086929Y-97095694D01*
X80021238Y-97297869D01*
X79987985Y-97507822D01*
X79987985Y-97720395D01*
X80021044Y-97929124D01*
X80021239Y-97930352D01*
X80068127Y-98074659D01*
X80086929Y-98132523D01*
X80183436Y-98321929D01*
X80308375Y-98493895D01*
X80458698Y-98644218D01*
X80630664Y-98769157D01*
X80630666Y-98769158D01*
X80630669Y-98769160D01*
X80820073Y-98865666D01*
X81022242Y-98931355D01*
X81232198Y-98964609D01*
X81232199Y-98964609D01*
X81444771Y-98964609D01*
X81444772Y-98964609D01*
X81654728Y-98931355D01*
X81856897Y-98865666D01*
X82046301Y-98769160D01*
X82137885Y-98702621D01*
X82218271Y-98644218D01*
X82218273Y-98644215D01*
X82218277Y-98644213D01*
X82368589Y-98493901D01*
X82368591Y-98493897D01*
X82368594Y-98493895D01*
X82493533Y-98321929D01*
X82493532Y-98321929D01*
X82493536Y-98321925D01*
X82590042Y-98132521D01*
X82655731Y-97930352D01*
X82688985Y-97720396D01*
X82688985Y-97540770D01*
X84506985Y-97540770D01*
X84682408Y-97575665D01*
X84688349Y-97576999D01*
X84724084Y-97585951D01*
X84729952Y-97587575D01*
X84776845Y-97601802D01*
X84782620Y-97603710D01*
X84817272Y-97616109D01*
X84822949Y-97618299D01*
X85032095Y-97704929D01*
X85037656Y-97707394D01*
X85070938Y-97723134D01*
X85076377Y-97725871D01*
X85119599Y-97748973D01*
X85124894Y-97751973D01*
X85156488Y-97770909D01*
X85161632Y-97774166D01*
X85349869Y-97899943D01*
X85354845Y-97903447D01*
X85384417Y-97925379D01*
X85389215Y-97929124D01*
X85427097Y-97960213D01*
X85431704Y-97964187D01*
X85458991Y-97988918D01*
X85463400Y-97993116D01*
X85623484Y-98153200D01*
X85627682Y-98157609D01*
X85652413Y-98184896D01*
X85656387Y-98189503D01*
X85687476Y-98227385D01*
X85691221Y-98232183D01*
X85713153Y-98261755D01*
X85716657Y-98266731D01*
X85842434Y-98454968D01*
X85845691Y-98460112D01*
X85864627Y-98491706D01*
X85867627Y-98497001D01*
X85884521Y-98528609D01*
X86008985Y-98528609D01*
X86008985Y-98312159D01*
X87006985Y-98312159D01*
X88292536Y-97026609D01*
X87006985Y-97026609D01*
X87006985Y-98312159D01*
X86008985Y-98312159D01*
X86008985Y-97026609D01*
X84506985Y-97026609D01*
X84506985Y-97540770D01*
X82688985Y-97540770D01*
X82688985Y-97507822D01*
X82655731Y-97297866D01*
X82590042Y-97095697D01*
X82493536Y-96906293D01*
X82493534Y-96906290D01*
X82493533Y-96906288D01*
X82368594Y-96734322D01*
X82255054Y-96620782D01*
X82221569Y-96559459D01*
X82226553Y-96489767D01*
X82268425Y-96433834D01*
X82299400Y-96416919D01*
X82430816Y-96367905D01*
X82546031Y-96281655D01*
X82632281Y-96166440D01*
X82682576Y-96031592D01*
X82682897Y-96028609D01*
X84506985Y-96028609D01*
X86008985Y-96028609D01*
X87006985Y-96028609D01*
X88508985Y-96028609D01*
X88508985Y-95812159D01*
X89506985Y-95812159D01*
X90792535Y-94526609D01*
X89506985Y-94526609D01*
X89506985Y-95812159D01*
X88508985Y-95812159D01*
X88508985Y-94526609D01*
X87006985Y-94526609D01*
X87006985Y-96028609D01*
X86008985Y-96028609D01*
X86008985Y-94526609D01*
X84506985Y-94526609D01*
X84506985Y-96028609D01*
X82682897Y-96028609D01*
X82688985Y-95971982D01*
X82688984Y-94176237D01*
X82682576Y-94116626D01*
X82632281Y-93981778D01*
X82632280Y-93981777D01*
X82632278Y-93981773D01*
X82546032Y-93866564D01*
X82546029Y-93866561D01*
X82430820Y-93780315D01*
X82430813Y-93780311D01*
X82295967Y-93730017D01*
X82295968Y-93730017D01*
X82236368Y-93723610D01*
X82236366Y-93723609D01*
X82236358Y-93723609D01*
X82236349Y-93723609D01*
X80440614Y-93723609D01*
X80440608Y-93723610D01*
X80381001Y-93730017D01*
X80246156Y-93780311D01*
X80246149Y-93780315D01*
X80130940Y-93866561D01*
X80130937Y-93866564D01*
X80044691Y-93981773D01*
X80044687Y-93981780D01*
X79994393Y-94116626D01*
X79987986Y-94176225D01*
X79987986Y-94176232D01*
X79987985Y-94176244D01*
X76758985Y-94176244D01*
X76758985Y-93528609D01*
X77756985Y-93528609D01*
X78508985Y-93528609D01*
X84506985Y-93528609D01*
X86008985Y-93528609D01*
X87006985Y-93528609D01*
X88508985Y-93528609D01*
X89506985Y-93528609D01*
X91008985Y-93528609D01*
X91008985Y-93312158D01*
X92006985Y-93312158D01*
X93292535Y-92026609D01*
X92006985Y-92026609D01*
X92006985Y-93312158D01*
X91008985Y-93312158D01*
X91008985Y-92026609D01*
X89506985Y-92026609D01*
X89506985Y-93528609D01*
X88508985Y-93528609D01*
X88508985Y-92026609D01*
X87006985Y-92026609D01*
X87006985Y-93528609D01*
X86008985Y-93528609D01*
X86008985Y-92026609D01*
X84506985Y-92026609D01*
X84506985Y-93528609D01*
X78508985Y-93528609D01*
X78508985Y-93086993D01*
X79506985Y-93086993D01*
X79676611Y-92960011D01*
X79683881Y-92954963D01*
X79728948Y-92925999D01*
X79736562Y-92921481D01*
X79799152Y-92887304D01*
X79807066Y-92883342D01*
X79855803Y-92861084D01*
X79863983Y-92857696D01*
X80061467Y-92784040D01*
X80068806Y-92781561D01*
X80113657Y-92767956D01*
X80121133Y-92765941D01*
X80181848Y-92751593D01*
X80189440Y-92750048D01*
X80235645Y-92742137D01*
X80243318Y-92741068D01*
X80347240Y-92729897D01*
X80350549Y-92729586D01*
X80370586Y-92727974D01*
X80373898Y-92727752D01*
X80400580Y-92726323D01*
X80403898Y-92726190D01*
X80423949Y-92725654D01*
X80427263Y-92725610D01*
X81008985Y-92725609D01*
X82006985Y-92725609D01*
X82249733Y-92725609D01*
X82253057Y-92725654D01*
X82273158Y-92726193D01*
X82276478Y-92726326D01*
X82303165Y-92727758D01*
X82306474Y-92727980D01*
X82326467Y-92729590D01*
X82329770Y-92729901D01*
X82433660Y-92741071D01*
X82441328Y-92742138D01*
X82487514Y-92750045D01*
X82495104Y-92751590D01*
X82555815Y-92765935D01*
X82563294Y-92767951D01*
X82608157Y-92781559D01*
X82615497Y-92784038D01*
X82812987Y-92857696D01*
X82821167Y-92861084D01*
X82869904Y-92883342D01*
X82877818Y-92887304D01*
X82940408Y-92921481D01*
X82948022Y-92925999D01*
X82993089Y-92954963D01*
X83000359Y-92960011D01*
X83172658Y-93088995D01*
X83179549Y-93094548D01*
X83220034Y-93129628D01*
X83226513Y-93135660D01*
X83276934Y-93186081D01*
X83282966Y-93192560D01*
X83318046Y-93233045D01*
X83323599Y-93239936D01*
X83452583Y-93412235D01*
X83457631Y-93419505D01*
X83486595Y-93464572D01*
X83491113Y-93472186D01*
X83508985Y-93504915D01*
X83508985Y-92026609D01*
X82006985Y-92026609D01*
X82006985Y-92725609D01*
X81008985Y-92725609D01*
X81008985Y-92026609D01*
X79506985Y-92026609D01*
X79506985Y-93086993D01*
X78508985Y-93086993D01*
X78508985Y-92026609D01*
X77756985Y-92026609D01*
X77756985Y-93528609D01*
X76758985Y-93528609D01*
X76758985Y-91028609D01*
X77756985Y-91028609D01*
X78508985Y-91028609D01*
X79506985Y-91028609D01*
X81008985Y-91028609D01*
X82006985Y-91028609D01*
X83508985Y-91028609D01*
X84506985Y-91028609D01*
X86008985Y-91028609D01*
X87006985Y-91028609D01*
X88508985Y-91028609D01*
X89506985Y-91028609D01*
X90609857Y-91028609D01*
X90588524Y-91002615D01*
X90584779Y-90997817D01*
X90562847Y-90968245D01*
X90559343Y-90963269D01*
X90458373Y-90812158D01*
X94506985Y-90812158D01*
X95792534Y-89526609D01*
X94506985Y-89526609D01*
X94506985Y-90812158D01*
X90458373Y-90812158D01*
X90433566Y-90775032D01*
X90430309Y-90769888D01*
X90411373Y-90738294D01*
X90408373Y-90732999D01*
X90385271Y-90689777D01*
X90382534Y-90684338D01*
X90366794Y-90651056D01*
X90364329Y-90645495D01*
X90277699Y-90436349D01*
X90275509Y-90430672D01*
X90263110Y-90396020D01*
X90261202Y-90390245D01*
X90246975Y-90343352D01*
X90245351Y-90337484D01*
X90236399Y-90301749D01*
X90235065Y-90295808D01*
X90190896Y-90073757D01*
X90189855Y-90067760D01*
X90184451Y-90031329D01*
X90183706Y-90025288D01*
X90178903Y-89976516D01*
X90178455Y-89970446D01*
X90176649Y-89933674D01*
X90176500Y-89927591D01*
X90176500Y-89725704D01*
X91174500Y-89725704D01*
X91174500Y-89903095D01*
X91209103Y-90077058D01*
X91209106Y-90077067D01*
X91276983Y-90240940D01*
X91276990Y-90240953D01*
X91375535Y-90388434D01*
X91375538Y-90388438D01*
X91500961Y-90513861D01*
X91500965Y-90513864D01*
X91648446Y-90612409D01*
X91648459Y-90612416D01*
X91765703Y-90660979D01*
X91812334Y-90680294D01*
X91812336Y-90680294D01*
X91812341Y-90680296D01*
X91986304Y-90714899D01*
X91986307Y-90714900D01*
X91986309Y-90714900D01*
X92163693Y-90714900D01*
X92163694Y-90714899D01*
X92239669Y-90699787D01*
X92337658Y-90680296D01*
X92337661Y-90680294D01*
X92337666Y-90680294D01*
X92501547Y-90612413D01*
X92649035Y-90513864D01*
X92774464Y-90388435D01*
X92873013Y-90240947D01*
X92873451Y-90239891D01*
X92916423Y-90136145D01*
X92940894Y-90077066D01*
X92941553Y-90073757D01*
X92966606Y-89947806D01*
X92975500Y-89903091D01*
X92975500Y-89725709D01*
X92975500Y-89725706D01*
X92975499Y-89725704D01*
X92940896Y-89551741D01*
X92940893Y-89551732D01*
X92873016Y-89387859D01*
X92873009Y-89387846D01*
X92774464Y-89240365D01*
X92774461Y-89240361D01*
X92649038Y-89114938D01*
X92649034Y-89114935D01*
X92501553Y-89016390D01*
X92501540Y-89016383D01*
X92337667Y-88948506D01*
X92337658Y-88948503D01*
X92163694Y-88913900D01*
X92163691Y-88913900D01*
X91986309Y-88913900D01*
X91986306Y-88913900D01*
X91812341Y-88948503D01*
X91812332Y-88948506D01*
X91648459Y-89016383D01*
X91648446Y-89016390D01*
X91500965Y-89114935D01*
X91500961Y-89114938D01*
X91375538Y-89240361D01*
X91375535Y-89240365D01*
X91276990Y-89387846D01*
X91276983Y-89387859D01*
X91209106Y-89551732D01*
X91209103Y-89551741D01*
X91174500Y-89725704D01*
X90176500Y-89725704D01*
X90176500Y-89701209D01*
X90176649Y-89695126D01*
X90178455Y-89658354D01*
X90178903Y-89652284D01*
X90183706Y-89603512D01*
X90184451Y-89597471D01*
X90189855Y-89561040D01*
X90190896Y-89555043D01*
X90196552Y-89526609D01*
X89506985Y-89526609D01*
X89506985Y-91028609D01*
X88508985Y-91028609D01*
X88508985Y-89526609D01*
X87006985Y-89526609D01*
X87006985Y-91028609D01*
X86008985Y-91028609D01*
X86008985Y-89526609D01*
X84506985Y-89526609D01*
X84506985Y-91028609D01*
X83508985Y-91028609D01*
X83508985Y-89526609D01*
X82006985Y-89526609D01*
X82006985Y-91028609D01*
X81008985Y-91028609D01*
X81008985Y-89526609D01*
X79506985Y-89526609D01*
X79506985Y-91028609D01*
X78508985Y-91028609D01*
X78508985Y-89526609D01*
X77756985Y-89526609D01*
X77756985Y-91028609D01*
X76758985Y-91028609D01*
X76758985Y-88528609D01*
X77756985Y-88528609D01*
X78508985Y-88528609D01*
X79506985Y-88528609D01*
X81008985Y-88528609D01*
X82006985Y-88528609D01*
X83508985Y-88528609D01*
X84506985Y-88528609D01*
X86008985Y-88528609D01*
X87006985Y-88528609D01*
X88508985Y-88528609D01*
X88508985Y-88243741D01*
X88503166Y-88235033D01*
X88499909Y-88229888D01*
X88480973Y-88198294D01*
X88477973Y-88192999D01*
X88454871Y-88149777D01*
X88452134Y-88144338D01*
X88436394Y-88111056D01*
X88433929Y-88105495D01*
X88347299Y-87896349D01*
X88345109Y-87890672D01*
X88332710Y-87856020D01*
X88330802Y-87850245D01*
X88316575Y-87803352D01*
X88314951Y-87797484D01*
X88305999Y-87761749D01*
X88304665Y-87755808D01*
X88260496Y-87533757D01*
X88259455Y-87527760D01*
X88254051Y-87491329D01*
X88253306Y-87485288D01*
X88248503Y-87436516D01*
X88248055Y-87430446D01*
X88246249Y-87393674D01*
X88246100Y-87387591D01*
X88246100Y-87185704D01*
X89244100Y-87185704D01*
X89244100Y-87363095D01*
X89278703Y-87537058D01*
X89278706Y-87537067D01*
X89346583Y-87700940D01*
X89346590Y-87700953D01*
X89445135Y-87848434D01*
X89445138Y-87848438D01*
X89570561Y-87973861D01*
X89570565Y-87973864D01*
X89718046Y-88072409D01*
X89718059Y-88072416D01*
X89811346Y-88111056D01*
X89881934Y-88140294D01*
X89881936Y-88140294D01*
X89881941Y-88140296D01*
X90055904Y-88174899D01*
X90055907Y-88174900D01*
X90055909Y-88174900D01*
X90233293Y-88174900D01*
X90233294Y-88174899D01*
X90291282Y-88163364D01*
X90407258Y-88140296D01*
X90407261Y-88140294D01*
X90407266Y-88140294D01*
X90548147Y-88081940D01*
X90571140Y-88072416D01*
X90571140Y-88072415D01*
X90571147Y-88072413D01*
X90718635Y-87973864D01*
X90844064Y-87848435D01*
X90942613Y-87700947D01*
X90947804Y-87688416D01*
X90955167Y-87670638D01*
X90966638Y-87642944D01*
X92006985Y-87642944D01*
X92006985Y-87915900D01*
X92188191Y-87915900D01*
X92194274Y-87916049D01*
X92231046Y-87917855D01*
X92237116Y-87918303D01*
X92285888Y-87923106D01*
X92291929Y-87923851D01*
X92328360Y-87929255D01*
X92334357Y-87930296D01*
X92556408Y-87974465D01*
X92562349Y-87975799D01*
X92598084Y-87984751D01*
X92603952Y-87986375D01*
X92650845Y-88000602D01*
X92656620Y-88002510D01*
X92691272Y-88014909D01*
X92696949Y-88017099D01*
X92906095Y-88103729D01*
X92911656Y-88106194D01*
X92944938Y-88121934D01*
X92950377Y-88124671D01*
X92993599Y-88147773D01*
X92998894Y-88150773D01*
X93030488Y-88169709D01*
X93035632Y-88172966D01*
X93223869Y-88298743D01*
X93228845Y-88302247D01*
X93258417Y-88324179D01*
X93263215Y-88327924D01*
X93301097Y-88359013D01*
X93305704Y-88362987D01*
X93332991Y-88387718D01*
X93337400Y-88391916D01*
X93474093Y-88528609D01*
X93508985Y-88528609D01*
X93508985Y-87424650D01*
X94506985Y-87424650D01*
X94506985Y-88528609D01*
X96008985Y-88528609D01*
X96008985Y-87133271D01*
X95888117Y-87214034D01*
X95882973Y-87217291D01*
X95851379Y-87236227D01*
X95846084Y-87239227D01*
X95802862Y-87262329D01*
X95797423Y-87265066D01*
X95764141Y-87280806D01*
X95758580Y-87283271D01*
X95549434Y-87369901D01*
X95543757Y-87372091D01*
X95509105Y-87384490D01*
X95503330Y-87386398D01*
X95456437Y-87400625D01*
X95450569Y-87402249D01*
X95414834Y-87411201D01*
X95408893Y-87412535D01*
X95186842Y-87456704D01*
X95180845Y-87457745D01*
X95144414Y-87463149D01*
X95138373Y-87463894D01*
X95089601Y-87468697D01*
X95083531Y-87469145D01*
X95046759Y-87470951D01*
X95040676Y-87471100D01*
X94814294Y-87471100D01*
X94808211Y-87470951D01*
X94771439Y-87469145D01*
X94765369Y-87468697D01*
X94716597Y-87463894D01*
X94710556Y-87463149D01*
X94674125Y-87457745D01*
X94668128Y-87456704D01*
X94506985Y-87424650D01*
X93508985Y-87424650D01*
X93508985Y-87026609D01*
X92030571Y-87026609D01*
X92035149Y-87057471D01*
X92035894Y-87063512D01*
X92040697Y-87112284D01*
X92041145Y-87118354D01*
X92042951Y-87155126D01*
X92043100Y-87161209D01*
X92043100Y-87387591D01*
X92042951Y-87393674D01*
X92041145Y-87430446D01*
X92040697Y-87436516D01*
X92035894Y-87485288D01*
X92035149Y-87491329D01*
X92029745Y-87527760D01*
X92028704Y-87533757D01*
X92006985Y-87642944D01*
X90966638Y-87642944D01*
X91010494Y-87537066D01*
X91011153Y-87533757D01*
X91035530Y-87411201D01*
X91045100Y-87363091D01*
X91045100Y-87185709D01*
X91045100Y-87185706D01*
X91045099Y-87185704D01*
X91010496Y-87011741D01*
X91010493Y-87011732D01*
X91008909Y-87007909D01*
X90993523Y-86970763D01*
X90942616Y-86847859D01*
X90942609Y-86847846D01*
X90844064Y-86700365D01*
X90844061Y-86700361D01*
X90718638Y-86574938D01*
X90718634Y-86574935D01*
X90571153Y-86476390D01*
X90571140Y-86476383D01*
X90407267Y-86408506D01*
X90407258Y-86408503D01*
X90233294Y-86373900D01*
X90233291Y-86373900D01*
X90055909Y-86373900D01*
X90055906Y-86373900D01*
X89881941Y-86408503D01*
X89881932Y-86408506D01*
X89718059Y-86476383D01*
X89718046Y-86476390D01*
X89570565Y-86574935D01*
X89570561Y-86574938D01*
X89445138Y-86700361D01*
X89445135Y-86700365D01*
X89346590Y-86847846D01*
X89346583Y-86847859D01*
X89278706Y-87011732D01*
X89278703Y-87011741D01*
X89244100Y-87185704D01*
X88246100Y-87185704D01*
X88246100Y-87161209D01*
X88246249Y-87155126D01*
X88248055Y-87118354D01*
X88248503Y-87112284D01*
X88253306Y-87063512D01*
X88254051Y-87057471D01*
X88258629Y-87026609D01*
X87006985Y-87026609D01*
X87006985Y-88528609D01*
X86008985Y-88528609D01*
X86008985Y-87026609D01*
X84506985Y-87026609D01*
X84506985Y-88528609D01*
X83508985Y-88528609D01*
X83508985Y-87026609D01*
X82006985Y-87026609D01*
X82006985Y-88528609D01*
X81008985Y-88528609D01*
X81008985Y-87026609D01*
X79506985Y-87026609D01*
X79506985Y-88528609D01*
X78508985Y-88528609D01*
X78508985Y-87026609D01*
X77756985Y-87026609D01*
X77756985Y-88528609D01*
X76758985Y-88528609D01*
X76758985Y-86028609D01*
X77756985Y-86028609D01*
X78508985Y-86028609D01*
X79506985Y-86028609D01*
X81008985Y-86028609D01*
X82006985Y-86028609D01*
X83508985Y-86028609D01*
X84506985Y-86028609D01*
X86008985Y-86028609D01*
X87006985Y-86028609D01*
X88017325Y-86028609D01*
X92006985Y-86028609D01*
X93082498Y-86028609D01*
X93043381Y-85831957D01*
X93042340Y-85825960D01*
X93036936Y-85789529D01*
X93036191Y-85783488D01*
X93031388Y-85734716D01*
X93030940Y-85728646D01*
X93029134Y-85691874D01*
X93028985Y-85685791D01*
X93028985Y-85459409D01*
X93029134Y-85453326D01*
X93030940Y-85416554D01*
X93031388Y-85410484D01*
X93036191Y-85361712D01*
X93036936Y-85355671D01*
X93042340Y-85319240D01*
X93043381Y-85313243D01*
X93087550Y-85091192D01*
X93088884Y-85085251D01*
X93097836Y-85049516D01*
X93099460Y-85043648D01*
X93113687Y-84996755D01*
X93115595Y-84990980D01*
X93127994Y-84956328D01*
X93130184Y-84950651D01*
X93216814Y-84741505D01*
X93219279Y-84735944D01*
X93235019Y-84702662D01*
X93237756Y-84697223D01*
X93260858Y-84654001D01*
X93263858Y-84648706D01*
X93282794Y-84617112D01*
X93286051Y-84611968D01*
X93343087Y-84526609D01*
X92006985Y-84526609D01*
X92006985Y-86028609D01*
X88017325Y-86028609D01*
X87934716Y-85946000D01*
X87930518Y-85941591D01*
X87905787Y-85914304D01*
X87901813Y-85909697D01*
X87870724Y-85871815D01*
X87866979Y-85867017D01*
X87845047Y-85837445D01*
X87841543Y-85832469D01*
X87715766Y-85644232D01*
X87712509Y-85639088D01*
X87693573Y-85607494D01*
X87690573Y-85602199D01*
X87667471Y-85558977D01*
X87664734Y-85553538D01*
X87648994Y-85520256D01*
X87646529Y-85514695D01*
X87559899Y-85305549D01*
X87557709Y-85299872D01*
X87545310Y-85265220D01*
X87543402Y-85259445D01*
X87529175Y-85212552D01*
X87527551Y-85206684D01*
X87518599Y-85170949D01*
X87517265Y-85165008D01*
X87473096Y-84942957D01*
X87472055Y-84936960D01*
X87466651Y-84900529D01*
X87465906Y-84894488D01*
X87461103Y-84845716D01*
X87460655Y-84839646D01*
X87458849Y-84802874D01*
X87458700Y-84796791D01*
X87458700Y-84594904D01*
X88456700Y-84594904D01*
X88456700Y-84772295D01*
X88491303Y-84946258D01*
X88491306Y-84946267D01*
X88559183Y-85110140D01*
X88559190Y-85110153D01*
X88657735Y-85257634D01*
X88657738Y-85257638D01*
X88783161Y-85383061D01*
X88783165Y-85383064D01*
X88930646Y-85481609D01*
X88930659Y-85481616D01*
X89023946Y-85520256D01*
X89094534Y-85549494D01*
X89094536Y-85549494D01*
X89094541Y-85549496D01*
X89268504Y-85584099D01*
X89268507Y-85584100D01*
X89268509Y-85584100D01*
X89445893Y-85584100D01*
X89445894Y-85584099D01*
X89503882Y-85572564D01*
X89619858Y-85549496D01*
X89619861Y-85549494D01*
X89619866Y-85549494D01*
X89783747Y-85481613D01*
X89931235Y-85383064D01*
X90056664Y-85257635D01*
X90155213Y-85110147D01*
X90223094Y-84946266D01*
X90223753Y-84942957D01*
X90252621Y-84797825D01*
X90257700Y-84772291D01*
X90257700Y-84594909D01*
X90257700Y-84594906D01*
X90257699Y-84594904D01*
X90223096Y-84420941D01*
X90223093Y-84420932D01*
X90221024Y-84415938D01*
X90198928Y-84362591D01*
X90155216Y-84257059D01*
X90155209Y-84257046D01*
X90056664Y-84109565D01*
X90056661Y-84109561D01*
X89931238Y-83984138D01*
X89931234Y-83984135D01*
X89783753Y-83885590D01*
X89783740Y-83885583D01*
X89619867Y-83817706D01*
X89619858Y-83817703D01*
X89445894Y-83783100D01*
X89445891Y-83783100D01*
X89268509Y-83783100D01*
X89268506Y-83783100D01*
X89094541Y-83817703D01*
X89094532Y-83817706D01*
X88930659Y-83885583D01*
X88930646Y-83885590D01*
X88783165Y-83984135D01*
X88783161Y-83984138D01*
X88657738Y-84109561D01*
X88657735Y-84109565D01*
X88559190Y-84257046D01*
X88559183Y-84257059D01*
X88491306Y-84420932D01*
X88491303Y-84420941D01*
X88456700Y-84594904D01*
X87458700Y-84594904D01*
X87458700Y-84570409D01*
X87458849Y-84564326D01*
X87460655Y-84527554D01*
X87460725Y-84526609D01*
X87006985Y-84526609D01*
X87006985Y-86028609D01*
X86008985Y-86028609D01*
X86008985Y-84526609D01*
X84506985Y-84526609D01*
X84506985Y-86028609D01*
X83508985Y-86028609D01*
X83508985Y-84526609D01*
X82006985Y-84526609D01*
X82006985Y-86028609D01*
X81008985Y-86028609D01*
X81008985Y-84526609D01*
X79506985Y-84526609D01*
X79506985Y-86028609D01*
X78508985Y-86028609D01*
X78508985Y-84526609D01*
X77756985Y-84526609D01*
X77756985Y-86028609D01*
X76758985Y-86028609D01*
X76758985Y-83528609D01*
X77756985Y-83528609D01*
X78508985Y-83528609D01*
X79506985Y-83528609D01*
X81008985Y-83528609D01*
X82006985Y-83528609D01*
X83508985Y-83528609D01*
X84506985Y-83528609D01*
X86008985Y-83528609D01*
X87006985Y-83528609D01*
X87845897Y-83528609D01*
X87866979Y-83500183D01*
X87870724Y-83495385D01*
X87901813Y-83457503D01*
X87905787Y-83452896D01*
X87930518Y-83425609D01*
X87934716Y-83421200D01*
X88094800Y-83261116D01*
X88099209Y-83256918D01*
X88126496Y-83232187D01*
X88131103Y-83228213D01*
X88168985Y-83197124D01*
X88173783Y-83193379D01*
X88203355Y-83171447D01*
X88208331Y-83167943D01*
X88396568Y-83042166D01*
X88401712Y-83038909D01*
X88433306Y-83019973D01*
X88438601Y-83016973D01*
X88481823Y-82993871D01*
X88487262Y-82991134D01*
X88508985Y-82980860D01*
X88508985Y-82786747D01*
X89506985Y-82786747D01*
X89513246Y-82787055D01*
X89519316Y-82787503D01*
X89568088Y-82792306D01*
X89574129Y-82793051D01*
X89610560Y-82798455D01*
X89616557Y-82799496D01*
X89838608Y-82843665D01*
X89844549Y-82844999D01*
X89880284Y-82853951D01*
X89886152Y-82855575D01*
X89933045Y-82869802D01*
X89938820Y-82871710D01*
X89973472Y-82884109D01*
X89979149Y-82886299D01*
X90188295Y-82972929D01*
X90193856Y-82975394D01*
X90227138Y-82991134D01*
X90232577Y-82993871D01*
X90275799Y-83016973D01*
X90281094Y-83019973D01*
X90312688Y-83038909D01*
X90317832Y-83042166D01*
X90506069Y-83167943D01*
X90511045Y-83171447D01*
X90540617Y-83193379D01*
X90545415Y-83197124D01*
X90583297Y-83228213D01*
X90587904Y-83232187D01*
X90615191Y-83256918D01*
X90619600Y-83261116D01*
X90779684Y-83421200D01*
X90783882Y-83425609D01*
X90808613Y-83452896D01*
X90812587Y-83457503D01*
X90843676Y-83495385D01*
X90847421Y-83500183D01*
X90868503Y-83528609D01*
X91008985Y-83528609D01*
X91008985Y-83421733D01*
X90940314Y-83327216D01*
X90930147Y-83310626D01*
X90847968Y-83149342D01*
X90840522Y-83131365D01*
X90784586Y-82959210D01*
X90780044Y-82940290D01*
X90751727Y-82761505D01*
X90750200Y-82742107D01*
X90750200Y-82561093D01*
X90751727Y-82541695D01*
X90780044Y-82362910D01*
X90784586Y-82343990D01*
X90840522Y-82171835D01*
X90847968Y-82153858D01*
X90912805Y-82026609D01*
X89506985Y-82026609D01*
X89506985Y-82786747D01*
X88508985Y-82786747D01*
X88508985Y-82026609D01*
X87006985Y-82026609D01*
X87006985Y-83528609D01*
X86008985Y-83528609D01*
X86008985Y-82026609D01*
X84506985Y-82026609D01*
X84506985Y-83528609D01*
X83508985Y-83528609D01*
X83508985Y-82026609D01*
X82006985Y-82026609D01*
X82006985Y-83528609D01*
X81008985Y-83528609D01*
X81008985Y-82026609D01*
X79506985Y-82026609D01*
X79506985Y-83528609D01*
X78508985Y-83528609D01*
X78508985Y-82026609D01*
X77756985Y-82026609D01*
X77756985Y-83528609D01*
X76758985Y-83528609D01*
X76758985Y-81004688D01*
X79506985Y-81004688D01*
X79506985Y-81028609D01*
X81008985Y-81028609D01*
X82006985Y-81028609D01*
X83508985Y-81028609D01*
X84506985Y-81028609D01*
X86008985Y-81028609D01*
X87006985Y-81028609D01*
X88508985Y-81028609D01*
X89506985Y-81028609D01*
X90688704Y-81028609D01*
X90686903Y-81010316D01*
X90686455Y-81004246D01*
X90684649Y-80967474D01*
X90684500Y-80961391D01*
X90684500Y-80759504D01*
X91682500Y-80759504D01*
X91682500Y-80936895D01*
X91717103Y-81110858D01*
X91717106Y-81110867D01*
X91784983Y-81274740D01*
X91784990Y-81274753D01*
X91883535Y-81422234D01*
X91883538Y-81422238D01*
X92008961Y-81547661D01*
X92008965Y-81547664D01*
X92156446Y-81646209D01*
X92156459Y-81646216D01*
X92279363Y-81697123D01*
X92320334Y-81714094D01*
X92320336Y-81714094D01*
X92320341Y-81714096D01*
X92494304Y-81748699D01*
X92494307Y-81748700D01*
X92494309Y-81748700D01*
X92671693Y-81748700D01*
X92671694Y-81748699D01*
X92747096Y-81733701D01*
X92845658Y-81714096D01*
X92845661Y-81714094D01*
X92845666Y-81714094D01*
X92985535Y-81656158D01*
X93009540Y-81646216D01*
X93009540Y-81646215D01*
X93009547Y-81646213D01*
X93157035Y-81547664D01*
X93282464Y-81422235D01*
X93381013Y-81274747D01*
X93448894Y-81110866D01*
X93469644Y-81006552D01*
X93477941Y-80964836D01*
X93483500Y-80936891D01*
X93483500Y-80759509D01*
X93483500Y-80759506D01*
X93483499Y-80759504D01*
X93448896Y-80585541D01*
X93448893Y-80585532D01*
X93381016Y-80421659D01*
X93381009Y-80421646D01*
X93282464Y-80274165D01*
X93282461Y-80274161D01*
X93157038Y-80148738D01*
X93157034Y-80148735D01*
X93009553Y-80050190D01*
X93009540Y-80050183D01*
X92845667Y-79982306D01*
X92845658Y-79982303D01*
X92671694Y-79947700D01*
X92671691Y-79947700D01*
X92494309Y-79947700D01*
X92494306Y-79947700D01*
X92320341Y-79982303D01*
X92320332Y-79982306D01*
X92156459Y-80050183D01*
X92156446Y-80050190D01*
X92008965Y-80148735D01*
X92008961Y-80148738D01*
X91883538Y-80274161D01*
X91883535Y-80274165D01*
X91784990Y-80421646D01*
X91784983Y-80421659D01*
X91717106Y-80585532D01*
X91717103Y-80585541D01*
X91682500Y-80759504D01*
X90684500Y-80759504D01*
X90684500Y-80735009D01*
X90684649Y-80728926D01*
X90686455Y-80692154D01*
X90686903Y-80686084D01*
X90691706Y-80637312D01*
X90692451Y-80631271D01*
X90697855Y-80594840D01*
X90698896Y-80588843D01*
X90743065Y-80366792D01*
X90744399Y-80360851D01*
X90753351Y-80325116D01*
X90754975Y-80319248D01*
X90769202Y-80272355D01*
X90771110Y-80266580D01*
X90783509Y-80231928D01*
X90785699Y-80226251D01*
X90872329Y-80017105D01*
X90874794Y-80011544D01*
X90890534Y-79978262D01*
X90893271Y-79972823D01*
X90916373Y-79929601D01*
X90919373Y-79924306D01*
X90938309Y-79892712D01*
X90941566Y-79887568D01*
X91008985Y-79786668D01*
X91008985Y-79526609D01*
X89506985Y-79526609D01*
X89506985Y-81028609D01*
X88508985Y-81028609D01*
X88508985Y-79526609D01*
X87006985Y-79526609D01*
X87006985Y-81028609D01*
X86008985Y-81028609D01*
X86008985Y-79526609D01*
X84506985Y-79526609D01*
X84506985Y-81028609D01*
X83508985Y-81028609D01*
X83508985Y-79526609D01*
X82006985Y-79526609D01*
X82006985Y-81028609D01*
X81008985Y-81028609D01*
X81008985Y-79526609D01*
X80985065Y-79526609D01*
X80946805Y-79644359D01*
X80945212Y-79648953D01*
X80935028Y-79676562D01*
X80933255Y-79681093D01*
X80918257Y-79717309D01*
X80916303Y-79721776D01*
X80903960Y-79748552D01*
X80901834Y-79752936D01*
X80791099Y-79970264D01*
X80788804Y-79974557D01*
X80774414Y-80000253D01*
X80771952Y-80004453D01*
X80751471Y-80037876D01*
X80748846Y-80041978D01*
X80732480Y-80066472D01*
X80729695Y-80070467D01*
X80586322Y-80267805D01*
X80583379Y-80271693D01*
X80565120Y-80294852D01*
X80562030Y-80298617D01*
X80536569Y-80328424D01*
X80533335Y-80332063D01*
X80513361Y-80353668D01*
X80509991Y-80357172D01*
X80337548Y-80529615D01*
X80334044Y-80532985D01*
X80312439Y-80552959D01*
X80308800Y-80556193D01*
X80278993Y-80581654D01*
X80275228Y-80584744D01*
X80252069Y-80603003D01*
X80248181Y-80605946D01*
X80050843Y-80749319D01*
X80046848Y-80752104D01*
X80022354Y-80768470D01*
X80018252Y-80771095D01*
X79984829Y-80791576D01*
X79980629Y-80794038D01*
X79954933Y-80808428D01*
X79950640Y-80810723D01*
X79733312Y-80921458D01*
X79728928Y-80923584D01*
X79702152Y-80935927D01*
X79697685Y-80937881D01*
X79661469Y-80952879D01*
X79656938Y-80954652D01*
X79629329Y-80964836D01*
X79624734Y-80966429D01*
X79506985Y-81004688D01*
X76758985Y-81004688D01*
X76758985Y-78715757D01*
X77497985Y-78715757D01*
X77497985Y-78920460D01*
X77530007Y-79122643D01*
X77593266Y-79317332D01*
X77686200Y-79499722D01*
X77806513Y-79665322D01*
X77951271Y-79810080D01*
X78106234Y-79922665D01*
X78116875Y-79930396D01*
X78218748Y-79982303D01*
X78299261Y-80023327D01*
X78299263Y-80023327D01*
X78299266Y-80023329D01*
X78381936Y-80050190D01*
X78493950Y-80086586D01*
X78576060Y-80099591D01*
X78696133Y-80118609D01*
X78696134Y-80118609D01*
X78900836Y-80118609D01*
X78900837Y-80118609D01*
X79103019Y-80086586D01*
X79297704Y-80023329D01*
X79480095Y-79930396D01*
X79573075Y-79862841D01*
X79645698Y-79810080D01*
X79645700Y-79810077D01*
X79645704Y-79810075D01*
X79790451Y-79665328D01*
X79790453Y-79665324D01*
X79790456Y-79665322D01*
X79880733Y-79541064D01*
X79910772Y-79499719D01*
X80003705Y-79317328D01*
X80066962Y-79122643D01*
X80098985Y-78920461D01*
X80098985Y-78715757D01*
X80069343Y-78528609D01*
X82006985Y-78528609D01*
X83508985Y-78528609D01*
X84506985Y-78528609D01*
X86008985Y-78528609D01*
X87006985Y-78528609D01*
X88508985Y-78528609D01*
X89506985Y-78528609D01*
X91008985Y-78528609D01*
X92006985Y-78528609D01*
X93508985Y-78528609D01*
X93508985Y-77776609D01*
X97439731Y-77776609D01*
X97526434Y-77906368D01*
X97529691Y-77911512D01*
X97548627Y-77943106D01*
X97551627Y-77948401D01*
X97574729Y-77991623D01*
X97577466Y-77997062D01*
X97593206Y-78030344D01*
X97595671Y-78035905D01*
X97682301Y-78245051D01*
X97684491Y-78250728D01*
X97696890Y-78285380D01*
X97698798Y-78291155D01*
X97713025Y-78338048D01*
X97714649Y-78343916D01*
X97723601Y-78379651D01*
X97724935Y-78385592D01*
X97753383Y-78528609D01*
X98508985Y-78528609D01*
X99506985Y-78528609D01*
X101008985Y-78528609D01*
X101008985Y-77776609D01*
X99506985Y-77776609D01*
X99506985Y-78528609D01*
X98508985Y-78528609D01*
X98508985Y-77776609D01*
X97439731Y-77776609D01*
X93508985Y-77776609D01*
X92006985Y-77776609D01*
X92006985Y-78528609D01*
X91008985Y-78528609D01*
X91008985Y-77776609D01*
X89506985Y-77776609D01*
X89506985Y-78528609D01*
X88508985Y-78528609D01*
X88508985Y-77776609D01*
X87006985Y-77776609D01*
X87006985Y-78528609D01*
X86008985Y-78528609D01*
X86008985Y-77776609D01*
X84506985Y-77776609D01*
X84506985Y-78528609D01*
X83508985Y-78528609D01*
X83508985Y-77776609D01*
X82006985Y-77776609D01*
X82006985Y-78528609D01*
X80069343Y-78528609D01*
X80066962Y-78513575D01*
X80003705Y-78318890D01*
X80003703Y-78318887D01*
X80003703Y-78318885D01*
X79966082Y-78245051D01*
X79910772Y-78136499D01*
X79903041Y-78125858D01*
X79790456Y-77970895D01*
X79645698Y-77826137D01*
X79480098Y-77705824D01*
X79480097Y-77705823D01*
X79480095Y-77705822D01*
X79423138Y-77676800D01*
X79297708Y-77612890D01*
X79103019Y-77549631D01*
X78928480Y-77521987D01*
X78900837Y-77517609D01*
X78696133Y-77517609D01*
X78671814Y-77521460D01*
X78493950Y-77549631D01*
X78299261Y-77612890D01*
X78116871Y-77705824D01*
X77951271Y-77826137D01*
X77806513Y-77970895D01*
X77686200Y-78136495D01*
X77593266Y-78318885D01*
X77530007Y-78513574D01*
X77497985Y-78715757D01*
X76758985Y-78715757D01*
X76758985Y-76902609D01*
X76778670Y-76835570D01*
X76831474Y-76789815D01*
X76882985Y-76778609D01*
X125798985Y-76778609D01*
X125866024Y-76798294D01*
G37*
%TD.AperFunction*%
%TA.AperFunction,Conductor*%
G36*
X103224560Y-104919102D02*
G01*
X103290386Y-105033116D01*
X103383478Y-105126208D01*
X103497492Y-105192034D01*
X103561075Y-105209071D01*
X102928767Y-105841378D01*
X102928767Y-105841379D01*
X102982934Y-105880733D01*
X103172267Y-105977204D01*
X103290677Y-106015678D01*
X103348353Y-106055115D01*
X103375551Y-106119474D01*
X103363636Y-106188320D01*
X103316392Y-106239796D01*
X103252359Y-106257609D01*
X101590226Y-106257609D01*
X101523187Y-106237924D01*
X101477432Y-106185120D01*
X101467488Y-106115962D01*
X101496513Y-106052406D01*
X101551907Y-106015678D01*
X101668897Y-105977666D01*
X101858301Y-105881160D01*
X101944623Y-105818444D01*
X102030271Y-105756218D01*
X102030273Y-105756215D01*
X102030277Y-105756213D01*
X102180589Y-105605901D01*
X102180591Y-105605897D01*
X102180594Y-105605895D01*
X102266375Y-105487826D01*
X102305536Y-105433925D01*
X102310278Y-105424617D01*
X102358248Y-105373820D01*
X102426068Y-105357020D01*
X102492204Y-105379554D01*
X102531248Y-105424609D01*
X102535858Y-105433656D01*
X102575213Y-105487825D01*
X103207522Y-104855517D01*
X103224560Y-104919102D01*
G37*
%TD.AperFunction*%
%TA.AperFunction,Conductor*%
G36*
X112124560Y-104894102D02*
G01*
X112190386Y-105008116D01*
X112283478Y-105101208D01*
X112397492Y-105167034D01*
X112461075Y-105184071D01*
X111828767Y-105816378D01*
X111828767Y-105816379D01*
X111882934Y-105855733D01*
X112072267Y-105952204D01*
X112267620Y-106015678D01*
X112325295Y-106055115D01*
X112352494Y-106119474D01*
X112340579Y-106188320D01*
X112293335Y-106239796D01*
X112229302Y-106257609D01*
X111125765Y-106257609D01*
X111058726Y-106237924D01*
X111012971Y-106185120D01*
X111003027Y-106115962D01*
X111032052Y-106052406D01*
X111082432Y-106017427D01*
X111142813Y-105994906D01*
X111142812Y-105994906D01*
X111142816Y-105994905D01*
X111258031Y-105908655D01*
X111344281Y-105793440D01*
X111394576Y-105658592D01*
X111400985Y-105598982D01*
X111400984Y-105588421D01*
X111420664Y-105521384D01*
X111437303Y-105500735D01*
X112107522Y-104830517D01*
X112124560Y-104894102D01*
G37*
%TD.AperFunction*%
%TA.AperFunction,Conductor*%
G36*
X113705755Y-105462826D02*
G01*
X113705755Y-105462825D01*
X113745107Y-105408664D01*
X113749717Y-105399616D01*
X113797690Y-105348818D01*
X113865510Y-105332021D01*
X113931646Y-105354556D01*
X113970689Y-105399613D01*
X113975434Y-105408926D01*
X114100375Y-105580895D01*
X114250698Y-105731218D01*
X114422664Y-105856157D01*
X114422666Y-105856158D01*
X114422669Y-105856160D01*
X114612073Y-105952666D01*
X114806004Y-106015678D01*
X114863680Y-106055116D01*
X114890878Y-106119474D01*
X114878963Y-106188321D01*
X114831719Y-106239796D01*
X114767686Y-106257609D01*
X112951668Y-106257609D01*
X112884629Y-106237924D01*
X112838874Y-106185120D01*
X112828930Y-106115962D01*
X112857955Y-106052406D01*
X112913350Y-106015678D01*
X113108702Y-105952204D01*
X113298039Y-105855731D01*
X113352201Y-105816379D01*
X113352202Y-105816379D01*
X112719893Y-105184071D01*
X112783478Y-105167034D01*
X112897492Y-105101208D01*
X112990584Y-105008116D01*
X113056410Y-104894102D01*
X113073447Y-104830518D01*
X113705755Y-105462826D01*
G37*
%TD.AperFunction*%
%TA.AperFunction,Conductor*%
G36*
X122897666Y-84204737D02*
G01*
X122931151Y-84266060D01*
X122933985Y-84292409D01*
X122933985Y-84302974D01*
X122933986Y-84302985D01*
X122940393Y-84362592D01*
X122990687Y-84497437D01*
X122990691Y-84497444D01*
X123076937Y-84612653D01*
X123076940Y-84612656D01*
X123192149Y-84698902D01*
X123192156Y-84698906D01*
X123323567Y-84747919D01*
X123379501Y-84789790D01*
X123403918Y-84855254D01*
X123389067Y-84923527D01*
X123367916Y-84951782D01*
X123254374Y-85065324D01*
X123129434Y-85237291D01*
X123124969Y-85246055D01*
X123076994Y-85296851D01*
X123009173Y-85313645D01*
X122943038Y-85291107D01*
X122904001Y-85246055D01*
X122899535Y-85237291D01*
X122774594Y-85065322D01*
X122624271Y-84914999D01*
X122452302Y-84790058D01*
X122442989Y-84785313D01*
X122392192Y-84737339D01*
X122375397Y-84669518D01*
X122397934Y-84603383D01*
X122442992Y-84564341D01*
X122452040Y-84559731D01*
X122506201Y-84520379D01*
X122506202Y-84520379D01*
X121873893Y-83888071D01*
X121937478Y-83871034D01*
X122051492Y-83805208D01*
X122144584Y-83712116D01*
X122210410Y-83598102D01*
X122227447Y-83534518D01*
X122897666Y-84204737D01*
G37*
%TD.AperFunction*%
%TD*%
M02*
