%TF.GenerationSoftware,KiCad,Pcbnew,9.0.6*%
%TF.CreationDate,2026-05-04T00:19:30+02:00*%
%TF.ProjectId,MCU Datalogger,4d435520-4461-4746-916c-6f676765722e,1*%
%TF.SameCoordinates,Original*%
%TF.FileFunction,Soldermask,Top*%
%TF.FilePolarity,Negative*%
%FSLAX46Y46*%
G04 Gerber Fmt 4.6, Leading zero omitted, Abs format (unit mm)*
G04 Created by KiCad (PCBNEW 9.0.6) date 2026-05-04 00:19:30*
%MOMM*%
%LPD*%
G01*
G04 APERTURE LIST*
G04 Aperture macros list*
%AMRoundRect*
0 Rectangle with rounded corners*
0 $1 Rounding radius*
0 $2 $3 $4 $5 $6 $7 $8 $9 X,Y pos of 4 corners*
0 Add a 4 corners polygon primitive as box body*
4,1,4,$2,$3,$4,$5,$6,$7,$8,$9,$2,$3,0*
0 Add four circle primitives for the rounded corners*
1,1,$1+$1,$2,$3*
1,1,$1+$1,$4,$5*
1,1,$1+$1,$6,$7*
1,1,$1+$1,$8,$9*
0 Add four rect primitives between the rounded corners*
20,1,$1+$1,$2,$3,$4,$5,0*
20,1,$1+$1,$4,$5,$6,$7,0*
20,1,$1+$1,$6,$7,$8,$9,0*
20,1,$1+$1,$8,$9,$2,$3,0*%
G04 Aperture macros list end*
%ADD10C,2.100000*%
%ADD11RoundRect,0.099250X-0.987750X-0.297750X0.987750X-0.297750X0.987750X0.297750X-0.987750X0.297750X0*%
%ADD12R,0.550000X1.500000*%
%ADD13R,1.500000X0.550000*%
%ADD14RoundRect,0.150000X-0.825000X-0.150000X0.825000X-0.150000X0.825000X0.150000X-0.825000X0.150000X0*%
%ADD15RoundRect,0.250000X-0.262500X-0.450000X0.262500X-0.450000X0.262500X0.450000X-0.262500X0.450000X0*%
%ADD16C,1.700000*%
%ADD17R,1.700000X1.700000*%
%ADD18RoundRect,0.243750X-0.243750X-0.456250X0.243750X-0.456250X0.243750X0.456250X-0.243750X0.456250X0*%
%ADD19RoundRect,0.250000X-0.250000X-0.475000X0.250000X-0.475000X0.250000X0.475000X-0.250000X0.475000X0*%
%ADD20RoundRect,0.250001X0.949999X-1.499999X0.949999X1.499999X-0.949999X1.499999X-0.949999X-1.499999X0*%
%ADD21RoundRect,0.250000X0.250000X0.475000X-0.250000X0.475000X-0.250000X-0.475000X0.250000X-0.475000X0*%
%ADD22RoundRect,0.250000X0.262500X0.450000X-0.262500X0.450000X-0.262500X-0.450000X0.262500X-0.450000X0*%
%ADD23RoundRect,0.250000X0.450000X-0.262500X0.450000X0.262500X-0.450000X0.262500X-0.450000X-0.262500X0*%
G04 APERTURE END LIST*
D10*
%TO.C,H4*%
X123883485Y-78818109D03*
%TD*%
%TO.C,H3*%
X123883485Y-104218109D03*
%TD*%
%TO.C,H2*%
X78798485Y-104218109D03*
%TD*%
%TO.C,H1*%
X78798485Y-78818109D03*
%TD*%
D11*
%TO.C,U4*%
X91941485Y-84025109D03*
X91941485Y-85295109D03*
X91941485Y-86565109D03*
X91941485Y-87835109D03*
X86991485Y-87835109D03*
X86991485Y-86565109D03*
X86991485Y-85295109D03*
X86991485Y-84025109D03*
%TD*%
D12*
%TO.C,U3*%
X98350485Y-81222109D03*
X99150485Y-81222109D03*
X99950485Y-81222109D03*
X100750485Y-81222109D03*
X101550485Y-81222109D03*
X102350485Y-81222109D03*
X103150485Y-81222109D03*
X103950485Y-81222109D03*
D13*
X105350485Y-82622109D03*
X105350485Y-83422109D03*
X105350485Y-84222109D03*
X105350485Y-85022109D03*
X105350485Y-85822109D03*
X105350485Y-86622109D03*
X105350485Y-87422109D03*
X105350485Y-88222109D03*
D12*
X103950485Y-89622109D03*
X103150485Y-89622109D03*
X102350485Y-89622109D03*
X101550485Y-89622109D03*
X100750485Y-89622109D03*
X99950485Y-89622109D03*
X99150485Y-89622109D03*
X98350485Y-89622109D03*
D13*
X96950485Y-88222109D03*
X96950485Y-87422109D03*
X96950485Y-86622109D03*
X96950485Y-85822109D03*
X96950485Y-85022109D03*
X96950485Y-84222109D03*
X96950485Y-83422109D03*
X96950485Y-82622109D03*
%TD*%
D14*
%TO.C,U2*%
X114293485Y-95201109D03*
X114293485Y-96471109D03*
X114293485Y-97741109D03*
X114293485Y-99011109D03*
X109343485Y-99011109D03*
X109343485Y-97741109D03*
X109343485Y-96471109D03*
X109343485Y-95201109D03*
%TD*%
%TO.C,U1*%
X103117485Y-94693109D03*
X103117485Y-95963109D03*
X103117485Y-97233109D03*
X103117485Y-98503109D03*
X98167485Y-98503109D03*
X98167485Y-97233109D03*
X98167485Y-95963109D03*
X98167485Y-94693109D03*
%TD*%
D15*
%TO.C,R3*%
X113238985Y-86438109D03*
X111413985Y-86438109D03*
%TD*%
D16*
%TO.C,J4*%
X121744485Y-88485109D03*
X124284485Y-88485109D03*
X121744485Y-85945109D03*
X124284485Y-85945109D03*
X121744485Y-83405109D03*
D17*
X124284485Y-83405109D03*
%TD*%
D16*
%TO.C,J1*%
X124035485Y-99910109D03*
X124035485Y-97370109D03*
X124035485Y-94830109D03*
D17*
X124035485Y-92290109D03*
%TD*%
D18*
%TO.C,D2*%
X111388985Y-79326109D03*
X113263985Y-79326109D03*
%TD*%
D15*
%TO.C,R4*%
X115477985Y-90502109D03*
X117302985Y-90502109D03*
%TD*%
D19*
%TO.C,C5*%
X111376485Y-90502109D03*
X113276485Y-90502109D03*
%TD*%
D15*
%TO.C,R6*%
X115477985Y-86438109D03*
X117302985Y-86438109D03*
%TD*%
D20*
%TO.C,Y1*%
X81846485Y-88530109D03*
X81846485Y-83330109D03*
%TD*%
D18*
%TO.C,D1*%
X115452985Y-79326109D03*
X117327985Y-79326109D03*
%TD*%
D21*
%TO.C,C1*%
X94480485Y-78818109D03*
X92580485Y-78818109D03*
%TD*%
%TO.C,C2*%
X103116485Y-78310109D03*
X101216485Y-78310109D03*
%TD*%
D22*
%TO.C,R7*%
X113238985Y-82882109D03*
X111413985Y-82882109D03*
%TD*%
D21*
%TO.C,C4*%
X107180485Y-78310109D03*
X105280485Y-78310109D03*
%TD*%
D17*
%TO.C,J2*%
X110050485Y-104701109D03*
D16*
X112590485Y-104701109D03*
X115130485Y-104701109D03*
X117670485Y-104701109D03*
%TD*%
D15*
%TO.C,R2*%
X88553985Y-78310109D03*
X90378985Y-78310109D03*
%TD*%
D17*
%TO.C,BT1*%
X81338485Y-95074109D03*
D16*
X81338485Y-97614109D03*
%TD*%
D22*
%TO.C,R5*%
X117302985Y-82882109D03*
X115477985Y-82882109D03*
%TD*%
D17*
%TO.C,J3*%
X83370485Y-104726109D03*
D16*
X85910485Y-104726109D03*
X88450485Y-104726109D03*
X90990485Y-104726109D03*
X93530485Y-104726109D03*
X96070485Y-104726109D03*
X98610485Y-104726109D03*
X101150485Y-104726109D03*
X103690485Y-104726109D03*
%TD*%
D20*
%TO.C,Y2*%
X90990485Y-99198109D03*
X90990485Y-93998109D03*
%TD*%
D23*
%TO.C,R1*%
X83878485Y-79222609D03*
X83878485Y-77397609D03*
%TD*%
D21*
%TO.C,C3*%
X99052485Y-78310109D03*
X97152485Y-78310109D03*
%TD*%
M02*
