M48
; DRILL file {KiCad 9.0.6} date 2026-05-04T00:19:34+0200
; FORMAT={-:-/ absolute / metric / decimal}
; #@! TF.CreationDate,2026-05-04T00:19:34+02:00
; #@! TF.GenerationSoftware,Kicad,Pcbnew,9.0.6
; #@! TF.FileFunction,Plated,1,4,PTH
FMAT,2
METRIC
; #@! TA.AperFunction,Plated,PTH,ViaDrill
T1C0.300
; #@! TA.AperFunction,Plated,PTH,ComponentDrill
T2C1.000
%
G90
G05
T1
X84.201Y-99.416
X89.357Y-84.684
X90.145Y-87.274
X92.024Y-82.652
X92.075Y-89.814
X92.583Y-80.848
X94.927Y-85.573
X95.885Y-78.867
X96.884Y-81.034
X98.527Y-83.617
X98.933Y-87.655
X100.101Y-93.193
X100.109Y-83.306
X100.775Y-82.55
X100.965Y-84.353
X101.524Y-83.541
X102.81Y-82.766
X103.048Y-87.097
X103.378Y-91.897
X103.988Y-85.852
X104.267Y-78.842
X104.546Y-91.364
X104.673Y-101.143
X104.851Y-98.501
X106.782Y-85.014
X106.858Y-88.595
X107.772Y-87.732
X110.211Y-84.48
X110.973Y-88.24
X111.735Y-101.956
X112.056Y-84.659
X113.106Y-85.133
X113.309Y-81.229
X114.198Y-92.151
X114.681Y-85.115
X118.421Y-86.248
X118.987Y-84.887
X119.431Y-88.367
X120.675Y-81.026
T2
X81.338Y-95.074
X81.338Y-97.614
X83.37Y-104.726
X85.91Y-104.726
X88.45Y-104.726
X90.99Y-104.726
X93.53Y-104.726
X96.07Y-104.726
X98.61Y-104.726
X101.15Y-104.726
X103.69Y-104.726
X110.05Y-104.701
X112.59Y-104.701
X115.13Y-104.701
X117.67Y-104.701
X121.744Y-83.405
X121.744Y-85.945
X121.744Y-88.485
X124.035Y-92.29
X124.035Y-94.83
X124.035Y-97.37
X124.035Y-99.91
X124.284Y-83.405
X124.284Y-85.945
X124.284Y-88.485
M30
