%TF.GenerationSoftware,KiCad,Pcbnew,9.0.6*%
%TF.CreationDate,2026-05-04T00:19:29+02:00*%
%TF.ProjectId,MCU Datalogger,4d435520-4461-4746-916c-6f676765722e,1*%
%TF.SameCoordinates,Original*%
%TF.FileFunction,Copper,L2,Inr*%
%TF.FilePolarity,Positive*%
%FSLAX46Y46*%
G04 Gerber Fmt 4.6, Leading zero omitted, Abs format (unit mm)*
G04 Created by KiCad (PCBNEW 9.0.6) date 2026-05-04 00:19:29*
%MOMM*%
%LPD*%
G01*
G04 APERTURE LIST*
%TA.AperFunction,ComponentPad*%
%ADD10C,1.700000*%
%TD*%
%TA.AperFunction,ComponentPad*%
%ADD11R,1.700000X1.700000*%
%TD*%
%TA.AperFunction,ViaPad*%
%ADD12C,0.800000*%
%TD*%
%TA.AperFunction,Conductor*%
%ADD13C,0.250000*%
%TD*%
G04 APERTURE END LIST*
D10*
%TO.N,GND*%
%TO.C,J4*%
X121744485Y-88485109D03*
%TO.N,/RESET*%
X124284485Y-88485109D03*
%TO.N,/MOSI*%
X121744485Y-85945109D03*
%TO.N,/SCL*%
X124284485Y-85945109D03*
%TO.N,/Vcc*%
X121744485Y-83405109D03*
D11*
%TO.N,/MISO*%
X124284485Y-83405109D03*
%TD*%
D10*
%TO.N,/SCL*%
%TO.C,J1*%
X124035485Y-99910109D03*
%TO.N,/SDA*%
X124035485Y-97370109D03*
%TO.N,/Vcc*%
X124035485Y-94830109D03*
D11*
%TO.N,GND*%
X124035485Y-92290109D03*
%TD*%
%TO.N,GND*%
%TO.C,J2*%
X110050485Y-104701109D03*
D10*
%TO.N,/Vcc*%
X112590485Y-104701109D03*
%TO.N,/RX*%
X115130485Y-104701109D03*
%TO.N,/TX*%
X117670485Y-104701109D03*
%TD*%
D11*
%TO.N,Net-(BT1-+)*%
%TO.C,BT1*%
X81338485Y-95074109D03*
D10*
%TO.N,GND*%
X81338485Y-97614109D03*
%TD*%
D11*
%TO.N,/D2*%
%TO.C,J3*%
X83370485Y-104726109D03*
D10*
%TO.N,/D3*%
X85910485Y-104726109D03*
%TO.N,/D4*%
X88450485Y-104726109D03*
%TO.N,/D5*%
X90990485Y-104726109D03*
%TO.N,/D6*%
X93530485Y-104726109D03*
%TO.N,/D7*%
X96070485Y-104726109D03*
%TO.N,/D8*%
X98610485Y-104726109D03*
%TO.N,GND*%
X101150485Y-104726109D03*
%TO.N,/Vcc*%
X103690485Y-104726109D03*
%TD*%
D12*
%TO.N,/SCL*%
X90144600Y-87274400D03*
X100965000Y-84353400D03*
X101523800Y-83540600D03*
X114681000Y-85115400D03*
%TO.N,/RESET*%
X118987499Y-84886516D03*
%TO.N,/SCK*%
X112056478Y-84659349D03*
%TO.N,/RESET*%
X100775485Y-82550000D03*
%TO.N,/D2*%
X100109156Y-83305838D03*
%TO.N,/Vcc*%
X113106200Y-85133109D03*
X100101400Y-93192600D03*
X92024200Y-82651600D03*
X111734600Y-101955600D03*
%TO.N,Net-(U3-PB7)*%
X98933000Y-87655400D03*
X95885000Y-78867000D03*
%TO.N,GND*%
X84201000Y-99415600D03*
X104673400Y-101142800D03*
X119430800Y-88366600D03*
X114198400Y-92151200D03*
%TO.N,/SDA*%
X102810393Y-82765600D03*
%TO.N,Net-(U3-AREF)*%
X104267000Y-78841600D03*
X103987600Y-85852000D03*
%TO.N,Net-(BT1-+)*%
X110972600Y-88239600D03*
X113309400Y-81229200D03*
X103047800Y-87096600D03*
X98526600Y-83616800D03*
X107772200Y-87731600D03*
%TO.N,GND*%
X106781600Y-85013800D03*
X110210600Y-84480400D03*
X89357200Y-84683600D03*
X92583000Y-80848200D03*
%TO.N,Net-(U3-PB6)*%
X96883840Y-81034240D03*
X94927485Y-85572600D03*
%TO.N,/SDA*%
X104851200Y-98501200D03*
X92075000Y-89814400D03*
%TO.N,/MOSI*%
X103378000Y-91897200D03*
X118421323Y-86248060D03*
%TO.N,/MISO*%
X104546400Y-91363800D03*
X120675400Y-81026000D03*
%TO.N,/SCK*%
X106857800Y-88595200D03*
%TD*%
D13*
%TO.N,/SCL*%
X90652600Y-87782400D02*
X90144600Y-87274400D01*
X97536000Y-87782400D02*
X90652600Y-87782400D01*
X100965000Y-84353400D02*
X97536000Y-87782400D01*
%TO.N,Net-(BT1-+)*%
X102674809Y-81534000D02*
X100609400Y-81534000D01*
X103047800Y-84181081D02*
X103585393Y-83643488D01*
X103585393Y-83643488D02*
X103585393Y-82444584D01*
X103047800Y-87096600D02*
X103047800Y-84181081D01*
%TO.N,/SDA*%
X102565200Y-83010793D02*
X102810393Y-82765600D01*
X99088210Y-89814400D02*
X102565200Y-86337410D01*
%TO.N,Net-(BT1-+)*%
X103585393Y-82444584D02*
X102674809Y-81534000D01*
%TO.N,/SDA*%
X102565200Y-86337410D02*
X102565200Y-83010793D01*
X92075000Y-89814400D02*
X99088210Y-89814400D01*
%TO.N,Net-(BT1-+)*%
X100609400Y-81534000D02*
X98526600Y-83616800D01*
%TO.N,/MOSI*%
X116154200Y-86537800D02*
X118131583Y-86537800D01*
X110236000Y-92456000D02*
X116154200Y-86537800D01*
X103378000Y-91897200D02*
X103936800Y-92456000D01*
X118131583Y-86537800D02*
X118421323Y-86248060D01*
X103936800Y-92456000D02*
X110236000Y-92456000D01*
%TO.N,Net-(BT1-+)*%
X111963200Y-88239600D02*
X110972600Y-88239600D01*
X112141000Y-86512400D02*
X112141000Y-88061800D01*
X113385600Y-83866984D02*
X113881200Y-84362584D01*
X113385600Y-81305400D02*
X113385600Y-83866984D01*
X113309400Y-81229200D02*
X113385600Y-81305400D01*
X113447162Y-85888163D02*
X112765237Y-85888163D01*
X113881200Y-85454125D02*
X113447162Y-85888163D01*
%TO.N,/SCK*%
X111555651Y-84659349D02*
X112056478Y-84659349D01*
X109575600Y-86639400D02*
X111555651Y-84659349D01*
X107492800Y-86639400D02*
X109575600Y-86639400D01*
X106857800Y-87274400D02*
X107492800Y-86639400D01*
X106857800Y-88595200D02*
X106857800Y-87274400D01*
%TO.N,Net-(BT1-+)*%
X113881200Y-84362584D02*
X113881200Y-85454125D01*
X112765237Y-85888163D02*
X112141000Y-86512400D01*
X112141000Y-88061800D02*
X111963200Y-88239600D01*
X98526600Y-80492600D02*
X98526600Y-83616800D01*
X97942400Y-79908400D02*
X98526600Y-80492600D01*
X96266000Y-79908400D02*
X97942400Y-79908400D01*
X81338485Y-94835915D02*
X96266000Y-79908400D01*
X81338485Y-95074109D02*
X81338485Y-94835915D01*
X98526600Y-83235800D02*
X98526600Y-83616800D01*
%TO.N,/Vcc*%
X120568485Y-84581109D02*
X121744485Y-83405109D01*
X120568485Y-91363109D02*
X120568485Y-84581109D01*
X124035485Y-94830109D02*
X120568485Y-91363109D01*
X111414485Y-105877109D02*
X112590485Y-104701109D01*
X103690485Y-104726109D02*
X104841485Y-105877109D01*
X104841485Y-105877109D02*
X111414485Y-105877109D01*
%TO.N,Net-(U3-AREF)*%
X104267000Y-85572600D02*
X104267000Y-78841600D01*
X103987600Y-85852000D02*
X104267000Y-85572600D01*
%TO.N,Net-(BT1-+)*%
X108280200Y-88239600D02*
X107772200Y-87731600D01*
X110972600Y-88239600D02*
X108280200Y-88239600D01*
%TO.N,GND*%
X89357200Y-84074000D02*
X92583000Y-80848200D01*
X106781600Y-85013800D02*
X109677200Y-85013800D01*
X89357200Y-84683600D02*
X89357200Y-84074000D01*
X109677200Y-85013800D02*
X110210600Y-84480400D01*
%TO.N,Net-(U3-PB6)*%
X95559491Y-84940594D02*
X94927485Y-85572600D01*
X96883840Y-81034240D02*
X95559491Y-82358589D01*
X95559491Y-82358589D02*
X95559491Y-84940594D01*
%TO.N,/SDA*%
X100888800Y-98628200D02*
X92075000Y-89814400D01*
X104724200Y-98628200D02*
X100888800Y-98628200D01*
X104851200Y-98501200D02*
X104724200Y-98628200D01*
%TO.N,/MISO*%
X110337600Y-91363800D02*
X120675400Y-81026000D01*
X104546400Y-91363800D02*
X110337600Y-91363800D01*
%TO.N,/SDA*%
X122904394Y-98501200D02*
X124035485Y-97370109D01*
X104851200Y-98501200D02*
X122904394Y-98501200D01*
%TD*%
M02*
